<mxfile host="65bd71144e" pages="5">
    <diagram id="r7pP4bzJTDtXHIeWpz0c" name="Page-1">
        <mxGraphModel dx="1256" dy="758" grid="1" gridSize="10" guides="1" tooltips="1" connect="1" arrows="1" fold="1" page="1" pageScale="1" pageWidth="1100" pageHeight="850" math="0" shadow="0">
            <root>
                <mxCell id="0"/>
                <mxCell id="1" parent="0"/>
                <mxCell id="IvPFsCvEk4tULA39Jrcx-68" value="" style="rounded=1;whiteSpace=wrap;html=1;fontFamily=Helvetica;strokeWidth=2;fillColor=none;strokeColor=#10739e;dashed=1;" parent="1" vertex="1">
                    <mxGeometry x="860" y="20" width="160" height="440" as="geometry"/>
                </mxCell>
                <mxCell id="IvPFsCvEk4tULA39Jrcx-22" style="edgeStyle=orthogonalEdgeStyle;orthogonalLoop=1;jettySize=auto;html=1;startArrow=none;" parent="1" source="IvPFsCvEk4tULA39Jrcx-32" target="IvPFsCvEk4tULA39Jrcx-16" edge="1">
                    <mxGeometry relative="1" as="geometry"/>
                </mxCell>
                <mxCell id="IvPFsCvEk4tULA39Jrcx-23" style="edgeStyle=orthogonalEdgeStyle;orthogonalLoop=1;jettySize=auto;html=1;" parent="1" source="IvPFsCvEk4tULA39Jrcx-1" target="IvPFsCvEk4tULA39Jrcx-17" edge="1">
                    <mxGeometry relative="1" as="geometry"/>
                </mxCell>
                <mxCell id="IvPFsCvEk4tULA39Jrcx-1" value="Terraform&lt;br&gt;Service Module" style="rounded=1;whiteSpace=wrap;html=1;fillColor=default;strokeColor=#b46504;strokeWidth=3;" parent="1" vertex="1">
                    <mxGeometry x="40" y="160" width="120" height="40" as="geometry"/>
                </mxCell>
                <mxCell id="IvPFsCvEk4tULA39Jrcx-10" style="edgeStyle=orthogonalEdgeStyle;rounded=0;orthogonalLoop=1;jettySize=auto;html=1;" parent="1" source="IvPFsCvEk4tULA39Jrcx-2" target="IvPFsCvEk4tULA39Jrcx-6" edge="1">
                    <mxGeometry relative="1" as="geometry"/>
                </mxCell>
                <mxCell id="IvPFsCvEk4tULA39Jrcx-11" style="edgeStyle=orthogonalEdgeStyle;orthogonalLoop=1;jettySize=auto;html=1;entryX=0;entryY=0.5;entryDx=0;entryDy=0;startArrow=none;" parent="1" source="IvPFsCvEk4tULA39Jrcx-51" target="IvPFsCvEk4tULA39Jrcx-7" edge="1">
                    <mxGeometry relative="1" as="geometry">
                        <Array as="points">
                            <mxPoint x="820" y="60"/>
                        </Array>
                    </mxGeometry>
                </mxCell>
                <mxCell id="IvPFsCvEk4tULA39Jrcx-27" style="edgeStyle=orthogonalEdgeStyle;orthogonalLoop=1;jettySize=auto;html=1;entryX=0.5;entryY=0;entryDx=0;entryDy=0;" parent="1" source="IvPFsCvEk4tULA39Jrcx-2" target="IvPFsCvEk4tULA39Jrcx-26" edge="1">
                    <mxGeometry relative="1" as="geometry"/>
                </mxCell>
                <mxCell id="IvPFsCvEk4tULA39Jrcx-2" value="ArgoCD Application" style="rounded=1;whiteSpace=wrap;html=1;" parent="1" vertex="1">
                    <mxGeometry x="640" y="160" width="120" height="40" as="geometry"/>
                </mxCell>
                <mxCell id="IvPFsCvEk4tULA39Jrcx-28" style="edgeStyle=orthogonalEdgeStyle;orthogonalLoop=1;jettySize=auto;html=1;entryX=0;entryY=0.5;entryDx=0;entryDy=0;dashed=1;endArrow=none;endFill=0;" parent="1" source="IvPFsCvEk4tULA39Jrcx-3" target="IvPFsCvEk4tULA39Jrcx-26" edge="1">
                    <mxGeometry relative="1" as="geometry"/>
                </mxCell>
                <mxCell id="IvPFsCvEk4tULA39Jrcx-3" value="Vault Secret" style="rounded=1;whiteSpace=wrap;html=1;" parent="1" vertex="1">
                    <mxGeometry x="440" y="280" width="120" height="40" as="geometry"/>
                </mxCell>
                <mxCell id="IvPFsCvEk4tULA39Jrcx-4" value="AWS Database" style="rounded=1;whiteSpace=wrap;html=1;" parent="1" vertex="1">
                    <mxGeometry x="880" y="400" width="120" height="40" as="geometry"/>
                </mxCell>
                <mxCell id="IvPFsCvEk4tULA39Jrcx-6" value="App Service" style="rounded=1;whiteSpace=wrap;html=1;" parent="1" vertex="1">
                    <mxGeometry x="880" y="160" width="120" height="40" as="geometry"/>
                </mxCell>
                <mxCell id="IvPFsCvEk4tULA39Jrcx-7" value="App Ingress" style="rounded=1;whiteSpace=wrap;html=1;" parent="1" vertex="1">
                    <mxGeometry x="880" y="40" width="120" height="40" as="geometry"/>
                </mxCell>
                <mxCell id="IvPFsCvEk4tULA39Jrcx-8" value="App Secret" style="rounded=1;whiteSpace=wrap;html=1;" parent="1" vertex="1">
                    <mxGeometry x="880" y="280" width="120" height="40" as="geometry"/>
                </mxCell>
                <mxCell id="IvPFsCvEk4tULA39Jrcx-18" style="edgeStyle=orthogonalEdgeStyle;orthogonalLoop=1;jettySize=auto;html=1;entryX=0;entryY=0.5;entryDx=0;entryDy=0;startArrow=none;" parent="1" source="IvPFsCvEk4tULA39Jrcx-41" target="IvPFsCvEk4tULA39Jrcx-3" edge="1">
                    <mxGeometry relative="1" as="geometry">
                        <mxPoint x="210" y="300" as="sourcePoint"/>
                    </mxGeometry>
                </mxCell>
                <mxCell id="IvPFsCvEk4tULA39Jrcx-19" style="edgeStyle=orthogonalEdgeStyle;orthogonalLoop=1;jettySize=auto;html=1;entryX=0;entryY=0.5;entryDx=0;entryDy=0;startArrow=none;exitX=1;exitY=0.5;exitDx=0;exitDy=0;" parent="1" source="IvPFsCvEk4tULA39Jrcx-41" target="IvPFsCvEk4tULA39Jrcx-4" edge="1">
                    <mxGeometry relative="1" as="geometry">
                        <Array as="points">
                            <mxPoint x="360" y="300"/>
                            <mxPoint x="360" y="420"/>
                        </Array>
                    </mxGeometry>
                </mxCell>
                <mxCell id="IvPFsCvEk4tULA39Jrcx-16" value="Terraform&lt;br&gt;Infrastructure Module" style="rounded=1;whiteSpace=wrap;html=1;fillColor=default;strokeColor=#0e8088;strokeWidth=3;" parent="1" vertex="1">
                    <mxGeometry x="40" y="280" width="120" height="40" as="geometry"/>
                </mxCell>
                <mxCell id="IvPFsCvEk4tULA39Jrcx-20" style="edgeStyle=orthogonalEdgeStyle;orthogonalLoop=1;jettySize=auto;html=1;entryX=0;entryY=0.5;entryDx=0;entryDy=0;startArrow=none;" parent="1" source="IvPFsCvEk4tULA39Jrcx-49" target="IvPFsCvEk4tULA39Jrcx-2" edge="1">
                    <mxGeometry relative="1" as="geometry"/>
                </mxCell>
                <mxCell id="IvPFsCvEk4tULA39Jrcx-17" value="Terraform&lt;br&gt;Resource Module" style="rounded=1;whiteSpace=wrap;html=1;fillColor=default;strokeColor=#10739e;strokeWidth=3;" parent="1" vertex="1">
                    <mxGeometry x="440" y="160" width="120" height="40" as="geometry"/>
                </mxCell>
                <mxCell id="IvPFsCvEk4tULA39Jrcx-29" style="edgeStyle=orthogonalEdgeStyle;orthogonalLoop=1;jettySize=auto;html=1;entryX=0;entryY=0.5;entryDx=0;entryDy=0;startArrow=none;" parent="1" source="IvPFsCvEk4tULA39Jrcx-66" target="IvPFsCvEk4tULA39Jrcx-8" edge="1">
                    <mxGeometry relative="1" as="geometry"/>
                </mxCell>
                <mxCell id="IvPFsCvEk4tULA39Jrcx-26" value="External Secret" style="rounded=1;whiteSpace=wrap;html=1;" parent="1" vertex="1">
                    <mxGeometry x="640" y="280" width="120" height="40" as="geometry"/>
                </mxCell>
                <mxCell id="IvPFsCvEk4tULA39Jrcx-70" style="edgeStyle=orthogonalEdgeStyle;orthogonalLoop=1;jettySize=auto;html=1;entryX=0.5;entryY=0;entryDx=0;entryDy=0;fontFamily=Helvetica;fontColor=#666666;endArrow=classic;endFill=1;strokeWidth=1;" parent="1" source="IvPFsCvEk4tULA39Jrcx-30" target="IvPFsCvEk4tULA39Jrcx-1" edge="1">
                    <mxGeometry relative="1" as="geometry"/>
                </mxCell>
                <mxCell id="IvPFsCvEk4tULA39Jrcx-71" style="edgeStyle=orthogonalEdgeStyle;orthogonalLoop=1;jettySize=auto;html=1;fontFamily=Helvetica;fontColor=#666666;endArrow=none;endFill=0;strokeWidth=1;rounded=1;dashed=1;" parent="1" source="IvPFsCvEk4tULA39Jrcx-30" target="IvPFsCvEk4tULA39Jrcx-17" edge="1">
                    <mxGeometry relative="1" as="geometry"/>
                </mxCell>
                <mxCell id="IvPFsCvEk4tULA39Jrcx-30" value="Service&lt;br&gt;Helm Chart" style="rounded=1;whiteSpace=wrap;html=1;" parent="1" vertex="1">
                    <mxGeometry x="40" y="40" width="120" height="40" as="geometry"/>
                </mxCell>
                <mxCell id="IvPFsCvEk4tULA39Jrcx-32" value="1" style="ellipse;whiteSpace=wrap;html=1;aspect=fixed;strokeWidth=3;fillColor=#AE4132;strokeColor=#ae4132;fontColor=#FFFFFF;fontFamily=Helvetica;" parent="1" vertex="1">
                    <mxGeometry x="90" y="230" width="20" height="20" as="geometry"/>
                </mxCell>
                <mxCell id="IvPFsCvEk4tULA39Jrcx-33" value="" style="edgeStyle=orthogonalEdgeStyle;orthogonalLoop=1;jettySize=auto;html=1;endArrow=none;" parent="1" source="IvPFsCvEk4tULA39Jrcx-1" target="IvPFsCvEk4tULA39Jrcx-32" edge="1">
                    <mxGeometry relative="1" as="geometry">
                        <mxPoint x="100" y="200.0000000000001" as="sourcePoint"/>
                        <mxPoint x="100" y="280.0000000000001" as="targetPoint"/>
                    </mxGeometry>
                </mxCell>
                <mxCell id="IvPFsCvEk4tULA39Jrcx-35" value="" style="edgeStyle=orthogonalEdgeStyle;orthogonalLoop=1;jettySize=auto;html=1;entryX=0;entryY=0.5;entryDx=0;entryDy=0;endArrow=none;" parent="1" source="IvPFsCvEk4tULA39Jrcx-16" edge="1">
                    <mxGeometry relative="1" as="geometry">
                        <mxPoint x="160" y="300" as="sourcePoint"/>
                        <mxPoint x="189.9999999999891" y="300" as="targetPoint"/>
                    </mxGeometry>
                </mxCell>
                <mxCell id="IvPFsCvEk4tULA39Jrcx-36" value="3" style="ellipse;whiteSpace=wrap;html=1;aspect=fixed;strokeWidth=3;fillColor=#AE4132;strokeColor=#ae4132;fontColor=#FFFFFF;fontFamily=Helvetica;" parent="1" vertex="1">
                    <mxGeometry x="290" y="170" width="20" height="20" as="geometry"/>
                </mxCell>
                <mxCell id="IvPFsCvEk4tULA39Jrcx-49" value="4" style="ellipse;whiteSpace=wrap;html=1;aspect=fixed;strokeWidth=3;fillColor=#AE4132;strokeColor=#ae4132;fontColor=#FFFFFF;fontFamily=Helvetica;" parent="1" vertex="1">
                    <mxGeometry x="590" y="170" width="20" height="20" as="geometry"/>
                </mxCell>
                <mxCell id="IvPFsCvEk4tULA39Jrcx-50" value="" style="edgeStyle=orthogonalEdgeStyle;orthogonalLoop=1;jettySize=auto;html=1;entryX=0;entryY=0.5;entryDx=0;entryDy=0;endArrow=none;" parent="1" source="IvPFsCvEk4tULA39Jrcx-17" target="IvPFsCvEk4tULA39Jrcx-49" edge="1">
                    <mxGeometry relative="1" as="geometry">
                        <mxPoint x="560" y="180" as="sourcePoint"/>
                        <mxPoint x="640" y="180" as="targetPoint"/>
                    </mxGeometry>
                </mxCell>
                <mxCell id="IvPFsCvEk4tULA39Jrcx-51" value="7" style="ellipse;whiteSpace=wrap;html=1;aspect=fixed;strokeWidth=3;fillColor=#AE4132;strokeColor=#ae4132;fontColor=#FFFFFF;fontFamily=Helvetica;" parent="1" vertex="1">
                    <mxGeometry x="810" y="170" width="20" height="20" as="geometry"/>
                </mxCell>
                <mxCell id="IvPFsCvEk4tULA39Jrcx-52" value="" style="edgeStyle=orthogonalEdgeStyle;orthogonalLoop=1;jettySize=auto;html=1;entryX=0;entryY=0.5;entryDx=0;entryDy=0;endArrow=none;" parent="1" source="IvPFsCvEk4tULA39Jrcx-2" target="IvPFsCvEk4tULA39Jrcx-51" edge="1">
                    <mxGeometry relative="1" as="geometry">
                        <mxPoint x="760" y="180" as="sourcePoint"/>
                        <mxPoint x="880" y="60" as="targetPoint"/>
                    </mxGeometry>
                </mxCell>
                <mxCell id="IvPFsCvEk4tULA39Jrcx-53" value="5" style="ellipse;whiteSpace=wrap;html=1;aspect=fixed;strokeWidth=3;fillColor=#AE4132;strokeColor=#ae4132;fontColor=#FFFFFF;fontFamily=Helvetica;" parent="1" vertex="1">
                    <mxGeometry x="690" y="230" width="20" height="20" as="geometry"/>
                </mxCell>
                <mxCell id="IvPFsCvEk4tULA39Jrcx-69" style="edgeStyle=orthogonalEdgeStyle;orthogonalLoop=1;jettySize=auto;html=1;entryX=0.5;entryY=1;entryDx=0;entryDy=0;dashed=1;fontFamily=Helvetica;fontColor=#666666;endArrow=none;endFill=0;strokeWidth=1;exitX=0.5;exitY=0;exitDx=0;exitDy=0;" parent="1" source="IvPFsCvEk4tULA39Jrcx-3" target="IvPFsCvEk4tULA39Jrcx-17" edge="1">
                    <mxGeometry relative="1" as="geometry">
                        <Array as="points">
                            <mxPoint x="500" y="260"/>
                            <mxPoint x="500" y="260"/>
                        </Array>
                    </mxGeometry>
                </mxCell>
                <mxCell id="IvPFsCvEk4tULA39Jrcx-41" value="2" style="ellipse;whiteSpace=wrap;html=1;aspect=fixed;strokeWidth=3;fillColor=#AE4132;strokeColor=#ae4132;fontColor=#FFFFFF;fontFamily=Helvetica;" parent="1" vertex="1">
                    <mxGeometry x="290" y="290" width="20" height="20" as="geometry"/>
                </mxCell>
                <mxCell id="IvPFsCvEk4tULA39Jrcx-56" value="" style="edgeStyle=orthogonalEdgeStyle;orthogonalLoop=1;jettySize=auto;html=1;entryX=0;entryY=0.5;entryDx=0;entryDy=0;startArrow=none;endArrow=none;" parent="1" target="IvPFsCvEk4tULA39Jrcx-41" edge="1">
                    <mxGeometry relative="1" as="geometry">
                        <mxPoint x="190" y="300" as="sourcePoint"/>
                        <mxPoint x="440" y="300" as="targetPoint"/>
                    </mxGeometry>
                </mxCell>
                <mxCell id="IvPFsCvEk4tULA39Jrcx-66" value="6" style="ellipse;whiteSpace=wrap;html=1;aspect=fixed;strokeWidth=3;fillColor=#AE4132;strokeColor=#ae4132;fontColor=#FFFFFF;fontFamily=Helvetica;" parent="1" vertex="1">
                    <mxGeometry x="810" y="290" width="20" height="20" as="geometry"/>
                </mxCell>
                <mxCell id="IvPFsCvEk4tULA39Jrcx-67" value="" style="edgeStyle=orthogonalEdgeStyle;orthogonalLoop=1;jettySize=auto;html=1;entryX=0;entryY=0.5;entryDx=0;entryDy=0;endArrow=none;" parent="1" source="IvPFsCvEk4tULA39Jrcx-26" target="IvPFsCvEk4tULA39Jrcx-66" edge="1">
                    <mxGeometry relative="1" as="geometry">
                        <mxPoint x="759.9999999999998" y="300" as="sourcePoint"/>
                        <mxPoint x="880" y="300" as="targetPoint"/>
                    </mxGeometry>
                </mxCell>
                <mxCell id="IvPFsCvEk4tULA39Jrcx-84" value="" style="rounded=1;whiteSpace=wrap;html=1;fontFamily=Helvetica;strokeWidth=2;fillColor=none;strokeColor=#10739e;dashed=1;arcSize=6;" parent="1" vertex="1">
                    <mxGeometry x="740" y="480" width="280" height="360" as="geometry"/>
                </mxCell>
                <mxCell id="IvPFsCvEk4tULA39Jrcx-82" value="" style="rounded=1;whiteSpace=wrap;html=1;dashed=1;fontFamily=Helvetica;strokeWidth=2;fillColor=none;arcSize=6;strokeColor=#ae4132;" parent="1" vertex="1">
                    <mxGeometry x="40" y="480" width="680" height="360" as="geometry"/>
                </mxCell>
                <mxCell id="IvPFsCvEk4tULA39Jrcx-89" value="" style="group" parent="1" vertex="1" connectable="0">
                    <mxGeometry x="50" y="500" width="670" height="40" as="geometry"/>
                </mxCell>
                <mxCell id="IvPFsCvEk4tULA39Jrcx-57" value="1" style="ellipse;whiteSpace=wrap;html=1;aspect=fixed;strokeWidth=3;fillColor=#AE4132;strokeColor=#ae4132;fontColor=#FFFFFF;fontFamily=Helvetica;" parent="IvPFsCvEk4tULA39Jrcx-89" vertex="1">
                    <mxGeometry y="10" width="20" height="20" as="geometry"/>
                </mxCell>
                <mxCell id="IvPFsCvEk4tULA39Jrcx-58" value="The Service Module begins building out the database using an appropriate AWS Database Infrastructure Module" style="text;html=1;strokeColor=none;fillColor=none;align=left;verticalAlign=middle;whiteSpace=wrap;rounded=0;fontFamily=Helvetica;fontColor=#666666;" parent="IvPFsCvEk4tULA39Jrcx-89" vertex="1">
                    <mxGeometry x="30" width="640" height="40" as="geometry"/>
                </mxCell>
                <mxCell id="IvPFsCvEk4tULA39Jrcx-90" value="" style="group" parent="1" vertex="1" connectable="0">
                    <mxGeometry x="50" y="540" width="670" height="40" as="geometry"/>
                </mxCell>
                <mxCell id="IvPFsCvEk4tULA39Jrcx-59" value="2" style="ellipse;whiteSpace=wrap;html=1;aspect=fixed;strokeWidth=3;fillColor=#AE4132;strokeColor=#ae4132;fontColor=#FFFFFF;fontFamily=Helvetica;" parent="IvPFsCvEk4tULA39Jrcx-90" vertex="1">
                    <mxGeometry y="10" width="20" height="20" as="geometry"/>
                </mxCell>
                <mxCell id="IvPFsCvEk4tULA39Jrcx-62" value="The database is built out and the database connection credentials are stored in Vault." style="text;html=1;strokeColor=none;fillColor=none;align=left;verticalAlign=middle;whiteSpace=wrap;rounded=0;fontFamily=Helvetica;fontColor=#666666;" parent="IvPFsCvEk4tULA39Jrcx-90" vertex="1">
                    <mxGeometry x="30" width="640" height="40" as="geometry"/>
                </mxCell>
                <mxCell id="IvPFsCvEk4tULA39Jrcx-91" value="" style="group" parent="1" vertex="1" connectable="0">
                    <mxGeometry x="50" y="580" width="670" height="40" as="geometry"/>
                </mxCell>
                <mxCell id="IvPFsCvEk4tULA39Jrcx-64" value="3" style="ellipse;whiteSpace=wrap;html=1;aspect=fixed;strokeWidth=3;fillColor=#AE4132;strokeColor=#ae4132;fontColor=#FFFFFF;fontFamily=Helvetica;" parent="IvPFsCvEk4tULA39Jrcx-91" vertex="1">
                    <mxGeometry y="10" width="20" height="20" as="geometry"/>
                </mxCell>
                <mxCell id="IvPFsCvEk4tULA39Jrcx-65" value="The Service Module begins building out the Kubernetes deployments using the argocd-application resource module." style="text;html=1;strokeColor=none;fillColor=none;align=left;verticalAlign=middle;whiteSpace=wrap;rounded=0;fontFamily=Helvetica;fontColor=#666666;" parent="IvPFsCvEk4tULA39Jrcx-91" vertex="1">
                    <mxGeometry x="30" width="640" height="40" as="geometry"/>
                </mxCell>
                <mxCell id="IvPFsCvEk4tULA39Jrcx-92" value="" style="group" parent="1" vertex="1" connectable="0">
                    <mxGeometry x="50" y="620" width="670" height="40" as="geometry"/>
                </mxCell>
                <mxCell id="IvPFsCvEk4tULA39Jrcx-73" value="4" style="ellipse;whiteSpace=wrap;html=1;aspect=fixed;strokeWidth=3;fillColor=#AE4132;strokeColor=#ae4132;fontColor=#FFFFFF;fontFamily=Helvetica;" parent="IvPFsCvEk4tULA39Jrcx-92" vertex="1">
                    <mxGeometry y="10" width="20" height="20" as="geometry"/>
                </mxCell>
                <mxCell id="IvPFsCvEk4tULA39Jrcx-74" value="The argocd-application resource module deploys the ArgoCD &lt;i&gt;Application&lt;/i&gt;&amp;nbsp;manifest used to provision the service" style="text;html=1;strokeColor=none;fillColor=none;align=left;verticalAlign=middle;whiteSpace=wrap;rounded=0;fontFamily=Helvetica;fontColor=#666666;" parent="IvPFsCvEk4tULA39Jrcx-92" vertex="1">
                    <mxGeometry x="30" width="640" height="40" as="geometry"/>
                </mxCell>
                <mxCell id="IvPFsCvEk4tULA39Jrcx-93" value="" style="group" parent="1" vertex="1" connectable="0">
                    <mxGeometry x="50" y="660" width="670" height="40" as="geometry"/>
                </mxCell>
                <mxCell id="IvPFsCvEk4tULA39Jrcx-76" value="5" style="ellipse;whiteSpace=wrap;html=1;aspect=fixed;strokeWidth=3;fillColor=#AE4132;strokeColor=#ae4132;fontColor=#FFFFFF;fontFamily=Helvetica;" parent="IvPFsCvEk4tULA39Jrcx-93" vertex="1">
                    <mxGeometry y="10" width="20" height="20" as="geometry"/>
                </mxCell>
                <mxCell id="IvPFsCvEk4tULA39Jrcx-77" value="ArgoCD provisions an external-secret resource that references the database credentials stored in step &lt;b&gt;&lt;font color=&quot;#ae4132&quot;&gt;2&lt;/font&gt;&lt;/b&gt;&lt;b&gt;&lt;font color=&quot;#ae4132&quot;&gt;&lt;br&gt;&lt;/font&gt;&lt;/b&gt;" style="text;html=1;strokeColor=none;fillColor=none;align=left;verticalAlign=middle;whiteSpace=wrap;rounded=0;fontFamily=Helvetica;fontColor=#666666;" parent="IvPFsCvEk4tULA39Jrcx-93" vertex="1">
                    <mxGeometry x="30" width="640" height="40" as="geometry"/>
                </mxCell>
                <mxCell id="IvPFsCvEk4tULA39Jrcx-94" value="" style="group" parent="1" vertex="1" connectable="0">
                    <mxGeometry x="50" y="700" width="670" height="40" as="geometry"/>
                </mxCell>
                <mxCell id="IvPFsCvEk4tULA39Jrcx-78" value="6" style="ellipse;whiteSpace=wrap;html=1;aspect=fixed;strokeWidth=3;fillColor=#AE4132;strokeColor=#ae4132;fontColor=#FFFFFF;fontFamily=Helvetica;" parent="IvPFsCvEk4tULA39Jrcx-94" vertex="1">
                    <mxGeometry y="10" width="20" height="20" as="geometry"/>
                </mxCell>
                <mxCell id="IvPFsCvEk4tULA39Jrcx-79" value="The External Secrets Operator pulls the secret from HashiCorp Vault then stores it as a Kubernetes secret" style="text;html=1;strokeColor=none;fillColor=none;align=left;verticalAlign=middle;whiteSpace=wrap;rounded=0;fontFamily=Helvetica;fontColor=#666666;" parent="IvPFsCvEk4tULA39Jrcx-94" vertex="1">
                    <mxGeometry x="30" width="640" height="40" as="geometry"/>
                </mxCell>
                <mxCell id="IvPFsCvEk4tULA39Jrcx-95" value="" style="group" parent="1" vertex="1" connectable="0">
                    <mxGeometry x="50" y="790" width="670" height="40" as="geometry"/>
                </mxCell>
                <mxCell id="IvPFsCvEk4tULA39Jrcx-80" value="7" style="ellipse;whiteSpace=wrap;html=1;aspect=fixed;strokeWidth=3;fillColor=#AE4132;strokeColor=#ae4132;fontColor=#FFFFFF;fontFamily=Helvetica;" parent="IvPFsCvEk4tULA39Jrcx-95" vertex="1">
                    <mxGeometry y="10" width="20" height="20" as="geometry"/>
                </mxCell>
                <mxCell id="IvPFsCvEk4tULA39Jrcx-81" value="ArgoCD provisions the remainder of the manifests and waits for the resource statuses to show ready." style="text;html=1;strokeColor=none;fillColor=none;align=left;verticalAlign=middle;whiteSpace=wrap;rounded=0;fontFamily=Helvetica;fontColor=#666666;" parent="IvPFsCvEk4tULA39Jrcx-95" vertex="1">
                    <mxGeometry x="30" width="641" height="40" as="geometry"/>
                </mxCell>
                <mxCell id="IvPFsCvEk4tULA39Jrcx-96" value="" style="group" parent="1" vertex="1" connectable="0">
                    <mxGeometry x="50" y="750" width="660" height="30" as="geometry"/>
                </mxCell>
                <mxCell id="IvPFsCvEk4tULA39Jrcx-86" value="&lt;font color=&quot;#383838&quot;&gt;&lt;b style=&quot;&quot;&gt;Note :&amp;nbsp;&lt;/b&gt;In this example the ArgoCD Resource Hook:&amp;nbsp;&lt;i style=&quot;&quot;&gt;PreSync&lt;/i&gt;&amp;nbsp;is used to ensure the database credentials are retrieved from Vault and stored as a Kubernetes secret prior to ArgoCD deploying the remaining manifests.&lt;/font&gt;" style="text;html=1;strokeColor=none;fillColor=none;align=center;verticalAlign=middle;whiteSpace=wrap;rounded=0;dashed=1;fontFamily=Helvetica;fontColor=none;" parent="IvPFsCvEk4tULA39Jrcx-96" vertex="1">
                    <mxGeometry x="30" width="600" height="30" as="geometry"/>
                </mxCell>
                <mxCell id="IvPFsCvEk4tULA39Jrcx-87" value="&lt;font style=&quot;font-size: 22px;&quot;&gt;&lt;b&gt;!&lt;/b&gt;&lt;/font&gt;" style="ellipse;whiteSpace=wrap;html=1;aspect=fixed;strokeWidth=3;fillColor=#AE4132;strokeColor=#ae4132;fontColor=#FFFFFF;fontFamily=Helvetica;" parent="IvPFsCvEk4tULA39Jrcx-96" vertex="1">
                    <mxGeometry y="5" width="20" height="20" as="geometry"/>
                </mxCell>
                <mxCell id="IvPFsCvEk4tULA39Jrcx-88" value="&lt;font style=&quot;font-size: 22px;&quot;&gt;&lt;b&gt;!&lt;/b&gt;&lt;/font&gt;" style="ellipse;whiteSpace=wrap;html=1;aspect=fixed;strokeWidth=3;fillColor=#AE4132;strokeColor=#ae4132;fontColor=#FFFFFF;fontFamily=Helvetica;" parent="IvPFsCvEk4tULA39Jrcx-96" vertex="1">
                    <mxGeometry x="640" y="5" width="20" height="20" as="geometry"/>
                </mxCell>
            </root>
        </mxGraphModel>
    </diagram>
    <diagram id="UMDwFP5kYhsQPMkwSOR9" name="Page-2">
        <mxGraphModel dx="1256" dy="758" grid="1" gridSize="10" guides="1" tooltips="1" connect="1" arrows="1" fold="1" page="1" pageScale="1" pageWidth="1100" pageHeight="850" math="0" shadow="0">
            <root>
                <mxCell id="0"/>
                <mxCell id="1" parent="0"/>
                <mxCell id="aCuxea5ZrcYa3IXeUISk-1" value="" style="rounded=1;whiteSpace=wrap;html=1;fontFamily=Helvetica;strokeWidth=2;fillColor=none;strokeColor=#10739e;dashed=1;" parent="1" vertex="1">
                    <mxGeometry x="860" y="20" width="160" height="440" as="geometry"/>
                </mxCell>
                <mxCell id="aCuxea5ZrcYa3IXeUISk-2" style="edgeStyle=orthogonalEdgeStyle;orthogonalLoop=1;jettySize=auto;html=1;startArrow=none;" parent="1" source="aCuxea5ZrcYa3IXeUISk-25" target="aCuxea5ZrcYa3IXeUISk-17" edge="1">
                    <mxGeometry relative="1" as="geometry"/>
                </mxCell>
                <mxCell id="aCuxea5ZrcYa3IXeUISk-3" style="edgeStyle=orthogonalEdgeStyle;orthogonalLoop=1;jettySize=auto;html=1;" parent="1" source="aCuxea5ZrcYa3IXeUISk-4" target="aCuxea5ZrcYa3IXeUISk-19" edge="1">
                    <mxGeometry relative="1" as="geometry"/>
                </mxCell>
                <mxCell id="aCuxea5ZrcYa3IXeUISk-4" value="Terraform&lt;br&gt;Service Module" style="rounded=1;whiteSpace=wrap;html=1;fillColor=default;strokeColor=#b46504;strokeWidth=3;" parent="1" vertex="1">
                    <mxGeometry x="40" y="160" width="120" height="40" as="geometry"/>
                </mxCell>
                <mxCell id="aCuxea5ZrcYa3IXeUISk-5" style="edgeStyle=orthogonalEdgeStyle;rounded=0;orthogonalLoop=1;jettySize=auto;html=1;startArrow=none;" parent="1" source="aCuxea5ZrcYa3IXeUISk-31" target="aCuxea5ZrcYa3IXeUISk-12" edge="1">
                    <mxGeometry relative="1" as="geometry"/>
                </mxCell>
                <mxCell id="aCuxea5ZrcYa3IXeUISk-6" style="edgeStyle=orthogonalEdgeStyle;orthogonalLoop=1;jettySize=auto;html=1;entryX=0;entryY=0.5;entryDx=0;entryDy=0;startArrow=none;" parent="1" source="aCuxea5ZrcYa3IXeUISk-31" target="aCuxea5ZrcYa3IXeUISk-13" edge="1">
                    <mxGeometry relative="1" as="geometry">
                        <Array as="points">
                            <mxPoint x="840" y="180"/>
                            <mxPoint x="840" y="60"/>
                        </Array>
                    </mxGeometry>
                </mxCell>
                <mxCell id="aCuxea5ZrcYa3IXeUISk-7" style="edgeStyle=orthogonalEdgeStyle;orthogonalLoop=1;jettySize=auto;html=1;entryX=0.5;entryY=0;entryDx=0;entryDy=0;" parent="1" source="aCuxea5ZrcYa3IXeUISk-8" target="aCuxea5ZrcYa3IXeUISk-21" edge="1">
                    <mxGeometry relative="1" as="geometry"/>
                </mxCell>
                <mxCell id="aCuxea5ZrcYa3IXeUISk-8" value="ArgoCD Application" style="rounded=1;whiteSpace=wrap;html=1;" parent="1" vertex="1">
                    <mxGeometry x="640" y="160" width="120" height="40" as="geometry"/>
                </mxCell>
                <mxCell id="aCuxea5ZrcYa3IXeUISk-9" style="edgeStyle=orthogonalEdgeStyle;orthogonalLoop=1;jettySize=auto;html=1;entryX=0;entryY=0.5;entryDx=0;entryDy=0;dashed=1;endArrow=none;endFill=0;" parent="1" source="aCuxea5ZrcYa3IXeUISk-10" target="aCuxea5ZrcYa3IXeUISk-21" edge="1">
                    <mxGeometry relative="1" as="geometry"/>
                </mxCell>
                <mxCell id="aCuxea5ZrcYa3IXeUISk-10" value="Vault Secret" style="rounded=1;whiteSpace=wrap;html=1;" parent="1" vertex="1">
                    <mxGeometry x="440" y="280" width="120" height="40" as="geometry"/>
                </mxCell>
                <mxCell id="aCuxea5ZrcYa3IXeUISk-11" value="AWS Database" style="rounded=1;whiteSpace=wrap;html=1;" parent="1" vertex="1">
                    <mxGeometry x="880" y="400" width="120" height="40" as="geometry"/>
                </mxCell>
                <mxCell id="aCuxea5ZrcYa3IXeUISk-12" value="App Service" style="rounded=1;whiteSpace=wrap;html=1;" parent="1" vertex="1">
                    <mxGeometry x="880" y="160" width="120" height="40" as="geometry"/>
                </mxCell>
                <mxCell id="aCuxea5ZrcYa3IXeUISk-13" value="App Ingress" style="rounded=1;whiteSpace=wrap;html=1;" parent="1" vertex="1">
                    <mxGeometry x="880" y="40" width="120" height="40" as="geometry"/>
                </mxCell>
                <mxCell id="aCuxea5ZrcYa3IXeUISk-14" value="App Secret" style="rounded=1;whiteSpace=wrap;html=1;" parent="1" vertex="1">
                    <mxGeometry x="880" y="280" width="120" height="40" as="geometry"/>
                </mxCell>
                <mxCell id="aCuxea5ZrcYa3IXeUISk-15" style="edgeStyle=orthogonalEdgeStyle;orthogonalLoop=1;jettySize=auto;html=1;entryX=0;entryY=0.5;entryDx=0;entryDy=0;startArrow=none;" parent="1" source="aCuxea5ZrcYa3IXeUISk-35" target="aCuxea5ZrcYa3IXeUISk-10" edge="1">
                    <mxGeometry relative="1" as="geometry">
                        <mxPoint x="210" y="300" as="sourcePoint"/>
                    </mxGeometry>
                </mxCell>
                <mxCell id="aCuxea5ZrcYa3IXeUISk-16" style="edgeStyle=orthogonalEdgeStyle;orthogonalLoop=1;jettySize=auto;html=1;entryX=0;entryY=0.5;entryDx=0;entryDy=0;startArrow=none;exitX=1;exitY=0.5;exitDx=0;exitDy=0;" parent="1" source="aCuxea5ZrcYa3IXeUISk-35" target="aCuxea5ZrcYa3IXeUISk-11" edge="1">
                    <mxGeometry relative="1" as="geometry">
                        <Array as="points">
                            <mxPoint x="360" y="300"/>
                            <mxPoint x="360" y="420"/>
                        </Array>
                    </mxGeometry>
                </mxCell>
                <mxCell id="aCuxea5ZrcYa3IXeUISk-17" value="Terraform&lt;br&gt;Infrastructure Module" style="rounded=1;whiteSpace=wrap;html=1;fillColor=default;strokeColor=#0e8088;strokeWidth=3;" parent="1" vertex="1">
                    <mxGeometry x="40" y="280" width="120" height="40" as="geometry"/>
                </mxCell>
                <mxCell id="aCuxea5ZrcYa3IXeUISk-18" style="edgeStyle=orthogonalEdgeStyle;orthogonalLoop=1;jettySize=auto;html=1;entryX=0;entryY=0.5;entryDx=0;entryDy=0;startArrow=none;" parent="1" source="aCuxea5ZrcYa3IXeUISk-29" target="aCuxea5ZrcYa3IXeUISk-8" edge="1">
                    <mxGeometry relative="1" as="geometry"/>
                </mxCell>
                <mxCell id="aCuxea5ZrcYa3IXeUISk-19" value="Terraform&lt;br&gt;Resource Module" style="rounded=1;whiteSpace=wrap;html=1;fillColor=default;strokeColor=#10739e;strokeWidth=3;" parent="1" vertex="1">
                    <mxGeometry x="440" y="160" width="120" height="40" as="geometry"/>
                </mxCell>
                <mxCell id="aCuxea5ZrcYa3IXeUISk-20" style="edgeStyle=orthogonalEdgeStyle;orthogonalLoop=1;jettySize=auto;html=1;entryX=0;entryY=0.5;entryDx=0;entryDy=0;startArrow=none;" parent="1" source="aCuxea5ZrcYa3IXeUISk-37" target="aCuxea5ZrcYa3IXeUISk-14" edge="1">
                    <mxGeometry relative="1" as="geometry"/>
                </mxCell>
                <mxCell id="aCuxea5ZrcYa3IXeUISk-21" value="External Secret" style="rounded=1;whiteSpace=wrap;html=1;" parent="1" vertex="1">
                    <mxGeometry x="640" y="280" width="120" height="40" as="geometry"/>
                </mxCell>
                <mxCell id="aCuxea5ZrcYa3IXeUISk-22" style="edgeStyle=orthogonalEdgeStyle;orthogonalLoop=1;jettySize=auto;html=1;entryX=0.5;entryY=0;entryDx=0;entryDy=0;fontFamily=Helvetica;fontColor=#666666;endArrow=classic;endFill=1;strokeWidth=1;" parent="1" source="aCuxea5ZrcYa3IXeUISk-24" target="aCuxea5ZrcYa3IXeUISk-4" edge="1">
                    <mxGeometry relative="1" as="geometry"/>
                </mxCell>
                <mxCell id="aCuxea5ZrcYa3IXeUISk-23" style="edgeStyle=orthogonalEdgeStyle;orthogonalLoop=1;jettySize=auto;html=1;fontFamily=Helvetica;fontColor=#666666;endArrow=none;endFill=0;strokeWidth=1;rounded=1;dashed=1;" parent="1" source="aCuxea5ZrcYa3IXeUISk-24" target="aCuxea5ZrcYa3IXeUISk-19" edge="1">
                    <mxGeometry relative="1" as="geometry"/>
                </mxCell>
                <mxCell id="aCuxea5ZrcYa3IXeUISk-24" value="Service&lt;br&gt;Helm Chart" style="rounded=1;whiteSpace=wrap;html=1;" parent="1" vertex="1">
                    <mxGeometry x="40" y="40" width="120" height="40" as="geometry"/>
                </mxCell>
                <mxCell id="aCuxea5ZrcYa3IXeUISk-26" value="" style="edgeStyle=orthogonalEdgeStyle;orthogonalLoop=1;jettySize=auto;html=1;endArrow=none;" parent="1" source="aCuxea5ZrcYa3IXeUISk-4" target="aCuxea5ZrcYa3IXeUISk-25" edge="1">
                    <mxGeometry relative="1" as="geometry">
                        <mxPoint x="100" y="200.0000000000001" as="sourcePoint"/>
                        <mxPoint x="100" y="280.0000000000001" as="targetPoint"/>
                    </mxGeometry>
                </mxCell>
                <mxCell id="aCuxea5ZrcYa3IXeUISk-27" value="" style="edgeStyle=orthogonalEdgeStyle;orthogonalLoop=1;jettySize=auto;html=1;entryX=0;entryY=0.5;entryDx=0;entryDy=0;endArrow=none;" parent="1" source="aCuxea5ZrcYa3IXeUISk-17" edge="1">
                    <mxGeometry relative="1" as="geometry">
                        <mxPoint x="160" y="300" as="sourcePoint"/>
                        <mxPoint x="189.9999999999891" y="300" as="targetPoint"/>
                    </mxGeometry>
                </mxCell>
                <mxCell id="aCuxea5ZrcYa3IXeUISk-28" value="3" style="ellipse;whiteSpace=wrap;html=1;aspect=fixed;strokeWidth=3;fillColor=#AE4132;strokeColor=#ae4132;fontColor=#FFFFFF;fontFamily=Helvetica;" parent="1" vertex="1">
                    <mxGeometry x="290" y="170" width="20" height="20" as="geometry"/>
                </mxCell>
                <mxCell id="aCuxea5ZrcYa3IXeUISk-29" value="4" style="ellipse;whiteSpace=wrap;html=1;aspect=fixed;strokeWidth=3;fillColor=#AE4132;strokeColor=#ae4132;fontColor=#FFFFFF;fontFamily=Helvetica;" parent="1" vertex="1">
                    <mxGeometry x="590" y="170" width="20" height="20" as="geometry"/>
                </mxCell>
                <mxCell id="aCuxea5ZrcYa3IXeUISk-30" value="" style="edgeStyle=orthogonalEdgeStyle;orthogonalLoop=1;jettySize=auto;html=1;entryX=0;entryY=0.5;entryDx=0;entryDy=0;endArrow=none;" parent="1" source="aCuxea5ZrcYa3IXeUISk-19" target="aCuxea5ZrcYa3IXeUISk-29" edge="1">
                    <mxGeometry relative="1" as="geometry">
                        <mxPoint x="560" y="180" as="sourcePoint"/>
                        <mxPoint x="640" y="180" as="targetPoint"/>
                    </mxGeometry>
                </mxCell>
                <mxCell id="aCuxea5ZrcYa3IXeUISk-32" value="" style="edgeStyle=orthogonalEdgeStyle;orthogonalLoop=1;jettySize=auto;html=1;entryX=0;entryY=0.5;entryDx=0;entryDy=0;endArrow=none;" parent="1" source="aCuxea5ZrcYa3IXeUISk-8" target="aCuxea5ZrcYa3IXeUISk-31" edge="1">
                    <mxGeometry relative="1" as="geometry">
                        <mxPoint x="760" y="180" as="sourcePoint"/>
                        <mxPoint x="880" y="60" as="targetPoint"/>
                    </mxGeometry>
                </mxCell>
                <mxCell id="aCuxea5ZrcYa3IXeUISk-34" style="edgeStyle=orthogonalEdgeStyle;orthogonalLoop=1;jettySize=auto;html=1;entryX=0.5;entryY=1;entryDx=0;entryDy=0;dashed=1;fontFamily=Helvetica;fontColor=#666666;endArrow=none;endFill=0;strokeWidth=1;exitX=0.5;exitY=0;exitDx=0;exitDy=0;" parent="1" source="aCuxea5ZrcYa3IXeUISk-10" target="aCuxea5ZrcYa3IXeUISk-19" edge="1">
                    <mxGeometry relative="1" as="geometry">
                        <Array as="points">
                            <mxPoint x="500" y="260"/>
                            <mxPoint x="500" y="260"/>
                        </Array>
                    </mxGeometry>
                </mxCell>
                <mxCell id="aCuxea5ZrcYa3IXeUISk-35" value="2" style="ellipse;whiteSpace=wrap;html=1;aspect=fixed;strokeWidth=3;fillColor=#AE4132;strokeColor=#ae4132;fontColor=#FFFFFF;fontFamily=Helvetica;" parent="1" vertex="1">
                    <mxGeometry x="290" y="290" width="20" height="20" as="geometry"/>
                </mxCell>
                <mxCell id="aCuxea5ZrcYa3IXeUISk-36" value="" style="edgeStyle=orthogonalEdgeStyle;orthogonalLoop=1;jettySize=auto;html=1;entryX=0;entryY=0.5;entryDx=0;entryDy=0;startArrow=none;endArrow=none;" parent="1" target="aCuxea5ZrcYa3IXeUISk-35" edge="1">
                    <mxGeometry relative="1" as="geometry">
                        <mxPoint x="190" y="300" as="sourcePoint"/>
                        <mxPoint x="440" y="300" as="targetPoint"/>
                    </mxGeometry>
                </mxCell>
                <mxCell id="aCuxea5ZrcYa3IXeUISk-37" value="6" style="ellipse;whiteSpace=wrap;html=1;aspect=fixed;strokeWidth=3;fillColor=#AE4132;strokeColor=#ae4132;fontColor=#FFFFFF;fontFamily=Helvetica;" parent="1" vertex="1">
                    <mxGeometry x="790" y="290" width="20" height="20" as="geometry"/>
                </mxCell>
                <mxCell id="aCuxea5ZrcYa3IXeUISk-38" value="" style="edgeStyle=orthogonalEdgeStyle;orthogonalLoop=1;jettySize=auto;html=1;entryX=0;entryY=0.5;entryDx=0;entryDy=0;endArrow=none;" parent="1" source="aCuxea5ZrcYa3IXeUISk-21" target="aCuxea5ZrcYa3IXeUISk-37" edge="1">
                    <mxGeometry relative="1" as="geometry">
                        <mxPoint x="759.9999999999998" y="300" as="sourcePoint"/>
                        <mxPoint x="880" y="300" as="targetPoint"/>
                    </mxGeometry>
                </mxCell>
                <mxCell id="aCuxea5ZrcYa3IXeUISk-39" value="" style="rounded=1;whiteSpace=wrap;html=1;fontFamily=Helvetica;strokeWidth=2;fillColor=none;strokeColor=#10739e;dashed=1;arcSize=6;" parent="1" vertex="1">
                    <mxGeometry x="740" y="480" width="280" height="360" as="geometry"/>
                </mxCell>
                <mxCell id="aCuxea5ZrcYa3IXeUISk-40" value="" style="rounded=1;whiteSpace=wrap;html=1;dashed=1;fontFamily=Helvetica;strokeWidth=2;fillColor=none;arcSize=6;strokeColor=#ae4132;" parent="1" vertex="1">
                    <mxGeometry x="40" y="480" width="680" height="360" as="geometry"/>
                </mxCell>
                <mxCell id="aCuxea5ZrcYa3IXeUISk-41" value="" style="group" parent="1" vertex="1" connectable="0">
                    <mxGeometry x="50" y="500" width="670" height="40" as="geometry"/>
                </mxCell>
                <mxCell id="aCuxea5ZrcYa3IXeUISk-42" value="1" style="ellipse;whiteSpace=wrap;html=1;aspect=fixed;strokeWidth=3;fillColor=#AE4132;strokeColor=#ae4132;fontColor=#FFFFFF;fontFamily=Helvetica;" parent="aCuxea5ZrcYa3IXeUISk-41" vertex="1">
                    <mxGeometry y="10" width="20" height="20" as="geometry"/>
                </mxCell>
                <mxCell id="aCuxea5ZrcYa3IXeUISk-43" value="The Service Module begins building out the database using an appropriate AWS Database Infrastructure Module" style="text;html=1;strokeColor=none;fillColor=none;align=left;verticalAlign=middle;whiteSpace=wrap;rounded=0;fontFamily=Helvetica;fontColor=#666666;" parent="aCuxea5ZrcYa3IXeUISk-41" vertex="1">
                    <mxGeometry x="30" width="640" height="40" as="geometry"/>
                </mxCell>
                <mxCell id="aCuxea5ZrcYa3IXeUISk-44" value="" style="group" parent="1" vertex="1" connectable="0">
                    <mxGeometry x="50" y="540" width="670" height="40" as="geometry"/>
                </mxCell>
                <mxCell id="aCuxea5ZrcYa3IXeUISk-45" value="2" style="ellipse;whiteSpace=wrap;html=1;aspect=fixed;strokeWidth=3;fillColor=#AE4132;strokeColor=#ae4132;fontColor=#FFFFFF;fontFamily=Helvetica;" parent="aCuxea5ZrcYa3IXeUISk-44" vertex="1">
                    <mxGeometry y="10" width="20" height="20" as="geometry"/>
                </mxCell>
                <mxCell id="aCuxea5ZrcYa3IXeUISk-46" value="The database is built out and the database connection credentials are stored in Vault." style="text;html=1;strokeColor=none;fillColor=none;align=left;verticalAlign=middle;whiteSpace=wrap;rounded=0;fontFamily=Helvetica;fontColor=#666666;" parent="aCuxea5ZrcYa3IXeUISk-44" vertex="1">
                    <mxGeometry x="30" width="640" height="40" as="geometry"/>
                </mxCell>
                <mxCell id="aCuxea5ZrcYa3IXeUISk-47" value="" style="group" parent="1" vertex="1" connectable="0">
                    <mxGeometry x="50" y="580" width="670" height="40" as="geometry"/>
                </mxCell>
                <mxCell id="aCuxea5ZrcYa3IXeUISk-48" value="3" style="ellipse;whiteSpace=wrap;html=1;aspect=fixed;strokeWidth=3;fillColor=#AE4132;strokeColor=#ae4132;fontColor=#FFFFFF;fontFamily=Helvetica;" parent="aCuxea5ZrcYa3IXeUISk-47" vertex="1">
                    <mxGeometry y="10" width="20" height="20" as="geometry"/>
                </mxCell>
                <mxCell id="aCuxea5ZrcYa3IXeUISk-49" value="The Service Module begins building out the Kubernetes deployments using the argocd-application resource module." style="text;html=1;strokeColor=none;fillColor=none;align=left;verticalAlign=middle;whiteSpace=wrap;rounded=0;fontFamily=Helvetica;fontColor=#666666;" parent="aCuxea5ZrcYa3IXeUISk-47" vertex="1">
                    <mxGeometry x="30" width="640" height="40" as="geometry"/>
                </mxCell>
                <mxCell id="aCuxea5ZrcYa3IXeUISk-50" value="" style="group" parent="1" vertex="1" connectable="0">
                    <mxGeometry x="50" y="620" width="670" height="40" as="geometry"/>
                </mxCell>
                <mxCell id="aCuxea5ZrcYa3IXeUISk-51" value="4" style="ellipse;whiteSpace=wrap;html=1;aspect=fixed;strokeWidth=3;fillColor=#AE4132;strokeColor=#ae4132;fontColor=#FFFFFF;fontFamily=Helvetica;" parent="aCuxea5ZrcYa3IXeUISk-50" vertex="1">
                    <mxGeometry y="10" width="20" height="20" as="geometry"/>
                </mxCell>
                <mxCell id="aCuxea5ZrcYa3IXeUISk-52" value="The argocd-application resource module deploys the ArgoCD &lt;i&gt;Application&lt;/i&gt;&amp;nbsp;manifest used to provision the service" style="text;html=1;strokeColor=none;fillColor=none;align=left;verticalAlign=middle;whiteSpace=wrap;rounded=0;fontFamily=Helvetica;fontColor=#666666;" parent="aCuxea5ZrcYa3IXeUISk-50" vertex="1">
                    <mxGeometry x="30" width="640" height="40" as="geometry"/>
                </mxCell>
                <mxCell id="aCuxea5ZrcYa3IXeUISk-53" value="" style="group" parent="1" vertex="1" connectable="0">
                    <mxGeometry x="50" y="660" width="670" height="40" as="geometry"/>
                </mxCell>
                <mxCell id="aCuxea5ZrcYa3IXeUISk-54" value="5" style="ellipse;whiteSpace=wrap;html=1;aspect=fixed;strokeWidth=3;fillColor=#AE4132;strokeColor=#ae4132;fontColor=#FFFFFF;fontFamily=Helvetica;" parent="aCuxea5ZrcYa3IXeUISk-53" vertex="1">
                    <mxGeometry y="10" width="20" height="20" as="geometry"/>
                </mxCell>
                <mxCell id="aCuxea5ZrcYa3IXeUISk-55" value="ArgoCD provisions an external-secret resource that references the database credentials stored in step &lt;b&gt;&lt;font color=&quot;#ae4132&quot;&gt;2&lt;/font&gt;&lt;/b&gt;&lt;b&gt;&lt;font color=&quot;#ae4132&quot;&gt;&lt;br&gt;&lt;/font&gt;&lt;/b&gt;" style="text;html=1;strokeColor=none;fillColor=none;align=left;verticalAlign=middle;whiteSpace=wrap;rounded=0;fontFamily=Helvetica;fontColor=#666666;" parent="aCuxea5ZrcYa3IXeUISk-53" vertex="1">
                    <mxGeometry x="30" width="640" height="40" as="geometry"/>
                </mxCell>
                <mxCell id="aCuxea5ZrcYa3IXeUISk-56" value="" style="group" parent="1" vertex="1" connectable="0">
                    <mxGeometry x="50" y="700" width="670" height="40" as="geometry"/>
                </mxCell>
                <mxCell id="aCuxea5ZrcYa3IXeUISk-57" value="6" style="ellipse;whiteSpace=wrap;html=1;aspect=fixed;strokeWidth=3;fillColor=#AE4132;strokeColor=#ae4132;fontColor=#FFFFFF;fontFamily=Helvetica;" parent="aCuxea5ZrcYa3IXeUISk-56" vertex="1">
                    <mxGeometry y="10" width="20" height="20" as="geometry"/>
                </mxCell>
                <mxCell id="aCuxea5ZrcYa3IXeUISk-58" value="The External Secrets Operator pulls the secret from HashiCorp Vault then stores it as a Kubernetes secret" style="text;html=1;strokeColor=none;fillColor=none;align=left;verticalAlign=middle;whiteSpace=wrap;rounded=0;fontFamily=Helvetica;fontColor=#666666;" parent="aCuxea5ZrcYa3IXeUISk-56" vertex="1">
                    <mxGeometry x="30" width="640" height="40" as="geometry"/>
                </mxCell>
                <mxCell id="aCuxea5ZrcYa3IXeUISk-59" value="" style="group" parent="1" vertex="1" connectable="0">
                    <mxGeometry x="50" y="790" width="670" height="40" as="geometry"/>
                </mxCell>
                <mxCell id="aCuxea5ZrcYa3IXeUISk-60" value="7" style="ellipse;whiteSpace=wrap;html=1;aspect=fixed;strokeWidth=3;fillColor=#AE4132;strokeColor=#ae4132;fontColor=#FFFFFF;fontFamily=Helvetica;" parent="aCuxea5ZrcYa3IXeUISk-59" vertex="1">
                    <mxGeometry y="10" width="20" height="20" as="geometry"/>
                </mxCell>
                <mxCell id="aCuxea5ZrcYa3IXeUISk-61" value="ArgoCD provisions the remainder of the manifests and waits for the resource statuses to show ready." style="text;html=1;strokeColor=none;fillColor=none;align=left;verticalAlign=middle;whiteSpace=wrap;rounded=0;fontFamily=Helvetica;fontColor=#666666;" parent="aCuxea5ZrcYa3IXeUISk-59" vertex="1">
                    <mxGeometry x="30" width="641" height="40" as="geometry"/>
                </mxCell>
                <mxCell id="aCuxea5ZrcYa3IXeUISk-62" value="" style="group" parent="1" vertex="1" connectable="0">
                    <mxGeometry x="50" y="750" width="660" height="30" as="geometry"/>
                </mxCell>
                <mxCell id="aCuxea5ZrcYa3IXeUISk-63" value="&lt;font color=&quot;#383838&quot;&gt;&lt;b style=&quot;&quot;&gt;Note :&amp;nbsp;&lt;/b&gt;In this example the ArgoCD Resource Hook:&amp;nbsp;&lt;i style=&quot;&quot;&gt;PreSync&lt;/i&gt;&amp;nbsp;is used to ensure the database credentials are retrieved from Vault and stored as a Kubernetes secret prior to ArgoCD deploying the remaining manifests.&lt;/font&gt;" style="text;html=1;strokeColor=none;fillColor=none;align=center;verticalAlign=middle;whiteSpace=wrap;rounded=0;dashed=1;fontFamily=Helvetica;fontColor=none;" parent="aCuxea5ZrcYa3IXeUISk-62" vertex="1">
                    <mxGeometry x="30" width="600" height="30" as="geometry"/>
                </mxCell>
                <mxCell id="aCuxea5ZrcYa3IXeUISk-64" value="&lt;font style=&quot;font-size: 22px;&quot;&gt;&lt;b&gt;!&lt;/b&gt;&lt;/font&gt;" style="ellipse;whiteSpace=wrap;html=1;aspect=fixed;strokeWidth=3;fillColor=#AE4132;strokeColor=#ae4132;fontColor=#FFFFFF;fontFamily=Helvetica;" parent="aCuxea5ZrcYa3IXeUISk-62" vertex="1">
                    <mxGeometry y="5" width="20" height="20" as="geometry"/>
                </mxCell>
                <mxCell id="aCuxea5ZrcYa3IXeUISk-65" value="&lt;font style=&quot;font-size: 22px;&quot;&gt;&lt;b&gt;!&lt;/b&gt;&lt;/font&gt;" style="ellipse;whiteSpace=wrap;html=1;aspect=fixed;strokeWidth=3;fillColor=#AE4132;strokeColor=#ae4132;fontColor=#FFFFFF;fontFamily=Helvetica;" parent="aCuxea5ZrcYa3IXeUISk-62" vertex="1">
                    <mxGeometry x="640" y="5" width="20" height="20" as="geometry"/>
                </mxCell>
                <mxCell id="aCuxea5ZrcYa3IXeUISk-69" style="edgeStyle=orthogonalEdgeStyle;rounded=1;orthogonalLoop=1;jettySize=auto;html=1;entryX=1;entryY=0.5;entryDx=0;entryDy=0;fontFamily=Helvetica;fontSize=12;fontColor=#383838;endArrow=none;endFill=0;strokeWidth=2;dashed=1;dashPattern=1 1;exitX=0.1;exitY=0.5;exitDx=0;exitDy=0;exitPerimeter=0;" parent="1" source="aCuxea5ZrcYa3IXeUISk-70" target="aCuxea5ZrcYa3IXeUISk-25" edge="1">
                    <mxGeometry relative="1" as="geometry"/>
                </mxCell>
                <mxCell id="aCuxea5ZrcYa3IXeUISk-68" value="&lt;span style=&quot;color: rgb(102, 102, 102); text-align: left;&quot;&gt;The Service Module begins building out the database using an appropriate AWS Database Infrastructure Module&lt;/span&gt;" style="text;html=1;strokeColor=none;fillColor=none;align=center;verticalAlign=middle;whiteSpace=wrap;rounded=0;dashed=1;fontFamily=Helvetica;fontSize=12;fontColor=#383838;perimeter=rectanglePerimeter;collapsible=0;comic=0;absoluteArcSize=0;" parent="1" vertex="1">
                    <mxGeometry x="150" y="220" width="320" height="40" as="geometry">
                        <mxRectangle x="160" y="220" width="630" height="20" as="alternateBounds"/>
                    </mxGeometry>
                </mxCell>
                <mxCell id="aCuxea5ZrcYa3IXeUISk-25" value="1" style="ellipse;whiteSpace=wrap;html=1;aspect=fixed;strokeWidth=3;fillColor=#AE4132;strokeColor=#ae4132;fontColor=#FFFFFF;fontFamily=Helvetica;" parent="1" vertex="1">
                    <mxGeometry x="90" y="230" width="20" height="20" as="geometry"/>
                </mxCell>
                <mxCell id="aCuxea5ZrcYa3IXeUISk-70" value="" style="shape=curlyBracket;whiteSpace=wrap;html=1;rounded=1;comic=0;fontFamily=Helvetica;fontSize=12;fontColor=#383838;strokeColor=default;strokeWidth=2;fillColor=default;" parent="1" vertex="1">
                    <mxGeometry x="140" y="220" width="10" height="40" as="geometry"/>
                </mxCell>
                <mxCell id="aCuxea5ZrcYa3IXeUISk-71" value="The database is built out and the database connection credentials are stored in Vault." style="text;html=1;strokeColor=none;fillColor=none;align=center;verticalAlign=middle;whiteSpace=wrap;rounded=0;fontFamily=Helvetica;fontColor=#666666;" parent="1" vertex="1">
                    <mxGeometry x="80" y="360" width="240" height="40" as="geometry"/>
                </mxCell>
                <mxCell id="aCuxea5ZrcYa3IXeUISk-73" style="edgeStyle=orthogonalEdgeStyle;rounded=1;orthogonalLoop=1;jettySize=auto;html=1;entryX=0.5;entryY=1;entryDx=0;entryDy=0;dashed=1;dashPattern=1 1;fontFamily=Helvetica;fontSize=12;fontColor=#383838;endArrow=none;endFill=0;strokeWidth=2;" parent="1" source="aCuxea5ZrcYa3IXeUISk-72" target="aCuxea5ZrcYa3IXeUISk-35" edge="1">
                    <mxGeometry relative="1" as="geometry"/>
                </mxCell>
                <mxCell id="aCuxea5ZrcYa3IXeUISk-72" value="" style="shape=curlyBracket;whiteSpace=wrap;html=1;rounded=1;comic=0;fontFamily=Helvetica;fontSize=12;fontColor=#383838;strokeColor=default;strokeWidth=2;fillColor=default;rotation=90;" parent="1" vertex="1">
                    <mxGeometry x="190" y="240" width="20" height="240" as="geometry"/>
                </mxCell>
                <mxCell id="aCuxea5ZrcYa3IXeUISk-74" value="The Service Module begins building out the Kubernetes deployments using the argocd-application resource module." style="text;html=1;strokeColor=none;fillColor=none;align=center;verticalAlign=middle;whiteSpace=wrap;rounded=0;fontFamily=Helvetica;fontColor=#666666;" parent="1" vertex="1">
                    <mxGeometry x="140" y="100" width="320" height="40" as="geometry"/>
                </mxCell>
                <mxCell id="aCuxea5ZrcYa3IXeUISk-76" style="edgeStyle=orthogonalEdgeStyle;rounded=1;orthogonalLoop=1;jettySize=auto;html=1;entryX=0.5;entryY=0;entryDx=0;entryDy=0;dashed=1;dashPattern=1 1;fontFamily=Helvetica;fontSize=12;fontColor=#383838;endArrow=none;endFill=0;strokeWidth=2;" parent="1" source="aCuxea5ZrcYa3IXeUISk-75" target="aCuxea5ZrcYa3IXeUISk-28" edge="1">
                    <mxGeometry relative="1" as="geometry"/>
                </mxCell>
                <mxCell id="aCuxea5ZrcYa3IXeUISk-75" value="" style="shape=curlyBracket;whiteSpace=wrap;html=1;rounded=1;flipH=1;comic=0;fontFamily=Helvetica;fontSize=12;fontColor=#383838;strokeColor=default;strokeWidth=2;fillColor=default;rotation=90;" parent="1" vertex="1">
                    <mxGeometry x="290" y="-20" width="20" height="320" as="geometry"/>
                </mxCell>
                <mxCell id="aCuxea5ZrcYa3IXeUISk-79" style="edgeStyle=orthogonalEdgeStyle;rounded=1;orthogonalLoop=1;jettySize=auto;html=1;entryX=0.5;entryY=0;entryDx=0;entryDy=0;dashed=1;dashPattern=1 1;fontFamily=Helvetica;fontSize=12;fontColor=#383838;endArrow=none;endFill=0;strokeWidth=2;strokeColor=#383838;" parent="1" source="aCuxea5ZrcYa3IXeUISk-78" target="aCuxea5ZrcYa3IXeUISk-29" edge="1">
                    <mxGeometry relative="1" as="geometry"/>
                </mxCell>
                <mxCell id="aCuxea5ZrcYa3IXeUISk-80" value="ArgoCD provisions an external-secret resource that references the database credentials stored in step &lt;b&gt;&lt;font color=&quot;#ae4132&quot;&gt;2&lt;/font&gt;&lt;/b&gt;&lt;b&gt;&lt;font color=&quot;#ae4132&quot;&gt;&lt;br&gt;&lt;/font&gt;&lt;/b&gt;" style="text;html=1;strokeColor=none;fillColor=none;align=center;verticalAlign=middle;whiteSpace=wrap;rounded=0;fontFamily=Helvetica;fontColor=#666666;" parent="1" vertex="1">
                    <mxGeometry x="510" y="210" width="160" height="60" as="geometry"/>
                </mxCell>
                <mxCell id="aCuxea5ZrcYa3IXeUISk-83" style="edgeStyle=orthogonalEdgeStyle;rounded=1;orthogonalLoop=1;jettySize=auto;html=1;entryX=0;entryY=0.5;entryDx=0;entryDy=0;dashed=1;dashPattern=1 1;fontFamily=Helvetica;fontSize=12;fontColor=#383838;endArrow=none;endFill=0;strokeWidth=2;" parent="1" source="aCuxea5ZrcYa3IXeUISk-81" target="aCuxea5ZrcYa3IXeUISk-33" edge="1">
                    <mxGeometry relative="1" as="geometry"/>
                </mxCell>
                <mxCell id="aCuxea5ZrcYa3IXeUISk-81" value="" style="shape=curlyBracket;whiteSpace=wrap;html=1;rounded=1;flipH=1;comic=0;fontFamily=Helvetica;fontSize=12;fontColor=#383838;strokeColor=default;strokeWidth=2;fillColor=default;" parent="1" vertex="1">
                    <mxGeometry x="660" y="210" width="20" height="60" as="geometry"/>
                </mxCell>
                <mxCell id="aCuxea5ZrcYa3IXeUISk-33" value="5" style="ellipse;whiteSpace=wrap;html=1;aspect=fixed;strokeWidth=3;fillColor=#AE4132;strokeColor=#ae4132;fontColor=#FFFFFF;fontFamily=Helvetica;" parent="1" vertex="1">
                    <mxGeometry x="690" y="230" width="20" height="20" as="geometry"/>
                </mxCell>
                <mxCell id="aCuxea5ZrcYa3IXeUISk-85" value="" style="group" parent="1" vertex="1" connectable="0">
                    <mxGeometry x="475" y="90" width="250" height="160" as="geometry"/>
                </mxCell>
                <mxCell id="aCuxea5ZrcYa3IXeUISk-77" value="&lt;font color=&quot;#666666&quot;&gt;The argocd-application resource module deploys the ArgoCD &lt;i&gt;Application&lt;/i&gt;&amp;nbsp;manifest used to provision the service&lt;/font&gt;" style="text;html=1;strokeColor=#383838;fillColor=none;align=center;verticalAlign=middle;whiteSpace=wrap;rounded=1;fontFamily=Helvetica;strokeWidth=2;arcSize=9;" parent="aCuxea5ZrcYa3IXeUISk-85" vertex="1">
                    <mxGeometry x="35" y="-20" width="180" height="70" as="geometry"/>
                </mxCell>
                <mxCell id="aCuxea5ZrcYa3IXeUISk-78" value="" style="shape=curlyBracket;whiteSpace=wrap;html=1;rounded=1;flipH=1;comic=0;fontFamily=Helvetica;fontSize=12;fontColor=#383838;strokeColor=#383838;strokeWidth=2;fillColor=default;rotation=90;" parent="aCuxea5ZrcYa3IXeUISk-85" vertex="1">
                    <mxGeometry x="115.38" y="-40" width="19.23" height="180" as="geometry"/>
                </mxCell>
                <mxCell id="aCuxea5ZrcYa3IXeUISk-87" style="rounded=1;orthogonalLoop=1;jettySize=auto;html=1;entryX=0.5;entryY=0;entryDx=0;entryDy=0;dashed=1;dashPattern=1 1;fontFamily=Helvetica;fontSize=12;fontColor=#666666;endArrow=none;endFill=0;strokeColor=#383838;strokeWidth=2;exitX=0.1;exitY=0.5;exitDx=0;exitDy=0;exitPerimeter=0;edgeStyle=orthogonalEdgeStyle;" parent="1" source="aCuxea5ZrcYa3IXeUISk-86" target="aCuxea5ZrcYa3IXeUISk-31" edge="1">
                    <mxGeometry relative="1" as="geometry"/>
                </mxCell>
                <mxCell id="aCuxea5ZrcYa3IXeUISk-91" value="The External Secrets Operator pulls the secret from HashiCorp Vault then stores it as a Kubernetes secret" style="text;html=1;strokeColor=none;fillColor=none;align=left;verticalAlign=middle;whiteSpace=wrap;rounded=0;fontFamily=Helvetica;fontColor=#666666;" parent="1" vertex="1">
                    <mxGeometry x="470" y="360" width="290" height="40" as="geometry"/>
                </mxCell>
                <mxCell id="aCuxea5ZrcYa3IXeUISk-93" style="edgeStyle=orthogonalEdgeStyle;rounded=1;orthogonalLoop=1;jettySize=auto;html=1;entryX=0.5;entryY=1;entryDx=0;entryDy=0;dashed=1;dashPattern=1 1;fontFamily=Helvetica;fontSize=12;fontColor=#666666;endArrow=none;endFill=0;strokeColor=#383838;strokeWidth=2;" parent="1" source="aCuxea5ZrcYa3IXeUISk-92" target="aCuxea5ZrcYa3IXeUISk-37" edge="1">
                    <mxGeometry relative="1" as="geometry"/>
                </mxCell>
                <mxCell id="aCuxea5ZrcYa3IXeUISk-92" value="" style="shape=curlyBracket;whiteSpace=wrap;html=1;rounded=1;flipH=1;comic=0;fontFamily=Helvetica;fontSize=12;fontColor=#666666;strokeColor=#383838;strokeWidth=2;fillColor=none;" parent="1" vertex="1">
                    <mxGeometry x="750" y="360" width="20" height="40" as="geometry"/>
                </mxCell>
                <mxCell id="aCuxea5ZrcYa3IXeUISk-94" value="" style="group" parent="1" vertex="1" connectable="0">
                    <mxGeometry x="570" y="10" width="275" height="50.00000000000001" as="geometry"/>
                </mxCell>
                <mxCell id="aCuxea5ZrcYa3IXeUISk-84" value="ArgoCD provisions the remainder of the manifests and waits for the resource statuses to show ready." style="text;html=1;strokeColor=none;fillColor=none;align=left;verticalAlign=middle;whiteSpace=wrap;rounded=0;fontFamily=Helvetica;fontColor=#666666;" parent="aCuxea5ZrcYa3IXeUISk-94" vertex="1">
                    <mxGeometry width="275" height="40" as="geometry"/>
                </mxCell>
                <mxCell id="aCuxea5ZrcYa3IXeUISk-86" value="" style="shape=curlyBracket;whiteSpace=wrap;html=1;rounded=1;flipH=1;comic=0;fontFamily=Helvetica;fontSize=12;fontColor=#666666;strokeColor=#383838;strokeWidth=2;fillColor=none;rotation=90;" parent="aCuxea5ZrcYa3IXeUISk-94" vertex="1">
                    <mxGeometry x="125" y="-95" width="20" height="270" as="geometry"/>
                </mxCell>
                <mxCell id="aCuxea5ZrcYa3IXeUISk-31" value="7" style="ellipse;whiteSpace=wrap;html=1;aspect=fixed;strokeWidth=3;fillColor=#AE4132;strokeColor=#ae4132;fontColor=#FFFFFF;fontFamily=Helvetica;" parent="1" vertex="1">
                    <mxGeometry x="790" y="170" width="20" height="20" as="geometry"/>
                </mxCell>
                <mxCell id="aCuxea5ZrcYa3IXeUISk-95" value="" style="edgeStyle=orthogonalEdgeStyle;rounded=0;orthogonalLoop=1;jettySize=auto;html=1;endArrow=none;" parent="1" source="aCuxea5ZrcYa3IXeUISk-8" target="aCuxea5ZrcYa3IXeUISk-31" edge="1">
                    <mxGeometry relative="1" as="geometry">
                        <mxPoint x="760" y="179.9999999999999" as="sourcePoint"/>
                        <mxPoint x="880" y="179.9999999999999" as="targetPoint"/>
                    </mxGeometry>
                </mxCell>
            </root>
        </mxGraphModel>
    </diagram>
    <diagram id="WypUMm0jevHaFroRP5H5" name="Page-3">
        <mxGraphModel dx="1256" dy="758" grid="1" gridSize="10" guides="1" tooltips="1" connect="1" arrows="1" fold="1" page="1" pageScale="1" pageWidth="1100" pageHeight="850" math="0" shadow="0">
            <root>
                <mxCell id="0"/>
                <mxCell id="1" parent="0"/>
                <mxCell id="BLGzyy__rpX5LrcO83E8-1" value="" style="rounded=1;whiteSpace=wrap;html=1;fontFamily=Helvetica;strokeWidth=2;fillColor=none;strokeColor=#10739e;dashed=1;" parent="1" vertex="1">
                    <mxGeometry x="880" y="215" width="160" height="440" as="geometry"/>
                </mxCell>
                <mxCell id="BLGzyy__rpX5LrcO83E8-2" style="edgeStyle=orthogonalEdgeStyle;orthogonalLoop=1;jettySize=auto;html=1;startArrow=none;" parent="1" source="BLGzyy__rpX5LrcO83E8-38" target="BLGzyy__rpX5LrcO83E8-17" edge="1">
                    <mxGeometry relative="1" as="geometry"/>
                </mxCell>
                <mxCell id="BLGzyy__rpX5LrcO83E8-3" style="edgeStyle=orthogonalEdgeStyle;orthogonalLoop=1;jettySize=auto;html=1;" parent="1" source="BLGzyy__rpX5LrcO83E8-4" target="BLGzyy__rpX5LrcO83E8-19" edge="1">
                    <mxGeometry relative="1" as="geometry"/>
                </mxCell>
                <mxCell id="BLGzyy__rpX5LrcO83E8-4" value="Terraform&lt;br&gt;Service Module" style="rounded=1;whiteSpace=wrap;html=1;fillColor=default;strokeColor=#b46504;strokeWidth=3;" parent="1" vertex="1">
                    <mxGeometry x="60" y="355" width="120" height="40" as="geometry"/>
                </mxCell>
                <mxCell id="BLGzyy__rpX5LrcO83E8-5" style="edgeStyle=orthogonalEdgeStyle;rounded=0;orthogonalLoop=1;jettySize=auto;html=1;startArrow=none;" parent="1" source="BLGzyy__rpX5LrcO83E8-61" target="BLGzyy__rpX5LrcO83E8-12" edge="1">
                    <mxGeometry relative="1" as="geometry"/>
                </mxCell>
                <mxCell id="BLGzyy__rpX5LrcO83E8-6" style="edgeStyle=orthogonalEdgeStyle;orthogonalLoop=1;jettySize=auto;html=1;entryX=0;entryY=0.5;entryDx=0;entryDy=0;startArrow=none;" parent="1" source="BLGzyy__rpX5LrcO83E8-61" target="BLGzyy__rpX5LrcO83E8-13" edge="1">
                    <mxGeometry relative="1" as="geometry">
                        <Array as="points">
                            <mxPoint x="860" y="375"/>
                            <mxPoint x="860" y="255"/>
                        </Array>
                    </mxGeometry>
                </mxCell>
                <mxCell id="BLGzyy__rpX5LrcO83E8-7" style="edgeStyle=orthogonalEdgeStyle;orthogonalLoop=1;jettySize=auto;html=1;entryX=0.5;entryY=0;entryDx=0;entryDy=0;" parent="1" source="BLGzyy__rpX5LrcO83E8-8" target="BLGzyy__rpX5LrcO83E8-21" edge="1">
                    <mxGeometry relative="1" as="geometry"/>
                </mxCell>
                <mxCell id="BLGzyy__rpX5LrcO83E8-8" value="ArgoCD Application" style="rounded=1;whiteSpace=wrap;html=1;" parent="1" vertex="1">
                    <mxGeometry x="660" y="355" width="120" height="40" as="geometry"/>
                </mxCell>
                <mxCell id="BLGzyy__rpX5LrcO83E8-9" style="edgeStyle=orthogonalEdgeStyle;orthogonalLoop=1;jettySize=auto;html=1;entryX=0;entryY=0.5;entryDx=0;entryDy=0;dashed=1;endArrow=none;endFill=0;" parent="1" source="BLGzyy__rpX5LrcO83E8-10" target="BLGzyy__rpX5LrcO83E8-21" edge="1">
                    <mxGeometry relative="1" as="geometry"/>
                </mxCell>
                <mxCell id="BLGzyy__rpX5LrcO83E8-10" value="Vault Secret" style="rounded=1;whiteSpace=wrap;html=1;" parent="1" vertex="1">
                    <mxGeometry x="460" y="475" width="120" height="40" as="geometry"/>
                </mxCell>
                <mxCell id="BLGzyy__rpX5LrcO83E8-11" value="AWS Database" style="rounded=1;whiteSpace=wrap;html=1;" parent="1" vertex="1">
                    <mxGeometry x="900" y="595" width="120" height="40" as="geometry"/>
                </mxCell>
                <mxCell id="BLGzyy__rpX5LrcO83E8-12" value="App Service" style="rounded=1;whiteSpace=wrap;html=1;" parent="1" vertex="1">
                    <mxGeometry x="900" y="355" width="120" height="40" as="geometry"/>
                </mxCell>
                <mxCell id="BLGzyy__rpX5LrcO83E8-13" value="App Ingress" style="rounded=1;whiteSpace=wrap;html=1;" parent="1" vertex="1">
                    <mxGeometry x="900" y="235" width="120" height="40" as="geometry"/>
                </mxCell>
                <mxCell id="BLGzyy__rpX5LrcO83E8-14" value="App Secret" style="rounded=1;whiteSpace=wrap;html=1;" parent="1" vertex="1">
                    <mxGeometry x="900" y="475" width="120" height="40" as="geometry"/>
                </mxCell>
                <mxCell id="BLGzyy__rpX5LrcO83E8-15" style="edgeStyle=orthogonalEdgeStyle;orthogonalLoop=1;jettySize=auto;html=1;entryX=0;entryY=0.5;entryDx=0;entryDy=0;startArrow=none;" parent="1" source="BLGzyy__rpX5LrcO83E8-32" target="BLGzyy__rpX5LrcO83E8-10" edge="1">
                    <mxGeometry relative="1" as="geometry">
                        <mxPoint x="230" y="495" as="sourcePoint"/>
                    </mxGeometry>
                </mxCell>
                <mxCell id="BLGzyy__rpX5LrcO83E8-16" style="edgeStyle=orthogonalEdgeStyle;orthogonalLoop=1;jettySize=auto;html=1;entryX=0;entryY=0.5;entryDx=0;entryDy=0;startArrow=none;exitX=1;exitY=0.5;exitDx=0;exitDy=0;" parent="1" source="BLGzyy__rpX5LrcO83E8-32" target="BLGzyy__rpX5LrcO83E8-11" edge="1">
                    <mxGeometry relative="1" as="geometry">
                        <Array as="points">
                            <mxPoint x="380" y="495"/>
                            <mxPoint x="380" y="615"/>
                        </Array>
                    </mxGeometry>
                </mxCell>
                <mxCell id="BLGzyy__rpX5LrcO83E8-17" value="Terraform&lt;br&gt;Infrastructure Module" style="rounded=1;whiteSpace=wrap;html=1;fillColor=default;strokeColor=#0e8088;strokeWidth=3;" parent="1" vertex="1">
                    <mxGeometry x="60" y="475" width="120" height="40" as="geometry"/>
                </mxCell>
                <mxCell id="BLGzyy__rpX5LrcO83E8-18" style="edgeStyle=orthogonalEdgeStyle;orthogonalLoop=1;jettySize=auto;html=1;entryX=0;entryY=0.5;entryDx=0;entryDy=0;startArrow=none;" parent="1" source="BLGzyy__rpX5LrcO83E8-28" target="BLGzyy__rpX5LrcO83E8-8" edge="1">
                    <mxGeometry relative="1" as="geometry"/>
                </mxCell>
                <mxCell id="BLGzyy__rpX5LrcO83E8-19" value="Terraform&lt;br&gt;Resource Module" style="rounded=1;whiteSpace=wrap;html=1;fillColor=default;strokeColor=#10739e;strokeWidth=3;" parent="1" vertex="1">
                    <mxGeometry x="460" y="355" width="120" height="40" as="geometry"/>
                </mxCell>
                <mxCell id="BLGzyy__rpX5LrcO83E8-20" style="edgeStyle=orthogonalEdgeStyle;orthogonalLoop=1;jettySize=auto;html=1;entryX=0;entryY=0.5;entryDx=0;entryDy=0;startArrow=none;" parent="1" source="BLGzyy__rpX5LrcO83E8-34" target="BLGzyy__rpX5LrcO83E8-14" edge="1">
                    <mxGeometry relative="1" as="geometry"/>
                </mxCell>
                <mxCell id="BLGzyy__rpX5LrcO83E8-21" value="External Secret" style="rounded=1;whiteSpace=wrap;html=1;" parent="1" vertex="1">
                    <mxGeometry x="660" y="475" width="120" height="40" as="geometry"/>
                </mxCell>
                <mxCell id="BLGzyy__rpX5LrcO83E8-22" style="edgeStyle=orthogonalEdgeStyle;orthogonalLoop=1;jettySize=auto;html=1;entryX=0.5;entryY=0;entryDx=0;entryDy=0;fontFamily=Helvetica;fontColor=#666666;endArrow=classic;endFill=1;strokeWidth=1;" parent="1" source="BLGzyy__rpX5LrcO83E8-24" target="BLGzyy__rpX5LrcO83E8-4" edge="1">
                    <mxGeometry relative="1" as="geometry"/>
                </mxCell>
                <mxCell id="BLGzyy__rpX5LrcO83E8-23" style="edgeStyle=orthogonalEdgeStyle;orthogonalLoop=1;jettySize=auto;html=1;fontFamily=Helvetica;fontColor=#666666;endArrow=none;endFill=0;strokeWidth=1;rounded=1;dashed=1;" parent="1" source="BLGzyy__rpX5LrcO83E8-24" target="BLGzyy__rpX5LrcO83E8-19" edge="1">
                    <mxGeometry relative="1" as="geometry"/>
                </mxCell>
                <mxCell id="BLGzyy__rpX5LrcO83E8-24" value="Service&lt;br&gt;Helm Chart" style="rounded=1;whiteSpace=wrap;html=1;" parent="1" vertex="1">
                    <mxGeometry x="60" y="235" width="120" height="40" as="geometry"/>
                </mxCell>
                <mxCell id="BLGzyy__rpX5LrcO83E8-25" value="" style="edgeStyle=orthogonalEdgeStyle;orthogonalLoop=1;jettySize=auto;html=1;endArrow=none;" parent="1" source="BLGzyy__rpX5LrcO83E8-4" target="BLGzyy__rpX5LrcO83E8-38" edge="1">
                    <mxGeometry relative="1" as="geometry">
                        <mxPoint x="120" y="395.0000000000001" as="sourcePoint"/>
                        <mxPoint x="120" y="475.0000000000001" as="targetPoint"/>
                    </mxGeometry>
                </mxCell>
                <mxCell id="BLGzyy__rpX5LrcO83E8-26" value="" style="edgeStyle=orthogonalEdgeStyle;orthogonalLoop=1;jettySize=auto;html=1;entryX=0;entryY=0.5;entryDx=0;entryDy=0;endArrow=none;" parent="1" source="BLGzyy__rpX5LrcO83E8-17" edge="1">
                    <mxGeometry relative="1" as="geometry">
                        <mxPoint x="180" y="495" as="sourcePoint"/>
                        <mxPoint x="209.99999999998886" y="495.0000000000002" as="targetPoint"/>
                    </mxGeometry>
                </mxCell>
                <mxCell id="BLGzyy__rpX5LrcO83E8-27" value="3" style="ellipse;whiteSpace=wrap;html=1;aspect=fixed;strokeWidth=3;fillColor=#AE4132;strokeColor=#ae4132;fontColor=#FFFFFF;fontFamily=Helvetica;" parent="1" vertex="1">
                    <mxGeometry x="310" y="365" width="20" height="20" as="geometry"/>
                </mxCell>
                <mxCell id="BLGzyy__rpX5LrcO83E8-28" value="4" style="ellipse;whiteSpace=wrap;html=1;aspect=fixed;strokeWidth=3;fillColor=#AE4132;strokeColor=#ae4132;fontColor=#FFFFFF;fontFamily=Helvetica;" parent="1" vertex="1">
                    <mxGeometry x="610" y="365" width="20" height="20" as="geometry"/>
                </mxCell>
                <mxCell id="BLGzyy__rpX5LrcO83E8-29" value="" style="edgeStyle=orthogonalEdgeStyle;orthogonalLoop=1;jettySize=auto;html=1;entryX=0;entryY=0.5;entryDx=0;entryDy=0;endArrow=none;" parent="1" source="BLGzyy__rpX5LrcO83E8-19" target="BLGzyy__rpX5LrcO83E8-28" edge="1">
                    <mxGeometry relative="1" as="geometry">
                        <mxPoint x="580" y="375" as="sourcePoint"/>
                        <mxPoint x="660" y="375" as="targetPoint"/>
                    </mxGeometry>
                </mxCell>
                <mxCell id="BLGzyy__rpX5LrcO83E8-30" value="" style="edgeStyle=orthogonalEdgeStyle;orthogonalLoop=1;jettySize=auto;html=1;entryX=0;entryY=0.5;entryDx=0;entryDy=0;endArrow=none;" parent="1" source="BLGzyy__rpX5LrcO83E8-8" target="BLGzyy__rpX5LrcO83E8-61" edge="1">
                    <mxGeometry relative="1" as="geometry">
                        <mxPoint x="780" y="375" as="sourcePoint"/>
                        <mxPoint x="900" y="255" as="targetPoint"/>
                    </mxGeometry>
                </mxCell>
                <mxCell id="BLGzyy__rpX5LrcO83E8-31" style="edgeStyle=orthogonalEdgeStyle;orthogonalLoop=1;jettySize=auto;html=1;entryX=0.5;entryY=1;entryDx=0;entryDy=0;dashed=1;fontFamily=Helvetica;fontColor=#666666;endArrow=none;endFill=0;strokeWidth=1;exitX=0.5;exitY=0;exitDx=0;exitDy=0;" parent="1" source="BLGzyy__rpX5LrcO83E8-10" target="BLGzyy__rpX5LrcO83E8-19" edge="1">
                    <mxGeometry relative="1" as="geometry">
                        <Array as="points">
                            <mxPoint x="520" y="455"/>
                            <mxPoint x="520" y="455"/>
                        </Array>
                    </mxGeometry>
                </mxCell>
                <mxCell id="BLGzyy__rpX5LrcO83E8-32" value="2" style="ellipse;whiteSpace=wrap;html=1;aspect=fixed;strokeWidth=3;fillColor=#AE4132;strokeColor=#ae4132;fontColor=#FFFFFF;fontFamily=Helvetica;" parent="1" vertex="1">
                    <mxGeometry x="310" y="485" width="20" height="20" as="geometry"/>
                </mxCell>
                <mxCell id="BLGzyy__rpX5LrcO83E8-33" value="" style="edgeStyle=orthogonalEdgeStyle;orthogonalLoop=1;jettySize=auto;html=1;entryX=0;entryY=0.5;entryDx=0;entryDy=0;startArrow=none;endArrow=none;" parent="1" target="BLGzyy__rpX5LrcO83E8-32" edge="1">
                    <mxGeometry relative="1" as="geometry">
                        <mxPoint x="210" y="495.0000000000002" as="sourcePoint"/>
                        <mxPoint x="460" y="495" as="targetPoint"/>
                    </mxGeometry>
                </mxCell>
                <mxCell id="BLGzyy__rpX5LrcO83E8-34" value="6" style="ellipse;whiteSpace=wrap;html=1;aspect=fixed;strokeWidth=3;fillColor=#AE4132;strokeColor=#ae4132;fontColor=#FFFFFF;fontFamily=Helvetica;" parent="1" vertex="1">
                    <mxGeometry x="810" y="485" width="20" height="20" as="geometry"/>
                </mxCell>
                <mxCell id="BLGzyy__rpX5LrcO83E8-35" value="" style="edgeStyle=orthogonalEdgeStyle;orthogonalLoop=1;jettySize=auto;html=1;entryX=0;entryY=0.5;entryDx=0;entryDy=0;endArrow=none;" parent="1" source="BLGzyy__rpX5LrcO83E8-21" target="BLGzyy__rpX5LrcO83E8-34" edge="1">
                    <mxGeometry relative="1" as="geometry">
                        <mxPoint x="779.9999999999998" y="495" as="sourcePoint"/>
                        <mxPoint x="900" y="495" as="targetPoint"/>
                    </mxGeometry>
                </mxCell>
                <mxCell id="BLGzyy__rpX5LrcO83E8-36" style="edgeStyle=orthogonalEdgeStyle;rounded=1;orthogonalLoop=1;jettySize=auto;html=1;entryX=1;entryY=0.5;entryDx=0;entryDy=0;fontFamily=Helvetica;fontSize=12;fontColor=#383838;endArrow=none;endFill=0;strokeWidth=2;dashed=1;dashPattern=1 1;exitX=0.1;exitY=0.5;exitDx=0;exitDy=0;exitPerimeter=0;" parent="1" source="BLGzyy__rpX5LrcO83E8-39" target="BLGzyy__rpX5LrcO83E8-38" edge="1">
                    <mxGeometry relative="1" as="geometry"/>
                </mxCell>
                <mxCell id="BLGzyy__rpX5LrcO83E8-37" value="&lt;span style=&quot;color: rgb(102, 102, 102); text-align: left;&quot;&gt;The Service Module begins building out the database using an appropriate AWS Database Infrastructure Module&lt;/span&gt;" style="text;html=1;strokeColor=none;fillColor=none;align=center;verticalAlign=middle;whiteSpace=wrap;rounded=0;dashed=1;fontFamily=Helvetica;fontSize=12;fontColor=#383838;perimeter=rectanglePerimeter;collapsible=0;comic=0;absoluteArcSize=0;" parent="1" vertex="1">
                    <mxGeometry x="170" y="415" width="320" height="40" as="geometry">
                        <mxRectangle x="160" y="220" width="630" height="20" as="alternateBounds"/>
                    </mxGeometry>
                </mxCell>
                <mxCell id="BLGzyy__rpX5LrcO83E8-38" value="1" style="ellipse;whiteSpace=wrap;html=1;aspect=fixed;strokeWidth=3;fillColor=#AE4132;strokeColor=#ae4132;fontColor=#FFFFFF;fontFamily=Helvetica;" parent="1" vertex="1">
                    <mxGeometry x="110" y="425" width="20" height="20" as="geometry"/>
                </mxCell>
                <mxCell id="BLGzyy__rpX5LrcO83E8-39" value="" style="shape=curlyBracket;whiteSpace=wrap;html=1;rounded=1;comic=0;fontFamily=Helvetica;fontSize=12;fontColor=#383838;strokeColor=default;strokeWidth=2;fillColor=default;" parent="1" vertex="1">
                    <mxGeometry x="160" y="415" width="10" height="40" as="geometry"/>
                </mxCell>
                <mxCell id="BLGzyy__rpX5LrcO83E8-40" value="The database is built out and the database connection credentials are stored in Vault." style="text;html=1;strokeColor=none;fillColor=none;align=center;verticalAlign=middle;whiteSpace=wrap;rounded=0;fontFamily=Helvetica;fontColor=#666666;" parent="1" vertex="1">
                    <mxGeometry x="100" y="555" width="240" height="40" as="geometry"/>
                </mxCell>
                <mxCell id="BLGzyy__rpX5LrcO83E8-41" style="edgeStyle=orthogonalEdgeStyle;rounded=1;orthogonalLoop=1;jettySize=auto;html=1;entryX=0.5;entryY=1;entryDx=0;entryDy=0;dashed=1;dashPattern=1 1;fontFamily=Helvetica;fontSize=12;fontColor=#383838;endArrow=none;endFill=0;strokeWidth=2;" parent="1" source="BLGzyy__rpX5LrcO83E8-42" target="BLGzyy__rpX5LrcO83E8-32" edge="1">
                    <mxGeometry relative="1" as="geometry"/>
                </mxCell>
                <mxCell id="BLGzyy__rpX5LrcO83E8-42" value="" style="shape=curlyBracket;whiteSpace=wrap;html=1;rounded=1;comic=0;fontFamily=Helvetica;fontSize=12;fontColor=#383838;strokeColor=default;strokeWidth=2;fillColor=default;rotation=90;" parent="1" vertex="1">
                    <mxGeometry x="210" y="435" width="20" height="240" as="geometry"/>
                </mxCell>
                <mxCell id="BLGzyy__rpX5LrcO83E8-43" value="The Service Module begins building out the Kubernetes deployments using the argocd-application resource module." style="text;html=1;strokeColor=none;fillColor=none;align=center;verticalAlign=middle;whiteSpace=wrap;rounded=0;fontFamily=Helvetica;fontColor=#666666;" parent="1" vertex="1">
                    <mxGeometry x="160" y="295" width="320" height="40" as="geometry"/>
                </mxCell>
                <mxCell id="BLGzyy__rpX5LrcO83E8-44" style="edgeStyle=orthogonalEdgeStyle;rounded=1;orthogonalLoop=1;jettySize=auto;html=1;entryX=0.5;entryY=0;entryDx=0;entryDy=0;dashed=1;dashPattern=1 1;fontFamily=Helvetica;fontSize=12;fontColor=#383838;endArrow=none;endFill=0;strokeWidth=2;" parent="1" source="BLGzyy__rpX5LrcO83E8-45" target="BLGzyy__rpX5LrcO83E8-27" edge="1">
                    <mxGeometry relative="1" as="geometry"/>
                </mxCell>
                <mxCell id="BLGzyy__rpX5LrcO83E8-45" value="" style="shape=curlyBracket;whiteSpace=wrap;html=1;rounded=1;flipH=1;comic=0;fontFamily=Helvetica;fontSize=12;fontColor=#383838;strokeColor=default;strokeWidth=2;fillColor=default;rotation=90;" parent="1" vertex="1">
                    <mxGeometry x="310" y="175" width="20" height="320" as="geometry"/>
                </mxCell>
                <mxCell id="BLGzyy__rpX5LrcO83E8-46" style="edgeStyle=orthogonalEdgeStyle;rounded=1;orthogonalLoop=1;jettySize=auto;html=1;entryX=0.5;entryY=0;entryDx=0;entryDy=0;dashed=1;dashPattern=1 1;fontFamily=Helvetica;fontSize=12;fontColor=#383838;endArrow=none;endFill=0;strokeWidth=2;strokeColor=#383838;" parent="1" source="BLGzyy__rpX5LrcO83E8-53" target="BLGzyy__rpX5LrcO83E8-28" edge="1">
                    <mxGeometry relative="1" as="geometry"/>
                </mxCell>
                <mxCell id="BLGzyy__rpX5LrcO83E8-47" value="ArgoCD provisions an external-secret resource that references the database credentials stored in step &lt;b&gt;&lt;font color=&quot;#ae4132&quot;&gt;2&lt;/font&gt;&lt;/b&gt;&lt;b&gt;&lt;font color=&quot;#ae4132&quot;&gt;&lt;br&gt;&lt;/font&gt;&lt;/b&gt;" style="text;html=1;strokeColor=none;fillColor=none;align=center;verticalAlign=middle;whiteSpace=wrap;rounded=0;fontFamily=Helvetica;fontColor=#666666;" parent="1" vertex="1">
                    <mxGeometry x="530" y="405" width="160" height="60" as="geometry"/>
                </mxCell>
                <mxCell id="BLGzyy__rpX5LrcO83E8-48" style="edgeStyle=orthogonalEdgeStyle;rounded=1;orthogonalLoop=1;jettySize=auto;html=1;entryX=0;entryY=0.5;entryDx=0;entryDy=0;dashed=1;dashPattern=1 1;fontFamily=Helvetica;fontSize=12;fontColor=#383838;endArrow=none;endFill=0;strokeWidth=2;" parent="1" source="BLGzyy__rpX5LrcO83E8-49" target="BLGzyy__rpX5LrcO83E8-50" edge="1">
                    <mxGeometry relative="1" as="geometry"/>
                </mxCell>
                <mxCell id="BLGzyy__rpX5LrcO83E8-49" value="" style="shape=curlyBracket;whiteSpace=wrap;html=1;rounded=1;flipH=1;comic=0;fontFamily=Helvetica;fontSize=12;fontColor=#383838;strokeColor=default;strokeWidth=2;fillColor=default;" parent="1" vertex="1">
                    <mxGeometry x="680" y="405" width="20" height="60" as="geometry"/>
                </mxCell>
                <mxCell id="BLGzyy__rpX5LrcO83E8-50" value="5" style="ellipse;whiteSpace=wrap;html=1;aspect=fixed;strokeWidth=3;fillColor=#AE4132;strokeColor=#ae4132;fontColor=#FFFFFF;fontFamily=Helvetica;" parent="1" vertex="1">
                    <mxGeometry x="710" y="425" width="20" height="20" as="geometry"/>
                </mxCell>
                <mxCell id="BLGzyy__rpX5LrcO83E8-51" value="" style="group" parent="1" vertex="1" connectable="0">
                    <mxGeometry x="495" y="285" width="250" height="160" as="geometry"/>
                </mxCell>
                <mxCell id="BLGzyy__rpX5LrcO83E8-52" value="&lt;font color=&quot;#666666&quot;&gt;The argocd-application resource module deploys the ArgoCD &lt;i&gt;Application&lt;/i&gt;&amp;nbsp;manifest used to provision the service&lt;/font&gt;" style="text;html=1;strokeColor=none;fillColor=none;align=center;verticalAlign=middle;whiteSpace=wrap;rounded=1;fontFamily=Helvetica;strokeWidth=2;arcSize=9;" parent="BLGzyy__rpX5LrcO83E8-51" vertex="1">
                    <mxGeometry x="35" y="-20" width="180" height="70" as="geometry"/>
                </mxCell>
                <mxCell id="BLGzyy__rpX5LrcO83E8-53" value="" style="shape=curlyBracket;whiteSpace=wrap;html=1;rounded=1;flipH=1;comic=0;fontFamily=Helvetica;fontSize=12;fontColor=#383838;strokeColor=#383838;strokeWidth=2;fillColor=default;rotation=90;" parent="BLGzyy__rpX5LrcO83E8-51" vertex="1">
                    <mxGeometry x="115.38" y="-40" width="19.23" height="180" as="geometry"/>
                </mxCell>
                <mxCell id="BLGzyy__rpX5LrcO83E8-54" style="rounded=1;orthogonalLoop=1;jettySize=auto;html=1;entryX=0.5;entryY=0;entryDx=0;entryDy=0;dashed=1;dashPattern=1 1;fontFamily=Helvetica;fontSize=12;fontColor=#666666;endArrow=none;endFill=0;strokeColor=#383838;strokeWidth=2;exitX=0.1;exitY=0.5;exitDx=0;exitDy=0;exitPerimeter=0;edgeStyle=orthogonalEdgeStyle;" parent="1" source="BLGzyy__rpX5LrcO83E8-60" target="BLGzyy__rpX5LrcO83E8-61" edge="1">
                    <mxGeometry relative="1" as="geometry"/>
                </mxCell>
                <mxCell id="BLGzyy__rpX5LrcO83E8-55" value="The External Secrets Operator pulls the secret from HashiCorp Vault then stores it as a Kubernetes secret" style="text;html=1;strokeColor=none;fillColor=none;align=left;verticalAlign=middle;whiteSpace=wrap;rounded=0;fontFamily=Helvetica;fontColor=#666666;" parent="1" vertex="1">
                    <mxGeometry x="490" y="555" width="290" height="40" as="geometry"/>
                </mxCell>
                <mxCell id="BLGzyy__rpX5LrcO83E8-56" style="edgeStyle=orthogonalEdgeStyle;rounded=1;orthogonalLoop=1;jettySize=auto;html=1;entryX=0.5;entryY=1;entryDx=0;entryDy=0;dashed=1;dashPattern=1 1;fontFamily=Helvetica;fontSize=12;fontColor=#666666;endArrow=none;endFill=0;strokeColor=#383838;strokeWidth=2;" parent="1" source="BLGzyy__rpX5LrcO83E8-57" target="BLGzyy__rpX5LrcO83E8-34" edge="1">
                    <mxGeometry relative="1" as="geometry"/>
                </mxCell>
                <mxCell id="BLGzyy__rpX5LrcO83E8-57" value="" style="shape=curlyBracket;whiteSpace=wrap;html=1;rounded=1;flipH=1;comic=0;fontFamily=Helvetica;fontSize=12;fontColor=#666666;strokeColor=#383838;strokeWidth=2;fillColor=none;" parent="1" vertex="1">
                    <mxGeometry x="770" y="555" width="20" height="40" as="geometry"/>
                </mxCell>
                <mxCell id="BLGzyy__rpX5LrcO83E8-58" value="" style="group" parent="1" vertex="1" connectable="0">
                    <mxGeometry x="590" y="205" width="275" height="50.00000000000001" as="geometry"/>
                </mxCell>
                <mxCell id="BLGzyy__rpX5LrcO83E8-59" value="ArgoCD provisions the remainder of the manifests and waits for the resource statuses to show ready." style="text;html=1;strokeColor=none;fillColor=none;align=left;verticalAlign=middle;whiteSpace=wrap;rounded=0;fontFamily=Helvetica;fontColor=#666666;" parent="BLGzyy__rpX5LrcO83E8-58" vertex="1">
                    <mxGeometry width="275" height="40" as="geometry"/>
                </mxCell>
                <mxCell id="BLGzyy__rpX5LrcO83E8-60" value="" style="shape=curlyBracket;whiteSpace=wrap;html=1;rounded=1;flipH=1;comic=0;fontFamily=Helvetica;fontSize=12;fontColor=#666666;strokeColor=#383838;strokeWidth=2;fillColor=none;rotation=90;" parent="BLGzyy__rpX5LrcO83E8-58" vertex="1">
                    <mxGeometry x="125" y="-95" width="20" height="270" as="geometry"/>
                </mxCell>
                <mxCell id="BLGzyy__rpX5LrcO83E8-61" value="7" style="ellipse;whiteSpace=wrap;html=1;aspect=fixed;strokeWidth=3;fillColor=#AE4132;strokeColor=#ae4132;fontColor=#FFFFFF;fontFamily=Helvetica;" parent="1" vertex="1">
                    <mxGeometry x="810" y="365" width="20" height="20" as="geometry"/>
                </mxCell>
                <mxCell id="BLGzyy__rpX5LrcO83E8-62" value="" style="edgeStyle=orthogonalEdgeStyle;rounded=0;orthogonalLoop=1;jettySize=auto;html=1;endArrow=none;" parent="1" source="BLGzyy__rpX5LrcO83E8-8" target="BLGzyy__rpX5LrcO83E8-61" edge="1">
                    <mxGeometry relative="1" as="geometry">
                        <mxPoint x="780" y="374.9999999999999" as="sourcePoint"/>
                        <mxPoint x="900" y="374.9999999999999" as="targetPoint"/>
                    </mxGeometry>
                </mxCell>
            </root>
        </mxGraphModel>
    </diagram>
    <diagram id="W2PaJt1Sr8DMdwwwHEVI" name="Page-4">
        <mxGraphModel dx="1256" dy="758" grid="1" gridSize="10" guides="0" tooltips="1" connect="1" arrows="1" fold="1" page="1" pageScale="1" pageWidth="1100" pageHeight="850" math="0" shadow="0">
            <root>
                <mxCell id="0"/>
                <mxCell id="1" parent="0"/>
                <mxCell id="sxyrtl5exo0g-DPpmVb_-1" value="" style="rounded=1;whiteSpace=wrap;html=1;fontFamily=Helvetica;strokeWidth=2;fillColor=none;strokeColor=#10739e;dashed=1;" parent="1" vertex="1">
                    <mxGeometry x="920" y="219" width="160" height="481" as="geometry"/>
                </mxCell>
                <mxCell id="sxyrtl5exo0g-DPpmVb_-2" style="edgeStyle=orthogonalEdgeStyle;orthogonalLoop=1;jettySize=auto;html=1;startArrow=none;" parent="1" source="sxyrtl5exo0g-DPpmVb_-38" target="sxyrtl5exo0g-DPpmVb_-17" edge="1">
                    <mxGeometry relative="1" as="geometry"/>
                </mxCell>
                <mxCell id="sxyrtl5exo0g-DPpmVb_-3" style="edgeStyle=orthogonalEdgeStyle;orthogonalLoop=1;jettySize=auto;html=1;startArrow=none;" parent="1" source="sxyrtl5exo0g-DPpmVb_-27" target="sxyrtl5exo0g-DPpmVb_-19" edge="1">
                    <mxGeometry relative="1" as="geometry"/>
                </mxCell>
                <mxCell id="sxyrtl5exo0g-DPpmVb_-4" value="Terraform&lt;br&gt;Service Module" style="rounded=1;whiteSpace=wrap;html=1;fillColor=default;strokeColor=#b46504;strokeWidth=3;" parent="1" vertex="1">
                    <mxGeometry x="20" y="359" width="120" height="40" as="geometry"/>
                </mxCell>
                <mxCell id="sxyrtl5exo0g-DPpmVb_-5" style="edgeStyle=orthogonalEdgeStyle;rounded=0;orthogonalLoop=1;jettySize=auto;html=1;startArrow=none;" parent="1" source="sxyrtl5exo0g-DPpmVb_-61" target="sxyrtl5exo0g-DPpmVb_-12" edge="1">
                    <mxGeometry relative="1" as="geometry"/>
                </mxCell>
                <mxCell id="sxyrtl5exo0g-DPpmVb_-6" style="edgeStyle=orthogonalEdgeStyle;orthogonalLoop=1;jettySize=auto;html=1;entryX=0;entryY=0.5;entryDx=0;entryDy=0;startArrow=none;" parent="1" source="sxyrtl5exo0g-DPpmVb_-61" target="sxyrtl5exo0g-DPpmVb_-13" edge="1">
                    <mxGeometry relative="1" as="geometry">
                        <Array as="points">
                            <mxPoint x="900" y="379"/>
                            <mxPoint x="900" y="259"/>
                        </Array>
                    </mxGeometry>
                </mxCell>
                <mxCell id="sxyrtl5exo0g-DPpmVb_-7" style="edgeStyle=orthogonalEdgeStyle;orthogonalLoop=1;jettySize=auto;html=1;entryX=0.5;entryY=0;entryDx=0;entryDy=0;startArrow=none;" parent="1" source="sxyrtl5exo0g-DPpmVb_-50" target="sxyrtl5exo0g-DPpmVb_-21" edge="1">
                    <mxGeometry relative="1" as="geometry"/>
                </mxCell>
                <mxCell id="sxyrtl5exo0g-DPpmVb_-9" style="edgeStyle=orthogonalEdgeStyle;orthogonalLoop=1;jettySize=auto;html=1;entryX=0;entryY=0.5;entryDx=0;entryDy=0;dashed=1;endArrow=none;endFill=0;" parent="1" source="sxyrtl5exo0g-DPpmVb_-10" target="sxyrtl5exo0g-DPpmVb_-21" edge="1">
                    <mxGeometry relative="1" as="geometry"/>
                </mxCell>
                <mxCell id="sxyrtl5exo0g-DPpmVb_-10" value="Vault Secret" style="rounded=1;whiteSpace=wrap;html=1;" parent="1" vertex="1">
                    <mxGeometry x="360" y="520" width="120" height="40" as="geometry"/>
                </mxCell>
                <mxCell id="sxyrtl5exo0g-DPpmVb_-11" value="AWS Database" style="rounded=1;whiteSpace=wrap;html=1;" parent="1" vertex="1">
                    <mxGeometry x="940" y="640" width="120" height="40" as="geometry"/>
                </mxCell>
                <mxCell id="sxyrtl5exo0g-DPpmVb_-12" value="App Service" style="rounded=1;whiteSpace=wrap;html=1;" parent="1" vertex="1">
                    <mxGeometry x="940" y="359" width="120" height="40" as="geometry"/>
                </mxCell>
                <mxCell id="sxyrtl5exo0g-DPpmVb_-13" value="App Ingress" style="rounded=1;whiteSpace=wrap;html=1;" parent="1" vertex="1">
                    <mxGeometry x="940" y="239" width="120" height="40" as="geometry"/>
                </mxCell>
                <mxCell id="sxyrtl5exo0g-DPpmVb_-14" value="App Secret" style="rounded=1;whiteSpace=wrap;html=1;" parent="1" vertex="1">
                    <mxGeometry x="940" y="520" width="120" height="40" as="geometry"/>
                </mxCell>
                <mxCell id="sxyrtl5exo0g-DPpmVb_-15" style="edgeStyle=orthogonalEdgeStyle;orthogonalLoop=1;jettySize=auto;html=1;entryX=0;entryY=0.5;entryDx=0;entryDy=0;startArrow=none;" parent="1" source="sxyrtl5exo0g-DPpmVb_-32" target="sxyrtl5exo0g-DPpmVb_-10" edge="1">
                    <mxGeometry relative="1" as="geometry">
                        <mxPoint x="230" y="540" as="sourcePoint"/>
                    </mxGeometry>
                </mxCell>
                <mxCell id="sxyrtl5exo0g-DPpmVb_-16" style="edgeStyle=orthogonalEdgeStyle;orthogonalLoop=1;jettySize=auto;html=1;entryX=0;entryY=0.5;entryDx=0;entryDy=0;startArrow=none;exitX=1;exitY=0.5;exitDx=0;exitDy=0;" parent="1" source="sxyrtl5exo0g-DPpmVb_-32" target="sxyrtl5exo0g-DPpmVb_-11" edge="1">
                    <mxGeometry relative="1" as="geometry">
                        <Array as="points">
                            <mxPoint x="300" y="540"/>
                            <mxPoint x="300" y="660"/>
                        </Array>
                    </mxGeometry>
                </mxCell>
                <mxCell id="sxyrtl5exo0g-DPpmVb_-17" value="Terraform&lt;br&gt;Infrastructure Module" style="rounded=1;whiteSpace=wrap;html=1;fillColor=default;strokeColor=#0e8088;strokeWidth=3;" parent="1" vertex="1">
                    <mxGeometry x="20" y="520" width="120" height="40" as="geometry"/>
                </mxCell>
                <mxCell id="sxyrtl5exo0g-DPpmVb_-18" style="edgeStyle=orthogonalEdgeStyle;orthogonalLoop=1;jettySize=auto;html=1;entryX=0;entryY=0.5;entryDx=0;entryDy=0;startArrow=none;" parent="1" source="sxyrtl5exo0g-DPpmVb_-28" target="sxyrtl5exo0g-DPpmVb_-8" edge="1">
                    <mxGeometry relative="1" as="geometry"/>
                </mxCell>
                <mxCell id="sxyrtl5exo0g-DPpmVb_-19" value="Terraform&lt;br&gt;Resource Module" style="rounded=1;whiteSpace=wrap;html=1;fillColor=default;strokeColor=#10739e;strokeWidth=3;" parent="1" vertex="1">
                    <mxGeometry x="360" y="359" width="120" height="40" as="geometry"/>
                </mxCell>
                <mxCell id="sxyrtl5exo0g-DPpmVb_-20" style="edgeStyle=orthogonalEdgeStyle;orthogonalLoop=1;jettySize=auto;html=1;entryX=0;entryY=0.5;entryDx=0;entryDy=0;startArrow=none;" parent="1" source="sxyrtl5exo0g-DPpmVb_-34" target="sxyrtl5exo0g-DPpmVb_-14" edge="1">
                    <mxGeometry relative="1" as="geometry"/>
                </mxCell>
                <mxCell id="sxyrtl5exo0g-DPpmVb_-21" value="External Secret" style="rounded=1;whiteSpace=wrap;html=1;" parent="1" vertex="1">
                    <mxGeometry x="600" y="520" width="120" height="40" as="geometry"/>
                </mxCell>
                <mxCell id="sxyrtl5exo0g-DPpmVb_-22" style="edgeStyle=orthogonalEdgeStyle;orthogonalLoop=1;jettySize=auto;html=1;entryX=0.5;entryY=0;entryDx=0;entryDy=0;fontFamily=Helvetica;fontColor=#666666;endArrow=classic;endFill=1;strokeWidth=1;" parent="1" source="sxyrtl5exo0g-DPpmVb_-24" target="sxyrtl5exo0g-DPpmVb_-4" edge="1">
                    <mxGeometry relative="1" as="geometry"/>
                </mxCell>
                <mxCell id="sxyrtl5exo0g-DPpmVb_-23" style="edgeStyle=orthogonalEdgeStyle;orthogonalLoop=1;jettySize=auto;html=1;fontFamily=Helvetica;fontColor=#666666;endArrow=none;endFill=0;strokeWidth=1;rounded=1;dashed=1;" parent="1" source="sxyrtl5exo0g-DPpmVb_-24" target="sxyrtl5exo0g-DPpmVb_-19" edge="1">
                    <mxGeometry relative="1" as="geometry"/>
                </mxCell>
                <mxCell id="sxyrtl5exo0g-DPpmVb_-24" value="Service&lt;br&gt;Helm Chart" style="rounded=1;whiteSpace=wrap;html=1;" parent="1" vertex="1">
                    <mxGeometry x="20" y="239" width="120" height="40" as="geometry"/>
                </mxCell>
                <mxCell id="sxyrtl5exo0g-DPpmVb_-25" value="" style="edgeStyle=orthogonalEdgeStyle;orthogonalLoop=1;jettySize=auto;html=1;endArrow=none;" parent="1" source="sxyrtl5exo0g-DPpmVb_-4" target="sxyrtl5exo0g-DPpmVb_-38" edge="1">
                    <mxGeometry relative="1" as="geometry">
                        <mxPoint x="120" y="399.0000000000001" as="sourcePoint"/>
                        <mxPoint x="120" y="479.0000000000001" as="targetPoint"/>
                    </mxGeometry>
                </mxCell>
                <mxCell id="sxyrtl5exo0g-DPpmVb_-26" value="" style="edgeStyle=orthogonalEdgeStyle;orthogonalLoop=1;jettySize=auto;html=1;entryX=0;entryY=0.5;entryDx=0;entryDy=0;endArrow=none;" parent="1" source="sxyrtl5exo0g-DPpmVb_-17" edge="1">
                    <mxGeometry relative="1" as="geometry">
                        <mxPoint x="180" y="540" as="sourcePoint"/>
                        <mxPoint x="209.99999999998886" y="540.0000000000002" as="targetPoint"/>
                    </mxGeometry>
                </mxCell>
                <mxCell id="sxyrtl5exo0g-DPpmVb_-29" value="" style="edgeStyle=orthogonalEdgeStyle;orthogonalLoop=1;jettySize=auto;html=1;entryX=0;entryY=0.5;entryDx=0;entryDy=0;endArrow=none;" parent="1" source="sxyrtl5exo0g-DPpmVb_-19" target="sxyrtl5exo0g-DPpmVb_-28" edge="1">
                    <mxGeometry relative="1" as="geometry">
                        <mxPoint x="580" y="379" as="sourcePoint"/>
                        <mxPoint x="660" y="379" as="targetPoint"/>
                    </mxGeometry>
                </mxCell>
                <mxCell id="sxyrtl5exo0g-DPpmVb_-30" value="" style="edgeStyle=orthogonalEdgeStyle;orthogonalLoop=1;jettySize=auto;html=1;entryX=0;entryY=0.5;entryDx=0;entryDy=0;endArrow=none;" parent="1" source="sxyrtl5exo0g-DPpmVb_-8" target="sxyrtl5exo0g-DPpmVb_-61" edge="1">
                    <mxGeometry relative="1" as="geometry">
                        <mxPoint x="780" y="379" as="sourcePoint"/>
                        <mxPoint x="900" y="259" as="targetPoint"/>
                    </mxGeometry>
                </mxCell>
                <mxCell id="sxyrtl5exo0g-DPpmVb_-31" style="edgeStyle=orthogonalEdgeStyle;orthogonalLoop=1;jettySize=auto;html=1;entryX=0.5;entryY=1;entryDx=0;entryDy=0;dashed=1;fontFamily=Helvetica;fontColor=#666666;endArrow=none;endFill=0;strokeWidth=1;exitX=0.5;exitY=0;exitDx=0;exitDy=0;" parent="1" source="sxyrtl5exo0g-DPpmVb_-10" target="sxyrtl5exo0g-DPpmVb_-19" edge="1">
                    <mxGeometry relative="1" as="geometry">
                        <Array as="points">
                            <mxPoint x="420" y="470"/>
                            <mxPoint x="420" y="470"/>
                        </Array>
                    </mxGeometry>
                </mxCell>
                <mxCell id="sxyrtl5exo0g-DPpmVb_-33" value="" style="edgeStyle=orthogonalEdgeStyle;orthogonalLoop=1;jettySize=auto;html=1;entryX=0;entryY=0.5;entryDx=0;entryDy=0;startArrow=none;endArrow=none;" parent="1" target="sxyrtl5exo0g-DPpmVb_-32" edge="1">
                    <mxGeometry relative="1" as="geometry">
                        <mxPoint x="210" y="540.0000000000002" as="sourcePoint"/>
                        <mxPoint x="460" y="540" as="targetPoint"/>
                    </mxGeometry>
                </mxCell>
                <mxCell id="sxyrtl5exo0g-DPpmVb_-35" value="" style="edgeStyle=orthogonalEdgeStyle;orthogonalLoop=1;jettySize=auto;html=1;entryX=0;entryY=0.5;entryDx=0;entryDy=0;endArrow=none;" parent="1" source="sxyrtl5exo0g-DPpmVb_-21" target="sxyrtl5exo0g-DPpmVb_-34" edge="1">
                    <mxGeometry relative="1" as="geometry">
                        <mxPoint x="779.9999999999998" y="540" as="sourcePoint"/>
                        <mxPoint x="900" y="540" as="targetPoint"/>
                    </mxGeometry>
                </mxCell>
                <mxCell id="sxyrtl5exo0g-DPpmVb_-36" style="edgeStyle=orthogonalEdgeStyle;rounded=1;orthogonalLoop=1;jettySize=auto;html=1;entryX=1;entryY=0.5;entryDx=0;entryDy=0;fontFamily=Helvetica;fontSize=12;fontColor=#383838;endArrow=none;endFill=0;strokeWidth=2;dashed=1;dashPattern=1 1;exitX=0.1;exitY=0.5;exitDx=0;exitDy=0;exitPerimeter=0;" parent="1" source="sxyrtl5exo0g-DPpmVb_-39" target="sxyrtl5exo0g-DPpmVb_-38" edge="1">
                    <mxGeometry relative="1" as="geometry">
                        <mxPoint x="129.99999999999636" y="480" as="targetPoint"/>
                    </mxGeometry>
                </mxCell>
                <mxCell id="sxyrtl5exo0g-DPpmVb_-37" value="&lt;span style=&quot;color: rgb(102, 102, 102); text-align: left;&quot;&gt;The Service Module begins building out the database using an appropriate AWS Database Infrastructure Module&lt;/span&gt;" style="text;html=1;strokeColor=none;fillColor=none;align=center;verticalAlign=middle;whiteSpace=wrap;rounded=0;dashed=1;fontFamily=Helvetica;fontSize=12;fontColor=#383838;perimeter=rectanglePerimeter;collapsible=0;comic=0;absoluteArcSize=0;" parent="1" vertex="1">
                    <mxGeometry x="130" y="439.5" width="210" height="40" as="geometry">
                        <mxRectangle x="160" y="220" width="630" height="20" as="alternateBounds"/>
                    </mxGeometry>
                </mxCell>
                <mxCell id="sxyrtl5exo0g-DPpmVb_-39" value="" style="shape=curlyBracket;whiteSpace=wrap;html=1;rounded=1;comic=0;fontFamily=Helvetica;fontSize=12;fontColor=#383838;strokeColor=default;strokeWidth=2;fillColor=default;" parent="1" vertex="1">
                    <mxGeometry x="120" y="439.5" width="10" height="40" as="geometry"/>
                </mxCell>
                <mxCell id="sxyrtl5exo0g-DPpmVb_-40" value="The database is built out and the database connection credentials are stored in Vault." style="text;html=1;strokeColor=none;fillColor=none;align=center;verticalAlign=middle;whiteSpace=wrap;rounded=0;fontFamily=Helvetica;fontColor=#666666;" parent="1" vertex="1">
                    <mxGeometry x="80" y="600" width="170" height="40" as="geometry"/>
                </mxCell>
                <mxCell id="sxyrtl5exo0g-DPpmVb_-41" style="edgeStyle=orthogonalEdgeStyle;rounded=1;orthogonalLoop=1;jettySize=auto;html=1;entryX=0.5;entryY=1;entryDx=0;entryDy=0;dashed=1;dashPattern=1 1;fontFamily=Helvetica;fontSize=12;fontColor=#383838;endArrow=none;endFill=0;strokeWidth=2;" parent="1" source="sxyrtl5exo0g-DPpmVb_-42" target="sxyrtl5exo0g-DPpmVb_-32" edge="1">
                    <mxGeometry relative="1" as="geometry"/>
                </mxCell>
                <mxCell id="sxyrtl5exo0g-DPpmVb_-42" value="" style="shape=curlyBracket;whiteSpace=wrap;html=1;rounded=1;comic=0;fontFamily=Helvetica;fontSize=12;fontColor=#383838;strokeColor=default;strokeWidth=2;fillColor=default;rotation=90;" parent="1" vertex="1">
                    <mxGeometry x="155" y="515" width="20" height="170" as="geometry"/>
                </mxCell>
                <mxCell id="sxyrtl5exo0g-DPpmVb_-43" value="The Service Module begins building out the Kubernetes deployments using the argocd-application resource module." style="text;html=1;strokeColor=none;fillColor=none;align=center;verticalAlign=middle;whiteSpace=wrap;rounded=0;fontFamily=Helvetica;fontColor=#666666;spacingLeft=0;spacingRight=0;" parent="1" vertex="1">
                    <mxGeometry x="130" y="293.16" width="220" height="50" as="geometry"/>
                </mxCell>
                <mxCell id="sxyrtl5exo0g-DPpmVb_-44" style="edgeStyle=orthogonalEdgeStyle;rounded=1;orthogonalLoop=1;jettySize=auto;html=1;entryX=0.5;entryY=0;entryDx=0;entryDy=0;dashed=1;dashPattern=1 1;fontFamily=Helvetica;fontSize=12;fontColor=#383838;endArrow=none;endFill=0;strokeWidth=2;" parent="1" source="sxyrtl5exo0g-DPpmVb_-45" target="sxyrtl5exo0g-DPpmVb_-27" edge="1">
                    <mxGeometry relative="1" as="geometry"/>
                </mxCell>
                <mxCell id="sxyrtl5exo0g-DPpmVb_-45" value="" style="shape=curlyBracket;whiteSpace=wrap;html=1;rounded=1;flipH=1;comic=0;fontFamily=Helvetica;fontSize=12;fontColor=#383838;strokeColor=default;strokeWidth=2;fillColor=default;rotation=90;" parent="1" vertex="1">
                    <mxGeometry x="230.00000000000003" y="230" width="20" height="224.31" as="geometry"/>
                </mxCell>
                <mxCell id="sxyrtl5exo0g-DPpmVb_-46" style="edgeStyle=orthogonalEdgeStyle;rounded=1;orthogonalLoop=1;jettySize=auto;html=1;entryX=0.5;entryY=0;entryDx=0;entryDy=0;dashed=1;dashPattern=1 1;fontFamily=Helvetica;fontSize=12;fontColor=#383838;endArrow=none;endFill=0;strokeWidth=2;strokeColor=#383838;" parent="1" source="sxyrtl5exo0g-DPpmVb_-53" target="sxyrtl5exo0g-DPpmVb_-28" edge="1">
                    <mxGeometry relative="1" as="geometry"/>
                </mxCell>
                <mxCell id="sxyrtl5exo0g-DPpmVb_-47" value="ArgoCD provisions an external-secret resource that references the database credentials stored in step &lt;b&gt;&lt;font color=&quot;#ae4132&quot;&gt;2&lt;/font&gt;&lt;/b&gt;&lt;b&gt;&lt;font color=&quot;#ae4132&quot;&gt;&lt;br&gt;&lt;/font&gt;&lt;/b&gt;" style="text;html=1;strokeColor=none;fillColor=none;align=center;verticalAlign=middle;whiteSpace=wrap;rounded=0;fontFamily=Helvetica;fontColor=#666666;" parent="1" vertex="1">
                    <mxGeometry x="690" y="429" width="220" height="60" as="geometry"/>
                </mxCell>
                <mxCell id="sxyrtl5exo0g-DPpmVb_-48" style="edgeStyle=orthogonalEdgeStyle;rounded=1;orthogonalLoop=1;jettySize=auto;html=1;entryX=1;entryY=0.5;entryDx=0;entryDy=0;dashed=1;dashPattern=1 1;fontFamily=Helvetica;fontSize=12;fontColor=#383838;endArrow=none;endFill=0;strokeWidth=2;" parent="1" source="sxyrtl5exo0g-DPpmVb_-49" target="sxyrtl5exo0g-DPpmVb_-50" edge="1">
                    <mxGeometry relative="1" as="geometry"/>
                </mxCell>
                <mxCell id="sxyrtl5exo0g-DPpmVb_-49" value="" style="shape=curlyBracket;whiteSpace=wrap;html=1;rounded=1;flipH=1;comic=0;fontFamily=Helvetica;fontSize=12;fontColor=#383838;strokeColor=default;strokeWidth=2;fillColor=default;rotation=-180;" parent="1" vertex="1">
                    <mxGeometry x="680" y="429" width="20" height="60" as="geometry"/>
                </mxCell>
                <mxCell id="sxyrtl5exo0g-DPpmVb_-55" value="The External Secrets Operator pulls the secret from HashiCorp Vault then stores it as a Kubernetes secret" style="text;html=1;strokeColor=none;fillColor=none;align=left;verticalAlign=middle;whiteSpace=wrap;rounded=0;fontFamily=Helvetica;fontColor=#666666;" parent="1" vertex="1">
                    <mxGeometry x="490" y="600" width="290" height="40" as="geometry"/>
                </mxCell>
                <mxCell id="sxyrtl5exo0g-DPpmVb_-56" style="edgeStyle=orthogonalEdgeStyle;rounded=1;orthogonalLoop=1;jettySize=auto;html=1;entryX=0.5;entryY=1;entryDx=0;entryDy=0;dashed=1;dashPattern=1 1;fontFamily=Helvetica;fontSize=12;fontColor=#666666;endArrow=none;endFill=0;strokeColor=#383838;strokeWidth=2;" parent="1" source="sxyrtl5exo0g-DPpmVb_-57" target="sxyrtl5exo0g-DPpmVb_-34" edge="1">
                    <mxGeometry relative="1" as="geometry"/>
                </mxCell>
                <mxCell id="sxyrtl5exo0g-DPpmVb_-57" value="" style="shape=curlyBracket;whiteSpace=wrap;html=1;rounded=1;flipH=1;comic=0;fontFamily=Helvetica;fontSize=12;fontColor=#666666;strokeColor=#383838;strokeWidth=2;fillColor=none;" parent="1" vertex="1">
                    <mxGeometry x="770" y="600" width="20" height="40" as="geometry"/>
                </mxCell>
                <mxCell id="sxyrtl5exo0g-DPpmVb_-62" value="" style="edgeStyle=orthogonalEdgeStyle;rounded=0;orthogonalLoop=1;jettySize=auto;html=1;endArrow=none;" parent="1" source="sxyrtl5exo0g-DPpmVb_-8" target="sxyrtl5exo0g-DPpmVb_-61" edge="1">
                    <mxGeometry relative="1" as="geometry">
                        <mxPoint x="780" y="378.9999999999999" as="sourcePoint"/>
                        <mxPoint x="900" y="378.9999999999999" as="targetPoint"/>
                    </mxGeometry>
                </mxCell>
                <mxCell id="sxyrtl5exo0g-DPpmVb_-52" value="&lt;font color=&quot;#666666&quot;&gt;The argocd-application resource module deploys the ArgoCD &lt;i&gt;Application&lt;/i&gt;&amp;nbsp;manifest used to provision the service&lt;/font&gt;" style="text;html=1;strokeColor=none;fillColor=none;align=center;verticalAlign=middle;whiteSpace=wrap;rounded=1;fontFamily=Helvetica;strokeWidth=2;arcSize=9;" parent="1" vertex="1">
                    <mxGeometry x="420" y="200.25" width="240" height="49" as="geometry"/>
                </mxCell>
                <mxCell id="sxyrtl5exo0g-DPpmVb_-53" value="" style="shape=curlyBracket;whiteSpace=wrap;html=1;rounded=1;flipH=1;comic=0;fontFamily=Helvetica;fontSize=12;fontColor=#383838;strokeColor=#383838;strokeWidth=2;fillColor=default;rotation=90;" parent="1" vertex="1">
                    <mxGeometry x="529.75" y="130" width="19.23" height="239" as="geometry"/>
                </mxCell>
                <mxCell id="sxyrtl5exo0g-DPpmVb_-8" value="ArgoCD Application" style="rounded=1;whiteSpace=wrap;html=1;" parent="1" vertex="1">
                    <mxGeometry x="600" y="359" width="120" height="40" as="geometry"/>
                </mxCell>
                <mxCell id="sxyrtl5exo0g-DPpmVb_-34" value="6" style="ellipse;whiteSpace=wrap;html=1;aspect=fixed;strokeWidth=3;fillColor=#AE4132;strokeColor=#ae4132;fontColor=#FFFFFF;fontFamily=Helvetica;" parent="1" vertex="1">
                    <mxGeometry x="850" y="530" width="20" height="20" as="geometry"/>
                </mxCell>
                <mxCell id="sxyrtl5exo0g-DPpmVb_-69" value="" style="edgeStyle=orthogonalEdgeStyle;orthogonalLoop=1;jettySize=auto;html=1;entryX=0.5;entryY=0;entryDx=0;entryDy=0;endArrow=none;" parent="1" source="sxyrtl5exo0g-DPpmVb_-8" target="sxyrtl5exo0g-DPpmVb_-50" edge="1">
                    <mxGeometry relative="1" as="geometry">
                        <mxPoint x="740" y="399" as="sourcePoint"/>
                        <mxPoint x="740" y="520" as="targetPoint"/>
                    </mxGeometry>
                </mxCell>
                <mxCell id="sxyrtl5exo0g-DPpmVb_-28" value="4" style="ellipse;whiteSpace=wrap;html=1;aspect=fixed;strokeWidth=3;fillColor=#AE4132;strokeColor=#ae4132;fontColor=#FFFFFF;fontFamily=Helvetica;" parent="1" vertex="1">
                    <mxGeometry x="530" y="369" width="20" height="20" as="geometry"/>
                </mxCell>
                <mxCell id="sxyrtl5exo0g-DPpmVb_-50" value="5" style="ellipse;whiteSpace=wrap;html=1;aspect=fixed;strokeWidth=3;fillColor=#AE4132;strokeColor=#ae4132;fontColor=#FFFFFF;fontFamily=Helvetica;" parent="1" vertex="1">
                    <mxGeometry x="650" y="449" width="20" height="20" as="geometry"/>
                </mxCell>
                <mxCell id="sxyrtl5exo0g-DPpmVb_-59" value="ArgoCD provisions the remainder of the manifests and waits for the resource statuses to show ready." style="text;html=1;strokeColor=none;fillColor=none;align=center;verticalAlign=middle;whiteSpace=wrap;rounded=0;fontFamily=Helvetica;fontColor=#666666;" parent="1" vertex="1">
                    <mxGeometry x="580" y="280" width="280" height="40" as="geometry"/>
                </mxCell>
                <mxCell id="sxyrtl5exo0g-DPpmVb_-72" style="edgeStyle=orthogonalEdgeStyle;rounded=1;orthogonalLoop=1;jettySize=auto;html=1;entryX=0.5;entryY=0;entryDx=0;entryDy=0;dashed=1;dashPattern=1 1;fontFamily=Helvetica;fontSize=12;fontColor=#666666;endArrow=none;endFill=0;strokeColor=#383838;strokeWidth=2;" parent="1" source="sxyrtl5exo0g-DPpmVb_-60" target="sxyrtl5exo0g-DPpmVb_-61" edge="1">
                    <mxGeometry relative="1" as="geometry"/>
                </mxCell>
                <mxCell id="sxyrtl5exo0g-DPpmVb_-60" value="" style="shape=curlyBracket;whiteSpace=wrap;html=1;rounded=1;flipH=1;comic=0;fontFamily=Helvetica;fontSize=12;fontColor=#666666;strokeColor=#383838;strokeWidth=2;fillColor=none;rotation=90;" parent="1" vertex="1">
                    <mxGeometry x="710" y="180" width="20" height="280.77" as="geometry"/>
                </mxCell>
                <mxCell id="sxyrtl5exo0g-DPpmVb_-61" value="7" style="ellipse;whiteSpace=wrap;html=1;aspect=fixed;strokeWidth=3;fillColor=#AE4132;strokeColor=#ae4132;fontColor=#FFFFFF;fontFamily=Helvetica;" parent="1" vertex="1">
                    <mxGeometry x="790" y="369" width="20" height="20" as="geometry"/>
                </mxCell>
                <mxCell id="sxyrtl5exo0g-DPpmVb_-32" value="2" style="ellipse;whiteSpace=wrap;html=1;aspect=fixed;strokeWidth=3;fillColor=#AE4132;strokeColor=#ae4132;fontColor=#FFFFFF;fontFamily=Helvetica;" parent="1" vertex="1">
                    <mxGeometry x="210" y="530" width="20" height="20" as="geometry"/>
                </mxCell>
                <mxCell id="sxyrtl5exo0g-DPpmVb_-38" value="1" style="ellipse;whiteSpace=wrap;html=1;aspect=fixed;strokeWidth=3;fillColor=#AE4132;strokeColor=#ae4132;fontColor=#FFFFFF;fontFamily=Helvetica;" parent="1" vertex="1">
                    <mxGeometry x="70" y="449.5" width="20" height="20" as="geometry"/>
                </mxCell>
                <mxCell id="sxyrtl5exo0g-DPpmVb_-27" value="3" style="ellipse;whiteSpace=wrap;html=1;aspect=fixed;strokeWidth=3;fillColor=#AE4132;strokeColor=#ae4132;fontColor=#FFFFFF;fontFamily=Helvetica;" parent="1" vertex="1">
                    <mxGeometry x="230" y="369" width="20" height="20" as="geometry"/>
                </mxCell>
                <mxCell id="sxyrtl5exo0g-DPpmVb_-74" value="" style="edgeStyle=orthogonalEdgeStyle;orthogonalLoop=1;jettySize=auto;html=1;endArrow=none;" parent="1" source="sxyrtl5exo0g-DPpmVb_-4" target="sxyrtl5exo0g-DPpmVb_-27" edge="1">
                    <mxGeometry relative="1" as="geometry">
                        <mxPoint x="180" y="379" as="sourcePoint"/>
                        <mxPoint x="440" y="379" as="targetPoint"/>
                    </mxGeometry>
                </mxCell>
                <mxCell id="GsNrSVAePoyZ-z0ohy2C-4" style="edgeStyle=orthogonalEdgeStyle;rounded=1;orthogonalLoop=1;jettySize=auto;html=1;dashed=1;dashPattern=1 1;fontFamily=Helvetica;fontSize=12;fontColor=#666666;endArrow=none;endFill=0;strokeColor=#383838;strokeWidth=2;" parent="1" source="GsNrSVAePoyZ-z0ohy2C-1" edge="1">
                    <mxGeometry relative="1" as="geometry">
                        <mxPoint x="420" y="455" as="targetPoint"/>
                    </mxGeometry>
                </mxCell>
                <mxCell id="GsNrSVAePoyZ-z0ohy2C-1" value="" style="shape=curlyBracket;whiteSpace=wrap;html=1;rounded=1;comic=0;fontFamily=Helvetica;fontSize=12;fontColor=#666666;strokeColor=#383838;strokeWidth=2;fillColor=none;size=0.5;" parent="1" vertex="1">
                    <mxGeometry x="440" y="420" width="20" height="70" as="geometry"/>
                </mxCell>
                <mxCell id="GsNrSVAePoyZ-z0ohy2C-5" style="edgeStyle=orthogonalEdgeStyle;rounded=1;orthogonalLoop=1;jettySize=auto;html=1;dashed=1;dashPattern=1 1;fontFamily=Helvetica;fontSize=12;fontColor=#666666;endArrow=none;endFill=0;strokeColor=#383838;strokeWidth=2;" parent="1" source="GsNrSVAePoyZ-z0ohy2C-2" edge="1">
                    <mxGeometry relative="1" as="geometry">
                        <mxPoint x="545" y="540" as="targetPoint"/>
                    </mxGeometry>
                </mxCell>
                <mxCell id="GsNrSVAePoyZ-z0ohy2C-2" value="" style="shape=curlyBracket;whiteSpace=wrap;html=1;rounded=1;comic=0;fontFamily=Helvetica;fontSize=12;fontColor=#666666;strokeColor=#383838;strokeWidth=2;fillColor=none;size=0.5;direction=north;" parent="1" vertex="1">
                    <mxGeometry x="490" y="500" width="110" height="20" as="geometry"/>
                </mxCell>
                <mxCell id="GsNrSVAePoyZ-z0ohy2C-3" value="&lt;span style=&quot;color: rgb(102, 102, 102); text-align: left;&quot;&gt;The Service Module begins building out the database using an appropriate AWS Database Infrastructure Module&lt;/span&gt;" style="text;html=1;strokeColor=#23445d;fillColor=none;align=center;verticalAlign=middle;whiteSpace=wrap;rounded=0;fontFamily=Helvetica;fontSize=12;perimeter=rectanglePerimeter;collapsible=0;comic=0;absoluteArcSize=0;" parent="1" vertex="1">
                    <mxGeometry x="460" y="420" width="140" height="80" as="geometry">
                        <mxRectangle x="160" y="220" width="630" height="20" as="alternateBounds"/>
                    </mxGeometry>
                </mxCell>
                <mxCell id="GsNrSVAePoyZ-z0ohy2C-6" value="&lt;h1&gt;Step 1&lt;/h1&gt;&lt;p&gt;The Service Module begins building out the database using an appropriate AWS Database Infrastructure Module&lt;br&gt;&lt;/p&gt;" style="text;html=1;strokeColor=none;fillColor=none;spacing=5;spacingTop=-20;whiteSpace=wrap;overflow=hidden;rounded=0;comic=0;fontFamily=Helvetica;fontSize=12;fontColor=#666666;" parent="1" vertex="1">
                    <mxGeometry x="70" y="660" width="190" height="120" as="geometry"/>
                </mxCell>
            </root>
        </mxGraphModel>
    </diagram>
    <diagram name="Copy of Page-4" id="Ln7CWbaceit3uyVZU0Cq">
        <mxGraphModel grid="1" gridSize="10" guides="0" tooltips="1" connect="1" arrows="1" page="1" fold="1" pageScale="1" pageWidth="1100" pageHeight="850" math="0" shadow="0">
            <root>
                <mxCell id="63vHzTUzZNFs-he-DJuR-0"/>
                <mxCell id="63vHzTUzZNFs-he-DJuR-1" parent="63vHzTUzZNFs-he-DJuR-0"/>
                <mxCell id="63vHzTUzZNFs-he-DJuR-2" value="" style="rounded=1;whiteSpace=wrap;html=1;fontFamily=Helvetica;strokeWidth=2;fillColor=none;strokeColor=#10739e;dashed=1;" parent="63vHzTUzZNFs-he-DJuR-1" vertex="1">
                    <mxGeometry x="920" y="140" width="160" height="400" as="geometry"/>
                </mxCell>
                <mxCell id="63vHzTUzZNFs-he-DJuR-3" style="edgeStyle=orthogonalEdgeStyle;orthogonalLoop=1;jettySize=auto;html=1;startArrow=none;" parent="63vHzTUzZNFs-he-DJuR-1" source="63vHzTUzZNFs-he-DJuR-61" target="63vHzTUzZNFs-he-DJuR-17" edge="1">
                    <mxGeometry relative="1" as="geometry"/>
                </mxCell>
                <mxCell id="63vHzTUzZNFs-he-DJuR-4" style="edgeStyle=orthogonalEdgeStyle;orthogonalLoop=1;jettySize=auto;html=1;startArrow=none;" parent="63vHzTUzZNFs-he-DJuR-1" source="63vHzTUzZNFs-he-DJuR-62" target="63vHzTUzZNFs-he-DJuR-19" edge="1">
                    <mxGeometry relative="1" as="geometry"/>
                </mxCell>
                <mxCell id="63vHzTUzZNFs-he-DJuR-5" value="Terraform&lt;br&gt;Service Module" style="rounded=1;whiteSpace=wrap;html=1;fillColor=default;strokeColor=#b46504;strokeWidth=3;" parent="63vHzTUzZNFs-he-DJuR-1" vertex="1">
                    <mxGeometry x="20" y="199" width="120" height="40" as="geometry"/>
                </mxCell>
                <mxCell id="63vHzTUzZNFs-he-DJuR-6" style="edgeStyle=orthogonalEdgeStyle;rounded=1;orthogonalLoop=1;jettySize=auto;html=1;startArrow=none;entryX=0;entryY=0.5;entryDx=0;entryDy=0;" parent="63vHzTUzZNFs-he-DJuR-1" source="63vHzTUzZNFs-he-DJuR-59" target="63vHzTUzZNFs-he-DJuR-12" edge="1">
                    <mxGeometry relative="1" as="geometry">
                        <Array as="points">
                            <mxPoint x="900" y="219"/>
                            <mxPoint x="900" y="259"/>
                        </Array>
                    </mxGeometry>
                </mxCell>
                <mxCell id="63vHzTUzZNFs-he-DJuR-7" style="edgeStyle=orthogonalEdgeStyle;orthogonalLoop=1;jettySize=auto;html=1;entryX=0;entryY=0.5;entryDx=0;entryDy=0;startArrow=none;" parent="63vHzTUzZNFs-he-DJuR-1" source="63vHzTUzZNFs-he-DJuR-59" target="63vHzTUzZNFs-he-DJuR-13" edge="1">
                    <mxGeometry relative="1" as="geometry">
                        <Array as="points">
                            <mxPoint x="900" y="219"/>
                            <mxPoint x="900" y="180"/>
                        </Array>
                    </mxGeometry>
                </mxCell>
                <mxCell id="63vHzTUzZNFs-he-DJuR-8" style="edgeStyle=orthogonalEdgeStyle;orthogonalLoop=1;jettySize=auto;html=1;entryX=0.5;entryY=0;entryDx=0;entryDy=0;startArrow=none;" parent="63vHzTUzZNFs-he-DJuR-1" source="63vHzTUzZNFs-he-DJuR-55" target="63vHzTUzZNFs-he-DJuR-21" edge="1">
                    <mxGeometry relative="1" as="geometry"/>
                </mxCell>
                <mxCell id="63vHzTUzZNFs-he-DJuR-9" style="edgeStyle=orthogonalEdgeStyle;orthogonalLoop=1;jettySize=auto;html=1;entryX=0;entryY=0.5;entryDx=0;entryDy=0;dashed=1;endArrow=none;endFill=0;" parent="63vHzTUzZNFs-he-DJuR-1" source="63vHzTUzZNFs-he-DJuR-10" target="63vHzTUzZNFs-he-DJuR-21" edge="1">
                    <mxGeometry relative="1" as="geometry"/>
                </mxCell>
                <mxCell id="63vHzTUzZNFs-he-DJuR-10" value="Vault Secret" style="rounded=1;whiteSpace=wrap;html=1;" parent="63vHzTUzZNFs-he-DJuR-1" vertex="1">
                    <mxGeometry x="340" y="360" width="120" height="40" as="geometry"/>
                </mxCell>
                <mxCell id="63vHzTUzZNFs-he-DJuR-11" value="AWS Database" style="rounded=1;whiteSpace=wrap;html=1;" parent="63vHzTUzZNFs-he-DJuR-1" vertex="1">
                    <mxGeometry x="940" y="480" width="120" height="40" as="geometry"/>
                </mxCell>
                <mxCell id="63vHzTUzZNFs-he-DJuR-12" value="App Service" style="rounded=1;whiteSpace=wrap;html=1;" parent="63vHzTUzZNFs-he-DJuR-1" vertex="1">
                    <mxGeometry x="940" y="239" width="120" height="40" as="geometry"/>
                </mxCell>
                <mxCell id="63vHzTUzZNFs-he-DJuR-13" value="App Ingress" style="rounded=1;whiteSpace=wrap;html=1;" parent="63vHzTUzZNFs-he-DJuR-1" vertex="1">
                    <mxGeometry x="940" y="160" width="120" height="40" as="geometry"/>
                </mxCell>
                <mxCell id="63vHzTUzZNFs-he-DJuR-14" value="App Secret" style="rounded=1;whiteSpace=wrap;html=1;" parent="63vHzTUzZNFs-he-DJuR-1" vertex="1">
                    <mxGeometry x="940" y="360" width="120" height="40" as="geometry"/>
                </mxCell>
                <mxCell id="63vHzTUzZNFs-he-DJuR-15" style="edgeStyle=orthogonalEdgeStyle;orthogonalLoop=1;jettySize=auto;html=1;entryX=0;entryY=0.5;entryDx=0;entryDy=0;startArrow=none;" parent="63vHzTUzZNFs-he-DJuR-1" source="63vHzTUzZNFs-he-DJuR-60" target="63vHzTUzZNFs-he-DJuR-10" edge="1">
                    <mxGeometry relative="1" as="geometry">
                        <mxPoint x="230" y="380" as="sourcePoint"/>
                    </mxGeometry>
                </mxCell>
                <mxCell id="63vHzTUzZNFs-he-DJuR-16" style="edgeStyle=orthogonalEdgeStyle;orthogonalLoop=1;jettySize=auto;html=1;entryX=0;entryY=0.5;entryDx=0;entryDy=0;startArrow=none;exitX=1;exitY=0.5;exitDx=0;exitDy=0;" parent="63vHzTUzZNFs-he-DJuR-1" source="63vHzTUzZNFs-he-DJuR-60" target="63vHzTUzZNFs-he-DJuR-11" edge="1">
                    <mxGeometry relative="1" as="geometry">
                        <Array as="points">
                            <mxPoint x="280" y="380"/>
                            <mxPoint x="280" y="500"/>
                        </Array>
                    </mxGeometry>
                </mxCell>
                <mxCell id="63vHzTUzZNFs-he-DJuR-17" value="Terraform&lt;br&gt;Infrastructure Module" style="rounded=1;whiteSpace=wrap;html=1;fillColor=default;strokeColor=#0e8088;strokeWidth=3;" parent="63vHzTUzZNFs-he-DJuR-1" vertex="1">
                    <mxGeometry x="20" y="360" width="120" height="40" as="geometry"/>
                </mxCell>
                <mxCell id="63vHzTUzZNFs-he-DJuR-18" style="edgeStyle=orthogonalEdgeStyle;orthogonalLoop=1;jettySize=auto;html=1;entryX=0;entryY=0.5;entryDx=0;entryDy=0;startArrow=none;" parent="63vHzTUzZNFs-he-DJuR-1" source="63vHzTUzZNFs-he-DJuR-54" target="63vHzTUzZNFs-he-DJuR-51" edge="1">
                    <mxGeometry relative="1" as="geometry"/>
                </mxCell>
                <mxCell id="63vHzTUzZNFs-he-DJuR-19" value="Terraform&lt;br&gt;Resource Module" style="rounded=1;whiteSpace=wrap;html=1;fillColor=default;strokeColor=#10739e;strokeWidth=3;" parent="63vHzTUzZNFs-he-DJuR-1" vertex="1">
                    <mxGeometry x="340" y="199" width="120" height="40" as="geometry"/>
                </mxCell>
                <mxCell id="63vHzTUzZNFs-he-DJuR-20" style="edgeStyle=orthogonalEdgeStyle;orthogonalLoop=1;jettySize=auto;html=1;entryX=0;entryY=0.5;entryDx=0;entryDy=0;startArrow=none;" parent="63vHzTUzZNFs-he-DJuR-1" source="63vHzTUzZNFs-he-DJuR-52" target="63vHzTUzZNFs-he-DJuR-14" edge="1">
                    <mxGeometry relative="1" as="geometry"/>
                </mxCell>
                <mxCell id="63vHzTUzZNFs-he-DJuR-21" value="External Secret" style="rounded=1;whiteSpace=wrap;html=1;" parent="63vHzTUzZNFs-he-DJuR-1" vertex="1">
                    <mxGeometry x="600" y="360" width="120" height="40" as="geometry"/>
                </mxCell>
                <mxCell id="63vHzTUzZNFs-he-DJuR-22" style="edgeStyle=orthogonalEdgeStyle;orthogonalLoop=1;jettySize=auto;html=1;entryX=0.5;entryY=0;entryDx=0;entryDy=0;fontFamily=Helvetica;fontColor=#666666;endArrow=classic;endFill=1;strokeWidth=1;" parent="63vHzTUzZNFs-he-DJuR-1" source="63vHzTUzZNFs-he-DJuR-24" target="63vHzTUzZNFs-he-DJuR-5" edge="1">
                    <mxGeometry relative="1" as="geometry"/>
                </mxCell>
                <mxCell id="63vHzTUzZNFs-he-DJuR-24" value="Service&lt;br&gt;Helm Chart" style="rounded=1;whiteSpace=wrap;html=1;" parent="63vHzTUzZNFs-he-DJuR-1" vertex="1">
                    <mxGeometry x="20" y="40" width="120" height="40" as="geometry"/>
                </mxCell>
                <mxCell id="63vHzTUzZNFs-he-DJuR-25" value="" style="edgeStyle=orthogonalEdgeStyle;orthogonalLoop=1;jettySize=auto;html=1;endArrow=none;" parent="63vHzTUzZNFs-he-DJuR-1" source="63vHzTUzZNFs-he-DJuR-5" target="63vHzTUzZNFs-he-DJuR-61" edge="1">
                    <mxGeometry relative="1" as="geometry">
                        <mxPoint x="120" y="239.0000000000001" as="sourcePoint"/>
                        <mxPoint x="120" y="319.0000000000001" as="targetPoint"/>
                    </mxGeometry>
                </mxCell>
                <mxCell id="63vHzTUzZNFs-he-DJuR-26" value="" style="edgeStyle=orthogonalEdgeStyle;orthogonalLoop=1;jettySize=auto;html=1;entryX=0;entryY=0.5;entryDx=0;entryDy=0;endArrow=none;" parent="63vHzTUzZNFs-he-DJuR-1" source="63vHzTUzZNFs-he-DJuR-17" edge="1">
                    <mxGeometry relative="1" as="geometry">
                        <mxPoint x="180" y="380" as="sourcePoint"/>
                        <mxPoint x="209.99999999998886" y="380.0000000000002" as="targetPoint"/>
                    </mxGeometry>
                </mxCell>
                <mxCell id="63vHzTUzZNFs-he-DJuR-27" value="" style="edgeStyle=orthogonalEdgeStyle;orthogonalLoop=1;jettySize=auto;html=1;entryX=0;entryY=0.5;entryDx=0;entryDy=0;endArrow=none;" parent="63vHzTUzZNFs-he-DJuR-1" source="63vHzTUzZNFs-he-DJuR-19" target="63vHzTUzZNFs-he-DJuR-54" edge="1">
                    <mxGeometry relative="1" as="geometry">
                        <mxPoint x="580" y="219" as="sourcePoint"/>
                        <mxPoint x="660" y="219" as="targetPoint"/>
                    </mxGeometry>
                </mxCell>
                <mxCell id="63vHzTUzZNFs-he-DJuR-28" value="" style="edgeStyle=orthogonalEdgeStyle;orthogonalLoop=1;jettySize=auto;html=1;entryX=0;entryY=0.5;entryDx=0;entryDy=0;endArrow=none;" parent="63vHzTUzZNFs-he-DJuR-1" source="63vHzTUzZNFs-he-DJuR-51" target="63vHzTUzZNFs-he-DJuR-59" edge="1">
                    <mxGeometry relative="1" as="geometry">
                        <mxPoint x="780" y="219" as="sourcePoint"/>
                        <mxPoint x="900" y="99" as="targetPoint"/>
                    </mxGeometry>
                </mxCell>
                <mxCell id="63vHzTUzZNFs-he-DJuR-29" style="edgeStyle=orthogonalEdgeStyle;orthogonalLoop=1;jettySize=auto;html=1;entryX=0.5;entryY=1;entryDx=0;entryDy=0;dashed=1;fontFamily=Helvetica;fontColor=#666666;endArrow=none;endFill=0;strokeWidth=1;exitX=0.5;exitY=0;exitDx=0;exitDy=0;" parent="63vHzTUzZNFs-he-DJuR-1" source="63vHzTUzZNFs-he-DJuR-10" target="63vHzTUzZNFs-he-DJuR-19" edge="1">
                    <mxGeometry relative="1" as="geometry">
                        <Array as="points">
                            <mxPoint x="400" y="360"/>
                            <mxPoint x="400" y="239"/>
                        </Array>
                    </mxGeometry>
                </mxCell>
                <mxCell id="63vHzTUzZNFs-he-DJuR-30" value="" style="edgeStyle=orthogonalEdgeStyle;orthogonalLoop=1;jettySize=auto;html=1;entryX=0;entryY=0.5;entryDx=0;entryDy=0;startArrow=none;endArrow=none;" parent="63vHzTUzZNFs-he-DJuR-1" target="63vHzTUzZNFs-he-DJuR-60" edge="1">
                    <mxGeometry relative="1" as="geometry">
                        <mxPoint x="210" y="380.0000000000002" as="sourcePoint"/>
                        <mxPoint x="460" y="380" as="targetPoint"/>
                    </mxGeometry>
                </mxCell>
                <mxCell id="63vHzTUzZNFs-he-DJuR-31" value="" style="edgeStyle=orthogonalEdgeStyle;orthogonalLoop=1;jettySize=auto;html=1;entryX=0;entryY=0.5;entryDx=0;entryDy=0;endArrow=none;" parent="63vHzTUzZNFs-he-DJuR-1" source="63vHzTUzZNFs-he-DJuR-21" target="63vHzTUzZNFs-he-DJuR-52" edge="1">
                    <mxGeometry relative="1" as="geometry">
                        <mxPoint x="779.9999999999998" y="380" as="sourcePoint"/>
                        <mxPoint x="900" y="380" as="targetPoint"/>
                    </mxGeometry>
                </mxCell>
                <mxCell id="63vHzTUzZNFs-he-DJuR-39" style="edgeStyle=orthogonalEdgeStyle;rounded=1;orthogonalLoop=1;jettySize=auto;html=1;entryX=0.5;entryY=0;entryDx=0;entryDy=0;dashed=1;dashPattern=1 1;fontFamily=Helvetica;fontSize=12;fontColor=#383838;endArrow=none;endFill=0;strokeWidth=2;exitX=0.25;exitY=0.5;exitDx=0;exitDy=0;exitPerimeter=0;" parent="63vHzTUzZNFs-he-DJuR-1" source="ZlSCsTbGW8NDVPC3x_v2-12" target="63vHzTUzZNFs-he-DJuR-62" edge="1">
                    <mxGeometry relative="1" as="geometry">
                        <mxPoint x="230" y="110" as="sourcePoint"/>
                        <Array as="points">
                            <mxPoint x="230" y="133"/>
                        </Array>
                    </mxGeometry>
                </mxCell>
                <mxCell id="63vHzTUzZNFs-he-DJuR-42" value="ArgoCD provisions an external-secret resource that references the database credentials stored in step &lt;b&gt;&lt;font color=&quot;#ae4132&quot;&gt;2&lt;/font&gt;&lt;/b&gt;&lt;b&gt;&lt;font color=&quot;#ae4132&quot;&gt;&lt;br&gt;&lt;/font&gt;&lt;/b&gt;" style="text;html=1;strokeColor=none;fillColor=none;align=center;verticalAlign=middle;whiteSpace=wrap;rounded=0;fontFamily=Helvetica;fontColor=#666666;" parent="63vHzTUzZNFs-he-DJuR-1" vertex="1">
                    <mxGeometry x="690" y="269" width="220" height="60" as="geometry"/>
                </mxCell>
                <mxCell id="63vHzTUzZNFs-he-DJuR-43" style="edgeStyle=orthogonalEdgeStyle;rounded=1;orthogonalLoop=1;jettySize=auto;html=1;entryX=1;entryY=0.5;entryDx=0;entryDy=0;dashed=1;dashPattern=1 1;fontFamily=Helvetica;fontSize=12;fontColor=#383838;endArrow=none;endFill=0;strokeWidth=2;" parent="63vHzTUzZNFs-he-DJuR-1" source="63vHzTUzZNFs-he-DJuR-44" target="63vHzTUzZNFs-he-DJuR-55" edge="1">
                    <mxGeometry relative="1" as="geometry"/>
                </mxCell>
                <mxCell id="63vHzTUzZNFs-he-DJuR-44" value="" style="shape=curlyBracket;whiteSpace=wrap;html=1;rounded=1;flipH=1;comic=0;fontFamily=Helvetica;fontSize=12;fontColor=#383838;strokeColor=default;strokeWidth=2;fillColor=default;rotation=-180;" parent="63vHzTUzZNFs-he-DJuR-1" vertex="1">
                    <mxGeometry x="680" y="269" width="20" height="60" as="geometry"/>
                </mxCell>
                <mxCell id="63vHzTUzZNFs-he-DJuR-45" value="The External Secrets Operator pulls the secret from HashiCorp Vault then stores it as a Kubernetes secret" style="text;html=1;strokeColor=none;fillColor=none;align=left;verticalAlign=middle;whiteSpace=wrap;rounded=0;fontFamily=Helvetica;fontColor=#666666;" parent="63vHzTUzZNFs-he-DJuR-1" vertex="1">
                    <mxGeometry x="490" y="440" width="290" height="40" as="geometry"/>
                </mxCell>
                <mxCell id="63vHzTUzZNFs-he-DJuR-46" style="edgeStyle=orthogonalEdgeStyle;rounded=1;orthogonalLoop=1;jettySize=auto;html=1;entryX=0.5;entryY=1;entryDx=0;entryDy=0;dashed=1;dashPattern=1 1;fontFamily=Helvetica;fontSize=12;fontColor=#666666;endArrow=none;endFill=0;strokeColor=#383838;strokeWidth=2;" parent="63vHzTUzZNFs-he-DJuR-1" source="63vHzTUzZNFs-he-DJuR-47" target="63vHzTUzZNFs-he-DJuR-52" edge="1">
                    <mxGeometry relative="1" as="geometry"/>
                </mxCell>
                <mxCell id="63vHzTUzZNFs-he-DJuR-47" value="" style="shape=curlyBracket;whiteSpace=wrap;html=1;rounded=1;flipH=1;comic=0;fontFamily=Helvetica;fontSize=12;fontColor=#666666;strokeColor=#383838;strokeWidth=2;fillColor=none;" parent="63vHzTUzZNFs-he-DJuR-1" vertex="1">
                    <mxGeometry x="770" y="440" width="20" height="40" as="geometry"/>
                </mxCell>
                <mxCell id="63vHzTUzZNFs-he-DJuR-48" value="" style="edgeStyle=orthogonalEdgeStyle;rounded=0;orthogonalLoop=1;jettySize=auto;html=1;endArrow=none;" parent="63vHzTUzZNFs-he-DJuR-1" source="63vHzTUzZNFs-he-DJuR-51" target="63vHzTUzZNFs-he-DJuR-59" edge="1">
                    <mxGeometry relative="1" as="geometry">
                        <mxPoint x="780" y="218.9999999999999" as="sourcePoint"/>
                        <mxPoint x="900" y="218.9999999999999" as="targetPoint"/>
                    </mxGeometry>
                </mxCell>
                <mxCell id="63vHzTUzZNFs-he-DJuR-51" value="ArgoCD Application" style="rounded=1;whiteSpace=wrap;html=1;" parent="63vHzTUzZNFs-he-DJuR-1" vertex="1">
                    <mxGeometry x="600" y="199" width="120" height="40" as="geometry"/>
                </mxCell>
                <mxCell id="63vHzTUzZNFs-he-DJuR-52" value="6" style="ellipse;whiteSpace=wrap;html=1;aspect=fixed;strokeWidth=3;fillColor=#AE4132;strokeColor=#ae4132;fontColor=#FFFFFF;fontFamily=Helvetica;" parent="63vHzTUzZNFs-he-DJuR-1" vertex="1">
                    <mxGeometry x="850" y="370" width="20" height="20" as="geometry"/>
                </mxCell>
                <mxCell id="63vHzTUzZNFs-he-DJuR-53" value="" style="edgeStyle=orthogonalEdgeStyle;orthogonalLoop=1;jettySize=auto;html=1;entryX=0.5;entryY=0;entryDx=0;entryDy=0;endArrow=none;" parent="63vHzTUzZNFs-he-DJuR-1" source="63vHzTUzZNFs-he-DJuR-51" target="63vHzTUzZNFs-he-DJuR-55" edge="1">
                    <mxGeometry relative="1" as="geometry">
                        <mxPoint x="740" y="239" as="sourcePoint"/>
                        <mxPoint x="740" y="360" as="targetPoint"/>
                    </mxGeometry>
                </mxCell>
                <mxCell id="vtVN-m-GAM5M-Wvnlm2n-8" style="edgeStyle=orthogonalEdgeStyle;html=1;entryX=0.25;entryY=0.5;entryDx=0;entryDy=0;entryPerimeter=0;fontSize=12;dashed=1;dashPattern=1 1;strokeWidth=2;endArrow=none;fontColor=#383838;endFill=0;exitX=0.5;exitY=0;exitDx=0;exitDy=0;" edge="1" parent="63vHzTUzZNFs-he-DJuR-1" source="63vHzTUzZNFs-he-DJuR-54" target="vtVN-m-GAM5M-Wvnlm2n-30">
                    <mxGeometry relative="1" as="geometry">
                        <Array as="points">
                            <mxPoint x="520" y="138"/>
                            <mxPoint x="554" y="138"/>
                        </Array>
                    </mxGeometry>
                </mxCell>
                <mxCell id="63vHzTUzZNFs-he-DJuR-54" value="4" style="ellipse;whiteSpace=wrap;html=1;aspect=fixed;strokeWidth=3;fillColor=#AE4132;strokeColor=#ae4132;fontColor=#FFFFFF;fontFamily=Helvetica;" parent="63vHzTUzZNFs-he-DJuR-1" vertex="1">
                    <mxGeometry x="510" y="209" width="20" height="20" as="geometry"/>
                </mxCell>
                <mxCell id="63vHzTUzZNFs-he-DJuR-55" value="5" style="ellipse;whiteSpace=wrap;html=1;aspect=fixed;strokeWidth=3;fillColor=#AE4132;strokeColor=#ae4132;fontColor=#FFFFFF;fontFamily=Helvetica;" parent="63vHzTUzZNFs-he-DJuR-1" vertex="1">
                    <mxGeometry x="650" y="289" width="20" height="20" as="geometry"/>
                </mxCell>
                <mxCell id="vtVN-m-GAM5M-Wvnlm2n-51" style="edgeStyle=orthogonalEdgeStyle;rounded=1;html=1;entryX=0.25;entryY=0.5;entryDx=0;entryDy=0;entryPerimeter=0;dashed=1;dashPattern=1 1;fontSize=12;fontColor=#383838;strokeWidth=2;endArrow=none;endFill=0;" edge="1" parent="63vHzTUzZNFs-he-DJuR-1" source="63vHzTUzZNFs-he-DJuR-59" target="vtVN-m-GAM5M-Wvnlm2n-21">
                    <mxGeometry relative="1" as="geometry">
                        <Array as="points">
                            <mxPoint x="800" y="88"/>
                            <mxPoint x="823" y="88"/>
                        </Array>
                    </mxGeometry>
                </mxCell>
                <mxCell id="63vHzTUzZNFs-he-DJuR-59" value="7" style="ellipse;whiteSpace=wrap;html=1;aspect=fixed;strokeWidth=3;fillColor=#AE4132;strokeColor=#ae4132;fontColor=#FFFFFF;fontFamily=Helvetica;" parent="63vHzTUzZNFs-he-DJuR-1" vertex="1">
                    <mxGeometry x="790" y="209" width="20" height="20" as="geometry"/>
                </mxCell>
                <mxCell id="ZlSCsTbGW8NDVPC3x_v2-9" style="edgeStyle=orthogonalEdgeStyle;rounded=1;orthogonalLoop=1;jettySize=auto;html=1;entryX=0.25;entryY=0.5;entryDx=0;entryDy=0;entryPerimeter=0;dashed=1;dashPattern=1 1;fontFamily=Helvetica;fontSize=20;fontColor=default;endArrow=none;endFill=0;strokeColor=#383838;strokeWidth=2;" parent="63vHzTUzZNFs-he-DJuR-1" source="63vHzTUzZNFs-he-DJuR-60" target="ZlSCsTbGW8NDVPC3x_v2-6" edge="1">
                    <mxGeometry relative="1" as="geometry">
                        <Array as="points">
                            <mxPoint x="220" y="440"/>
                        </Array>
                    </mxGeometry>
                </mxCell>
                <mxCell id="63vHzTUzZNFs-he-DJuR-60" value="2" style="ellipse;whiteSpace=wrap;html=1;aspect=fixed;strokeWidth=3;fillColor=#AE4132;strokeColor=#ae4132;fontColor=#FFFFFF;fontFamily=Helvetica;" parent="63vHzTUzZNFs-he-DJuR-1" vertex="1">
                    <mxGeometry x="210" y="370" width="20" height="20" as="geometry"/>
                </mxCell>
                <mxCell id="63vHzTUzZNFs-he-DJuR-61" value="1" style="ellipse;whiteSpace=wrap;html=1;aspect=fixed;strokeWidth=3;fillColor=#AE4132;strokeColor=#ae4132;fontColor=#FFFFFF;fontFamily=Helvetica;" parent="63vHzTUzZNFs-he-DJuR-1" vertex="1">
                    <mxGeometry x="70" y="289.5" width="20" height="20" as="geometry"/>
                </mxCell>
                <mxCell id="63vHzTUzZNFs-he-DJuR-62" value="3" style="ellipse;whiteSpace=wrap;html=1;aspect=fixed;strokeWidth=3;fillColor=#AE4132;strokeColor=#ae4132;fontColor=#FFFFFF;fontFamily=Helvetica;" parent="63vHzTUzZNFs-he-DJuR-1" vertex="1">
                    <mxGeometry x="220" y="209" width="20" height="20" as="geometry"/>
                </mxCell>
                <mxCell id="63vHzTUzZNFs-he-DJuR-63" value="" style="edgeStyle=orthogonalEdgeStyle;orthogonalLoop=1;jettySize=auto;html=1;endArrow=none;" parent="63vHzTUzZNFs-he-DJuR-1" source="63vHzTUzZNFs-he-DJuR-5" target="63vHzTUzZNFs-he-DJuR-62" edge="1">
                    <mxGeometry relative="1" as="geometry">
                        <mxPoint x="180" y="219" as="sourcePoint"/>
                        <mxPoint x="440" y="219" as="targetPoint"/>
                    </mxGeometry>
                </mxCell>
                <mxCell id="ZlSCsTbGW8NDVPC3x_v2-0" style="edgeStyle=orthogonalEdgeStyle;rounded=1;orthogonalLoop=1;jettySize=auto;html=1;entryX=1;entryY=0.5;entryDx=0;entryDy=0;dashed=1;dashPattern=1 1;fontFamily=Helvetica;fontSize=12;fontColor=#666666;endArrow=none;endFill=0;strokeColor=#383838;strokeWidth=2;exitX=0.25;exitY=0.5;exitDx=0;exitDy=0;exitPerimeter=0;" parent="63vHzTUzZNFs-he-DJuR-1" source="vtVN-m-GAM5M-Wvnlm2n-43" target="63vHzTUzZNFs-he-DJuR-61" edge="1">
                    <mxGeometry relative="1" as="geometry">
                        <mxPoint x="140" y="279.9999999999999" as="sourcePoint"/>
                    </mxGeometry>
                </mxCell>
                <mxCell id="ZlSCsTbGW8NDVPC3x_v2-5" value="&lt;p style=&quot;line-height: 0.9&quot;&gt;&lt;/p&gt;&lt;h1 style=&quot;text-align: right ; line-height: 0.2&quot;&gt;&lt;font style=&quot;line-height: 0.3 ; font-size: 16px&quot; color=&quot;#383838&quot;&gt;Deploy AWS Database&lt;/font&gt;&lt;/h1&gt;&lt;p style=&quot;text-align: right ; line-height: 1.1&quot;&gt;&lt;span style=&quot;text-align: center ; line-height: 1.2&quot;&gt;The database is built out and the database connection credentials are stored in Vault&lt;/span&gt;&lt;br&gt;&lt;/p&gt;&lt;p&gt;&lt;/p&gt;" style="text;html=1;strokeColor=none;fillColor=none;spacing=6;spacingTop=-20;whiteSpace=wrap;overflow=hidden;rounded=0;comic=0;fontFamily=Helvetica;fontSize=12;fontColor=#666666;perimeter=calloutPerimeter;verticalAlign=top;" parent="63vHzTUzZNFs-he-DJuR-1" vertex="1">
                    <mxGeometry x="10" y="420" width="190" height="70" as="geometry"/>
                </mxCell>
                <mxCell id="ZlSCsTbGW8NDVPC3x_v2-6" value="" style="line;strokeWidth=2;direction=south;html=1;rounded=1;comic=0;fontFamily=Helvetica;fontSize=12;fontColor=#666666;fillColor=none;strokeColor=#383838;" parent="63vHzTUzZNFs-he-DJuR-1" vertex="1">
                    <mxGeometry x="190" y="420" width="20" height="70" as="geometry"/>
                </mxCell>
                <mxCell id="vtVN-m-GAM5M-Wvnlm2n-0" value="" style="group" vertex="1" connectable="0" parent="63vHzTUzZNFs-he-DJuR-1">
                    <mxGeometry x="290" y="520" width="610" height="70" as="geometry"/>
                </mxCell>
                <mxCell id="ZlSCsTbGW8NDVPC3x_v2-13" value="&lt;p style=&quot;line-height: 0.9;&quot;&gt;&lt;b style=&quot;color: rgb(56, 56, 56); font-size: 12px;&quot;&gt;Note :&amp;nbsp;&lt;/b&gt;&lt;span style=&quot;color: rgb(56, 56, 56); font-size: 12px;&quot;&gt;In this example the ArgoCD Resource Hook:&amp;nbsp;&lt;/span&gt;&lt;i style=&quot;color: rgb(56, 56, 56); font-size: 12px;&quot;&gt;PreSync&lt;/i&gt;&lt;span style=&quot;color: rgb(56, 56, 56); font-size: 12px;&quot;&gt;&amp;nbsp;is used to ensure the database credentials are retrieved from Vault and stored as a Kubernetes secret prior to ArgoCD deploying the remaining manifests.&lt;/span&gt;&lt;/p&gt;" style="rounded=1;whiteSpace=wrap;html=1;comic=0;fontFamily=Helvetica;fontSize=20;strokeColor=#10739e;strokeWidth=4;fillColor=#b1ddf0;spacing=0;verticalAlign=middle;spacingTop=-6;" parent="vtVN-m-GAM5M-Wvnlm2n-0" vertex="1">
                    <mxGeometry x="10" y="10" width="600" height="60" as="geometry"/>
                </mxCell>
                <mxCell id="EeQSt2ToMcUSXGKFJQLM-0" value="&lt;font style=&quot;font-size: 22px;&quot;&gt;&lt;b&gt;!&lt;/b&gt;&lt;/font&gt;" style="ellipse;whiteSpace=wrap;html=1;aspect=fixed;strokeWidth=3;fillColor=#10739E;strokeColor=#10739e;fontFamily=Helvetica;fontColor=#FAFAFA;" parent="vtVN-m-GAM5M-Wvnlm2n-0" vertex="1">
                    <mxGeometry width="20" height="20" as="geometry"/>
                </mxCell>
                <mxCell id="vtVN-m-GAM5M-Wvnlm2n-19" value="" style="group;" vertex="1" connectable="0" parent="63vHzTUzZNFs-he-DJuR-1">
                    <mxGeometry x="810" y="70" width="280" height="70" as="geometry"/>
                </mxCell>
                <mxCell id="vtVN-m-GAM5M-Wvnlm2n-20" value="&lt;p style=&quot;line-height: 0.9&quot;&gt;&lt;/p&gt;&lt;h1 style=&quot;line-height: 0.2&quot;&gt;&lt;font style=&quot;line-height: 0 ; font-size: 16px&quot; color=&quot;#383838&quot;&gt;Provision Kubernetes Resources&lt;/font&gt;&lt;/h1&gt;&lt;p style=&quot;line-height: 1.1&quot;&gt;&lt;span style=&quot;text-align: center&quot;&gt;ArgoCD provisions the remainder of the manifests and waits for the resource statuses to show ready.&lt;/span&gt;&lt;br&gt;&lt;/p&gt;&lt;p&gt;&lt;/p&gt;" style="text;html=1;strokeColor=none;fillColor=none;spacing=6;spacingTop=-20;whiteSpace=wrap;overflow=hidden;rounded=0;comic=0;fontFamily=Helvetica;fontSize=12;fontColor=#666666;perimeter=calloutPerimeter;" vertex="1" parent="vtVN-m-GAM5M-Wvnlm2n-19">
                    <mxGeometry x="11.9" width="268.1" height="70" as="geometry"/>
                </mxCell>
                <mxCell id="vtVN-m-GAM5M-Wvnlm2n-21" value="" style="line;strokeWidth=2;direction=south;html=1;rounded=1;comic=0;fontFamily=Helvetica;fontSize=12;fontColor=#666666;fillColor=none;strokeColor=#383838;" vertex="1" parent="vtVN-m-GAM5M-Wvnlm2n-19">
                    <mxGeometry width="26.321428571428577" height="70" as="geometry"/>
                </mxCell>
                <mxCell id="vtVN-m-GAM5M-Wvnlm2n-39" value="" style="group" vertex="1" connectable="0" parent="63vHzTUzZNFs-he-DJuR-1">
                    <mxGeometry x="250" y="120" width="190" height="60" as="geometry"/>
                </mxCell>
                <mxCell id="ZlSCsTbGW8NDVPC3x_v2-12" value="" style="line;strokeWidth=2;direction=south;html=1;rounded=1;comic=0;fontFamily=Helvetica;fontSize=12;fontColor=#666666;fillColor=none;strokeColor=#383838;" parent="vtVN-m-GAM5M-Wvnlm2n-39" vertex="1">
                    <mxGeometry width="20" height="50" as="geometry"/>
                </mxCell>
                <mxCell id="vtVN-m-GAM5M-Wvnlm2n-38" value="&lt;p style=&quot;line-height: 0.9&quot;&gt;&lt;/p&gt;&lt;h1 style=&quot;line-height: 0.2&quot;&gt;&lt;span style=&quot;font-size: 12px ; font-weight: 400 ; line-height: 1&quot;&gt;The Service Module begins building out the Kubernetes deployments using the argocd-application resource module&lt;/span&gt;&lt;br&gt;&lt;/h1&gt;&lt;p&gt;&lt;/p&gt;" style="text;html=1;strokeColor=none;fillColor=none;spacing=6;spacingTop=-22;whiteSpace=wrap;overflow=hidden;rounded=0;comic=0;fontFamily=Helvetica;fontSize=12;fontColor=#666666;perimeter=calloutPerimeter;verticalAlign=middle;" vertex="1" parent="vtVN-m-GAM5M-Wvnlm2n-39">
                    <mxGeometry x="10" width="180" height="60" as="geometry"/>
                </mxCell>
                <mxCell id="vtVN-m-GAM5M-Wvnlm2n-44" value="" style="group" vertex="1" connectable="0" parent="63vHzTUzZNFs-he-DJuR-1">
                    <mxGeometry x="140" y="250" width="190" height="60" as="geometry"/>
                </mxCell>
                <mxCell id="vtVN-m-GAM5M-Wvnlm2n-40" value="&lt;p style=&quot;line-height: 0.9&quot;&gt;&lt;/p&gt;&lt;h1 style=&quot;line-height: 0.2&quot;&gt;&lt;span style=&quot;font-size: 12px ; font-weight: 400 ; line-height: 1&quot;&gt;The Service Module begins building out the database using an appropriate AWS Database Infrastructure Module&lt;/span&gt;&lt;br&gt;&lt;/h1&gt;&lt;p&gt;&lt;/p&gt;" style="text;html=1;strokeColor=none;fillColor=none;spacing=6;spacingTop=-22;whiteSpace=wrap;overflow=hidden;rounded=0;comic=0;fontFamily=Helvetica;fontSize=12;fontColor=#666666;perimeter=calloutPerimeter;verticalAlign=top;align=left;" vertex="1" parent="vtVN-m-GAM5M-Wvnlm2n-44">
                    <mxGeometry x="10" width="180" height="60" as="geometry"/>
                </mxCell>
                <mxCell id="vtVN-m-GAM5M-Wvnlm2n-43" value="" style="line;strokeWidth=2;direction=south;html=1;rounded=1;comic=0;fontFamily=Helvetica;fontSize=12;fontColor=#666666;fillColor=none;strokeColor=#383838;" vertex="1" parent="vtVN-m-GAM5M-Wvnlm2n-44">
                    <mxGeometry width="20" height="60" as="geometry"/>
                </mxCell>
                <mxCell id="vtVN-m-GAM5M-Wvnlm2n-29" value="&lt;p style=&quot;line-height: 0.9&quot;&gt;&lt;/p&gt;&lt;h1 style=&quot;line-height: 0.2&quot;&gt;&lt;font style=&quot;line-height: 0 ; font-size: 16px&quot; color=&quot;#383838&quot;&gt;Deploy ArgoCD Application&lt;/font&gt;&lt;/h1&gt;&lt;p style=&quot;line-height: 1.1&quot;&gt;&lt;span style=&quot;text-align: right&quot;&gt;The argocd-application resource module deploys the ArgoCD&amp;nbsp;&lt;/span&gt;&lt;i style=&quot;text-align: right&quot;&gt;Application&lt;/i&gt;&lt;span style=&quot;text-align: right&quot;&gt;&amp;nbsp;manifest used to provision the service&lt;/span&gt;&lt;br&gt;&lt;/p&gt;&lt;p&gt;&lt;/p&gt;" style="text;html=1;strokeColor=none;fillColor=none;spacing=6;spacingTop=-20;whiteSpace=wrap;overflow=hidden;rounded=0;comic=0;fontFamily=Helvetica;fontSize=12;fontColor=#666666;perimeter=calloutPerimeter;" vertex="1" parent="63vHzTUzZNFs-he-DJuR-1">
                    <mxGeometry x="552.86" y="110" width="237.14" height="70" as="geometry"/>
                </mxCell>
                <mxCell id="vtVN-m-GAM5M-Wvnlm2n-30" value="" style="line;strokeWidth=2;direction=south;html=1;rounded=1;comic=0;fontFamily=Helvetica;fontSize=12;fontColor=#666666;fillColor=none;strokeColor=#383838;" vertex="1" parent="63vHzTUzZNFs-he-DJuR-1">
                    <mxGeometry x="540" y="120" width="28.42714285714286" height="70" as="geometry"/>
                </mxCell>
            </root>
        </mxGraphModel>
    </diagram>
    <diagram name="Copy of Copy of Page-4" id="PnccK4oGcr-C0jIpNMZv">
        <mxGraphModel dx="1186" dy="758" grid="1" gridSize="10" guides="0" tooltips="1" connect="1" arrows="1" fold="1" page="1" pageScale="1" pageWidth="1100" pageHeight="850" math="0" shadow="0">
            <root>
                <mxCell id="VU6GoZOB2YiIonXrfP6k-0"/>
                <mxCell id="VU6GoZOB2YiIonXrfP6k-1" parent="VU6GoZOB2YiIonXrfP6k-0"/>
                <mxCell id="VU6GoZOB2YiIonXrfP6k-2" value="" style="rounded=1;whiteSpace=wrap;html=1;fontFamily=Helvetica;strokeWidth=2;fillColor=none;strokeColor=#10739e;dashed=1;" parent="VU6GoZOB2YiIonXrfP6k-1" vertex="1">
                    <mxGeometry x="760" y="180" width="160" height="330" as="geometry"/>
                </mxCell>
                <mxCell id="VU6GoZOB2YiIonXrfP6k-3" style="edgeStyle=orthogonalEdgeStyle;orthogonalLoop=1;jettySize=auto;html=1;startArrow=none;" parent="VU6GoZOB2YiIonXrfP6k-1" edge="1">
                    <mxGeometry relative="1" as="geometry">
                        <mxPoint x="80" y="360" as="targetPoint"/>
                    </mxGeometry>
                </mxCell>
                <mxCell id="rsrJLlBV53Do9k2laS6S-4" style="edgeStyle=orthogonalEdgeStyle;orthogonalLoop=1;jettySize=auto;html=1;entryX=0.5;entryY=0;entryDx=0;entryDy=0;endArrow=none;endFill=0;" parent="VU6GoZOB2YiIonXrfP6k-1" source="VU6GoZOB2YiIonXrfP6k-5" target="rsrJLlBV53Do9k2laS6S-0" edge="1">
                    <mxGeometry relative="1" as="geometry"/>
                </mxCell>
                <mxCell id="VU6GoZOB2YiIonXrfP6k-5" value="App Service Module" style="rounded=1;whiteSpace=wrap;html=1;fillColor=default;strokeColor=#b46504;strokeWidth=3;" parent="VU6GoZOB2YiIonXrfP6k-1" vertex="1">
                    <mxGeometry x="80" y="200" width="120" height="40" as="geometry"/>
                </mxCell>
                <mxCell id="VU6GoZOB2YiIonXrfP6k-8" style="edgeStyle=orthogonalEdgeStyle;orthogonalLoop=1;jettySize=auto;html=1;entryX=0.5;entryY=0;entryDx=0;entryDy=0;startArrow=none;" parent="VU6GoZOB2YiIonXrfP6k-1" source="VU6GoZOB2YiIonXrfP6k-44" target="VU6GoZOB2YiIonXrfP6k-21" edge="1">
                    <mxGeometry relative="1" as="geometry"/>
                </mxCell>
                <mxCell id="rsrJLlBV53Do9k2laS6S-13" style="edgeStyle=orthogonalEdgeStyle;orthogonalLoop=1;jettySize=auto;html=1;entryX=0;entryY=0.5;entryDx=0;entryDy=0;dashed=1;endArrow=none;endFill=0;strokeWidth=1;" parent="VU6GoZOB2YiIonXrfP6k-1" source="VU6GoZOB2YiIonXrfP6k-10" target="VU6GoZOB2YiIonXrfP6k-21" edge="1">
                    <mxGeometry relative="1" as="geometry"/>
                </mxCell>
                <mxCell id="VU6GoZOB2YiIonXrfP6k-10" value="Vault Secret" style="rounded=1;whiteSpace=wrap;html=1;" parent="VU6GoZOB2YiIonXrfP6k-1" vertex="1">
                    <mxGeometry x="180" y="350" width="120" height="40" as="geometry"/>
                </mxCell>
                <mxCell id="VU6GoZOB2YiIonXrfP6k-11" value="AWS Database" style="rounded=1;whiteSpace=wrap;html=1;" parent="VU6GoZOB2YiIonXrfP6k-1" vertex="1">
                    <mxGeometry x="780" y="450" width="120" height="40" as="geometry"/>
                </mxCell>
                <mxCell id="VU6GoZOB2YiIonXrfP6k-12" value="App Service" style="rounded=1;whiteSpace=wrap;html=1;" parent="VU6GoZOB2YiIonXrfP6k-1" vertex="1">
                    <mxGeometry x="780" y="280" width="120" height="40" as="geometry"/>
                </mxCell>
                <mxCell id="VU6GoZOB2YiIonXrfP6k-13" value="App Ingress" style="rounded=1;whiteSpace=wrap;html=1;" parent="VU6GoZOB2YiIonXrfP6k-1" vertex="1">
                    <mxGeometry x="780" y="200" width="120" height="40" as="geometry"/>
                </mxCell>
                <mxCell id="VU6GoZOB2YiIonXrfP6k-14" value="App Secret" style="rounded=1;whiteSpace=wrap;html=1;" parent="VU6GoZOB2YiIonXrfP6k-1" vertex="1">
                    <mxGeometry x="780" y="350" width="120" height="40" as="geometry"/>
                </mxCell>
                <mxCell id="VU6GoZOB2YiIonXrfP6k-16" style="edgeStyle=orthogonalEdgeStyle;orthogonalLoop=1;jettySize=auto;html=1;entryX=0;entryY=0.5;entryDx=0;entryDy=0;startArrow=none;exitX=0.5;exitY=1;exitDx=0;exitDy=0;" parent="VU6GoZOB2YiIonXrfP6k-1" source="rsrJLlBV53Do9k2laS6S-0" target="VU6GoZOB2YiIonXrfP6k-11" edge="1">
                    <mxGeometry relative="1" as="geometry">
                        <Array as="points">
                            <mxPoint x="140" y="470"/>
                        </Array>
                        <mxPoint x="140" y="390" as="sourcePoint"/>
                    </mxGeometry>
                </mxCell>
                <mxCell id="VU6GoZOB2YiIonXrfP6k-18" style="edgeStyle=orthogonalEdgeStyle;orthogonalLoop=1;jettySize=auto;html=1;entryX=0;entryY=0.5;entryDx=0;entryDy=0;startArrow=none;" parent="VU6GoZOB2YiIonXrfP6k-1" source="VU6GoZOB2YiIonXrfP6k-43" target="VU6GoZOB2YiIonXrfP6k-39" edge="1">
                    <mxGeometry relative="1" as="geometry"/>
                </mxCell>
                <mxCell id="VU6GoZOB2YiIonXrfP6k-20" style="edgeStyle=orthogonalEdgeStyle;orthogonalLoop=1;jettySize=auto;html=1;entryX=0;entryY=0.5;entryDx=0;entryDy=0;startArrow=none;" parent="VU6GoZOB2YiIonXrfP6k-1" source="VU6GoZOB2YiIonXrfP6k-40" target="VU6GoZOB2YiIonXrfP6k-14" edge="1">
                    <mxGeometry relative="1" as="geometry"/>
                </mxCell>
                <mxCell id="VU6GoZOB2YiIonXrfP6k-21" value="External Secret" style="rounded=1;whiteSpace=wrap;html=1;" parent="VU6GoZOB2YiIonXrfP6k-1" vertex="1">
                    <mxGeometry x="340" y="350" width="120" height="40" as="geometry"/>
                </mxCell>
                <mxCell id="VU6GoZOB2YiIonXrfP6k-26" value="" style="edgeStyle=orthogonalEdgeStyle;orthogonalLoop=1;jettySize=auto;html=1;entryX=0;entryY=0.5;entryDx=0;entryDy=0;endArrow=none;exitX=1;exitY=0.5;exitDx=0;exitDy=0;" parent="VU6GoZOB2YiIonXrfP6k-1" source="VU6GoZOB2YiIonXrfP6k-5" target="VU6GoZOB2YiIonXrfP6k-43" edge="1">
                    <mxGeometry relative="1" as="geometry">
                        <mxPoint x="260" y="229" as="sourcePoint"/>
                        <mxPoint x="460" y="229" as="targetPoint"/>
                    </mxGeometry>
                </mxCell>
                <mxCell id="VU6GoZOB2YiIonXrfP6k-27" value="" style="edgeStyle=orthogonalEdgeStyle;orthogonalLoop=1;jettySize=auto;html=1;entryX=0;entryY=0.5;entryDx=0;entryDy=0;endArrow=none;" parent="VU6GoZOB2YiIonXrfP6k-1" source="VU6GoZOB2YiIonXrfP6k-39" target="VU6GoZOB2YiIonXrfP6k-46" edge="1">
                    <mxGeometry relative="1" as="geometry">
                        <mxPoint x="580" y="229" as="sourcePoint"/>
                        <mxPoint x="700" y="109" as="targetPoint"/>
                    </mxGeometry>
                </mxCell>
                <mxCell id="VU6GoZOB2YiIonXrfP6k-30" value="" style="edgeStyle=orthogonalEdgeStyle;orthogonalLoop=1;jettySize=auto;html=1;entryX=0;entryY=0.5;entryDx=0;entryDy=0;endArrow=none;" parent="VU6GoZOB2YiIonXrfP6k-1" source="VU6GoZOB2YiIonXrfP6k-21" target="VU6GoZOB2YiIonXrfP6k-40" edge="1">
                    <mxGeometry relative="1" as="geometry">
                        <mxPoint x="579.9999999999998" y="390" as="sourcePoint"/>
                        <mxPoint x="700" y="390" as="targetPoint"/>
                    </mxGeometry>
                </mxCell>
                <mxCell id="VU6GoZOB2YiIonXrfP6k-36" style="edgeStyle=orthogonalEdgeStyle;rounded=1;orthogonalLoop=1;jettySize=auto;html=1;entryX=0.5;entryY=1;entryDx=0;entryDy=0;dashed=1;dashPattern=1 1;fontFamily=Helvetica;fontSize=12;fontColor=#666666;endArrow=none;endFill=0;strokeColor=#383838;strokeWidth=2;exitX=0.25;exitY=0.5;exitDx=0;exitDy=0;exitPerimeter=0;" parent="VU6GoZOB2YiIonXrfP6k-1" source="rsrJLlBV53Do9k2laS6S-26" target="VU6GoZOB2YiIonXrfP6k-40" edge="1">
                    <mxGeometry relative="1" as="geometry">
                        <mxPoint x="560" y="449.9999999999999" as="sourcePoint"/>
                    </mxGeometry>
                </mxCell>
                <mxCell id="VU6GoZOB2YiIonXrfP6k-38" value="" style="edgeStyle=orthogonalEdgeStyle;rounded=0;orthogonalLoop=1;jettySize=auto;html=1;endArrow=none;" parent="VU6GoZOB2YiIonXrfP6k-1" source="VU6GoZOB2YiIonXrfP6k-39" target="VU6GoZOB2YiIonXrfP6k-46" edge="1">
                    <mxGeometry relative="1" as="geometry">
                        <mxPoint x="580" y="228.9999999999999" as="sourcePoint"/>
                        <mxPoint x="700" y="228.9999999999999" as="targetPoint"/>
                    </mxGeometry>
                </mxCell>
                <mxCell id="VU6GoZOB2YiIonXrfP6k-39" value="ArgoCD Application" style="rounded=1;whiteSpace=wrap;html=1;" parent="VU6GoZOB2YiIonXrfP6k-1" vertex="1">
                    <mxGeometry x="340" y="200" width="120" height="40" as="geometry"/>
                </mxCell>
                <mxCell id="VU6GoZOB2YiIonXrfP6k-40" value="4" style="ellipse;whiteSpace=wrap;html=1;aspect=fixed;strokeWidth=3;fillColor=#AE4132;strokeColor=#ae4132;fontColor=#FFFFFF;fontFamily=Helvetica;" parent="VU6GoZOB2YiIonXrfP6k-1" vertex="1">
                    <mxGeometry x="580" y="360" width="20" height="20" as="geometry"/>
                </mxCell>
                <mxCell id="VU6GoZOB2YiIonXrfP6k-41" value="" style="edgeStyle=orthogonalEdgeStyle;orthogonalLoop=1;jettySize=auto;html=1;entryX=0.5;entryY=0;entryDx=0;entryDy=0;endArrow=none;" parent="VU6GoZOB2YiIonXrfP6k-1" source="VU6GoZOB2YiIonXrfP6k-39" target="VU6GoZOB2YiIonXrfP6k-44" edge="1">
                    <mxGeometry relative="1" as="geometry">
                        <mxPoint x="540" y="249" as="sourcePoint"/>
                        <mxPoint x="540" y="370" as="targetPoint"/>
                    </mxGeometry>
                </mxCell>
                <mxCell id="VU6GoZOB2YiIonXrfP6k-42" style="edgeStyle=orthogonalEdgeStyle;html=1;entryX=0.25;entryY=0.5;entryDx=0;entryDy=0;entryPerimeter=0;fontSize=12;dashed=1;dashPattern=1 1;strokeWidth=2;endArrow=none;fontColor=#383838;endFill=0;exitX=0.5;exitY=0;exitDx=0;exitDy=0;" parent="VU6GoZOB2YiIonXrfP6k-1" source="VU6GoZOB2YiIonXrfP6k-43" target="VU6GoZOB2YiIonXrfP6k-68" edge="1">
                    <mxGeometry relative="1" as="geometry">
                        <Array as="points">
                            <mxPoint x="280" y="138"/>
                        </Array>
                    </mxGeometry>
                </mxCell>
                <mxCell id="VU6GoZOB2YiIonXrfP6k-43" value="2" style="ellipse;whiteSpace=wrap;html=1;aspect=fixed;strokeWidth=3;fillColor=#AE4132;strokeColor=#ae4132;fontColor=#FFFFFF;fontFamily=Helvetica;" parent="VU6GoZOB2YiIonXrfP6k-1" vertex="1">
                    <mxGeometry x="270" y="210" width="20" height="20" as="geometry"/>
                </mxCell>
                <mxCell id="rsrJLlBV53Do9k2laS6S-23" style="edgeStyle=orthogonalEdgeStyle;orthogonalLoop=1;jettySize=auto;html=1;entryX=0.25;entryY=0.5;entryDx=0;entryDy=0;entryPerimeter=0;dashed=1;endArrow=none;endFill=0;strokeWidth=2;fontSize=12;fontColor=#383838;dashPattern=1 1;" parent="VU6GoZOB2YiIonXrfP6k-1" source="VU6GoZOB2YiIonXrfP6k-44" target="rsrJLlBV53Do9k2laS6S-18" edge="1">
                    <mxGeometry relative="1" as="geometry"/>
                </mxCell>
                <mxCell id="VU6GoZOB2YiIonXrfP6k-44" value="3" style="ellipse;whiteSpace=wrap;html=1;aspect=fixed;strokeWidth=3;fillColor=#AE4132;strokeColor=#ae4132;fontColor=#FFFFFF;fontFamily=Helvetica;" parent="VU6GoZOB2YiIonXrfP6k-1" vertex="1">
                    <mxGeometry x="390" y="299" width="20" height="20" as="geometry"/>
                </mxCell>
                <mxCell id="VU6GoZOB2YiIonXrfP6k-45" style="edgeStyle=orthogonalEdgeStyle;rounded=1;html=1;entryX=0.25;entryY=0.5;entryDx=0;entryDy=0;entryPerimeter=0;dashed=1;dashPattern=1 1;fontSize=12;fontColor=#383838;strokeWidth=2;endArrow=none;endFill=0;" parent="VU6GoZOB2YiIonXrfP6k-1" source="VU6GoZOB2YiIonXrfP6k-46" target="VU6GoZOB2YiIonXrfP6k-60" edge="1">
                    <mxGeometry relative="1" as="geometry">
                        <Array as="points">
                            <mxPoint x="540" y="138"/>
                            <mxPoint x="573" y="138"/>
                        </Array>
                    </mxGeometry>
                </mxCell>
                <mxCell id="rsrJLlBV53Do9k2laS6S-31" style="edgeStyle=orthogonalEdgeStyle;orthogonalLoop=1;jettySize=auto;html=1;entryX=0;entryY=0.5;entryDx=0;entryDy=0;endArrow=classic;endFill=1;strokeWidth=1;startArrow=none;" parent="VU6GoZOB2YiIonXrfP6k-1" source="VU6GoZOB2YiIonXrfP6k-46" target="VU6GoZOB2YiIonXrfP6k-13" edge="1">
                    <mxGeometry relative="1" as="geometry"/>
                </mxCell>
                <mxCell id="rsrJLlBV53Do9k2laS6S-32" style="edgeStyle=orthogonalEdgeStyle;orthogonalLoop=1;jettySize=auto;html=1;entryX=0;entryY=0.5;entryDx=0;entryDy=0;endArrow=classic;endFill=1;strokeWidth=1;startArrow=none;" parent="VU6GoZOB2YiIonXrfP6k-1" source="VU6GoZOB2YiIonXrfP6k-46" target="VU6GoZOB2YiIonXrfP6k-12" edge="1">
                    <mxGeometry relative="1" as="geometry">
                        <Array as="points">
                            <mxPoint x="740" y="220"/>
                            <mxPoint x="740" y="300"/>
                        </Array>
                    </mxGeometry>
                </mxCell>
                <mxCell id="VU6GoZOB2YiIonXrfP6k-46" value="5" style="ellipse;whiteSpace=wrap;html=1;aspect=fixed;strokeWidth=3;fillColor=#AE4132;strokeColor=#ae4132;fontColor=#FFFFFF;fontFamily=Helvetica;" parent="VU6GoZOB2YiIonXrfP6k-1" vertex="1">
                    <mxGeometry x="530" y="210" width="20" height="20" as="geometry"/>
                </mxCell>
                <mxCell id="VU6GoZOB2YiIonXrfP6k-55" value="" style="group" parent="VU6GoZOB2YiIonXrfP6k-1" vertex="1" connectable="0">
                    <mxGeometry x="140" y="480" width="610" height="70" as="geometry"/>
                </mxCell>
                <mxCell id="VU6GoZOB2YiIonXrfP6k-56" value="&lt;p style=&quot;line-height: 0.9;&quot;&gt;&lt;b style=&quot;color: rgb(56, 56, 56); font-size: 12px;&quot;&gt;Note:&amp;nbsp;&lt;/b&gt;&lt;span style=&quot;color: rgb(56, 56, 56); font-size: 12px;&quot;&gt;In this example the ArgoCD Resource Hook:&amp;nbsp;&lt;/span&gt;&lt;i style=&quot;color: rgb(56, 56, 56); font-size: 12px;&quot;&gt;PreSync&lt;/i&gt;&lt;span style=&quot;color: rgb(56, 56, 56); font-size: 12px;&quot;&gt;&amp;nbsp;is used to ensure the database credentials are retrieved from Vault and stored as a Kubernetes secret prior to ArgoCD deploying the remaining manifests.&lt;/span&gt;&lt;/p&gt;" style="rounded=1;whiteSpace=wrap;html=1;comic=0;fontFamily=Helvetica;fontSize=20;strokeColor=#10739e;strokeWidth=4;fillColor=#b1ddf0;spacing=0;verticalAlign=middle;spacingTop=-6;" parent="VU6GoZOB2YiIonXrfP6k-55" vertex="1">
                    <mxGeometry x="10" y="10" width="600" height="60" as="geometry"/>
                </mxCell>
                <mxCell id="VU6GoZOB2YiIonXrfP6k-57" value="&lt;font style=&quot;font-size: 22px;&quot;&gt;&lt;b&gt;!&lt;/b&gt;&lt;/font&gt;" style="ellipse;whiteSpace=wrap;html=1;aspect=fixed;strokeWidth=3;fillColor=#10739E;strokeColor=#10739e;fontFamily=Helvetica;fontColor=#FAFAFA;" parent="VU6GoZOB2YiIonXrfP6k-55" vertex="1">
                    <mxGeometry width="20" height="20" as="geometry"/>
                </mxCell>
                <mxCell id="rsrJLlBV53Do9k2laS6S-5" style="edgeStyle=orthogonalEdgeStyle;orthogonalLoop=1;jettySize=auto;html=1;entryX=0;entryY=0.5;entryDx=0;entryDy=0;endArrow=classic;endFill=1;" parent="VU6GoZOB2YiIonXrfP6k-1" source="rsrJLlBV53Do9k2laS6S-0" target="VU6GoZOB2YiIonXrfP6k-10" edge="1">
                    <mxGeometry relative="1" as="geometry">
                        <Array as="points">
                            <mxPoint x="140" y="370"/>
                        </Array>
                    </mxGeometry>
                </mxCell>
                <mxCell id="rsrJLlBV53Do9k2laS6S-0" value="1" style="ellipse;whiteSpace=wrap;html=1;aspect=fixed;strokeWidth=3;fillColor=#AE4132;strokeColor=#ae4132;fontColor=#FFFFFF;fontFamily=Helvetica;" parent="VU6GoZOB2YiIonXrfP6k-1" vertex="1">
                    <mxGeometry x="130" y="300" width="20" height="20" as="geometry"/>
                </mxCell>
                <mxCell id="rsrJLlBV53Do9k2laS6S-8" style="edgeStyle=orthogonalEdgeStyle;orthogonalLoop=1;jettySize=auto;html=1;entryX=1;entryY=0.5;entryDx=0;entryDy=0;endArrow=none;endFill=0;exitX=0.25;exitY=0.5;exitDx=0;exitDy=0;exitPerimeter=0;fontSize=12;fontColor=#383838;dashed=1;dashPattern=1 1;strokeWidth=2;" parent="VU6GoZOB2YiIonXrfP6k-1" source="rsrJLlBV53Do9k2laS6S-10" target="rsrJLlBV53Do9k2laS6S-0" edge="1">
                    <mxGeometry relative="1" as="geometry">
                        <Array as="points">
                            <mxPoint x="170" y="277"/>
                            <mxPoint x="170" y="310"/>
                        </Array>
                    </mxGeometry>
                </mxCell>
                <mxCell id="rsrJLlBV53Do9k2laS6S-11" value="" style="group" parent="VU6GoZOB2YiIonXrfP6k-1" vertex="1" connectable="0">
                    <mxGeometry x="180" y="260" width="200" height="70" as="geometry"/>
                </mxCell>
                <mxCell id="rsrJLlBV53Do9k2laS6S-9" value="&lt;p style=&quot;line-height: 0.9&quot;&gt;&lt;/p&gt;&lt;h1 style=&quot;line-height: 0.2;&quot;&gt;&lt;font style=&quot;line-height: 0.3; font-size: 16px;&quot; color=&quot;#383838&quot;&gt;Deploy AWS Database&lt;/font&gt;&lt;/h1&gt;&lt;h1 style=&quot;line-height: 0.2&quot;&gt;&lt;p style=&quot;font-size: 12px; font-weight: 400; line-height: 1.1;&quot;&gt;&lt;span style=&quot;line-height: 1.2;&quot;&gt;The database is built out and the database connection credentials are stored in Vault&lt;/span&gt;&lt;/p&gt;&lt;/h1&gt;&lt;p&gt;&lt;/p&gt;" style="text;html=1;strokeColor=none;fillColor=none;spacing=6;spacingTop=-22;whiteSpace=wrap;overflow=hidden;rounded=0;comic=0;fontFamily=Helvetica;fontSize=12;fontColor=#666666;perimeter=calloutPerimeter;" parent="rsrJLlBV53Do9k2laS6S-11" vertex="1">
                    <mxGeometry x="10" width="190" height="70" as="geometry"/>
                </mxCell>
                <mxCell id="rsrJLlBV53Do9k2laS6S-10" value="" style="line;strokeWidth=2;direction=south;html=1;rounded=1;comic=0;fontFamily=Helvetica;fontSize=12;fontColor=#666666;fillColor=none;strokeColor=#383838;" parent="rsrJLlBV53Do9k2laS6S-11" vertex="1">
                    <mxGeometry width="18.43" height="70" as="geometry"/>
                </mxCell>
                <mxCell id="rsrJLlBV53Do9k2laS6S-12" value="" style="group" parent="VU6GoZOB2YiIonXrfP6k-1" vertex="1" connectable="0">
                    <mxGeometry x="290" y="120" width="250" height="70" as="geometry"/>
                </mxCell>
                <mxCell id="VU6GoZOB2YiIonXrfP6k-67" value="&lt;p style=&quot;line-height: 0.9&quot;&gt;&lt;/p&gt;&lt;h1 style=&quot;line-height: 0.2&quot;&gt;&lt;font style=&quot;line-height: 0 ; font-size: 16px&quot; color=&quot;#383838&quot;&gt;Deploy ArgoCD Application&lt;/font&gt;&lt;/h1&gt;&lt;p style=&quot;line-height: 1.1&quot;&gt;&lt;span style=&quot;text-align: right&quot;&gt;The argocd-application resource module deploys the ArgoCD&amp;nbsp;&lt;/span&gt;&lt;i style=&quot;text-align: right&quot;&gt;Application&lt;/i&gt;&lt;span style=&quot;text-align: right&quot;&gt;&amp;nbsp;manifest used to provision the service&lt;/span&gt;&lt;br&gt;&lt;/p&gt;&lt;p&gt;&lt;/p&gt;" style="text;html=1;strokeColor=none;fillColor=none;spacing=6;spacingTop=-20;whiteSpace=wrap;overflow=hidden;rounded=0;comic=0;fontFamily=Helvetica;fontSize=12;fontColor=#666666;perimeter=calloutPerimeter;" parent="rsrJLlBV53Do9k2laS6S-12" vertex="1">
                    <mxGeometry x="12.860000000000014" width="237.14" height="70" as="geometry"/>
                </mxCell>
                <mxCell id="VU6GoZOB2YiIonXrfP6k-68" value="" style="line;strokeWidth=2;direction=south;html=1;rounded=1;comic=0;fontFamily=Helvetica;fontSize=12;fontColor=#666666;fillColor=none;strokeColor=#383838;" parent="rsrJLlBV53Do9k2laS6S-12" vertex="1">
                    <mxGeometry width="28.42714285714286" height="70" as="geometry"/>
                </mxCell>
                <mxCell id="rsrJLlBV53Do9k2laS6S-22" value="" style="group" parent="VU6GoZOB2YiIonXrfP6k-1" vertex="1" connectable="0">
                    <mxGeometry x="430" y="270" width="300" height="50" as="geometry"/>
                </mxCell>
                <mxCell id="rsrJLlBV53Do9k2laS6S-17" value="&lt;p style=&quot;line-height: 0.9&quot;&gt;&lt;/p&gt;&lt;h1 style=&quot;line-height: 0.2&quot;&gt;&lt;font style=&quot;line-height: 0 ; font-size: 16px&quot; color=&quot;#383838&quot;&gt;Provision External Secret Manifest&lt;/font&gt;&lt;/h1&gt;&lt;p style=&quot;line-height: 1.1&quot;&gt;&lt;span style=&quot;text-align: center;&quot;&gt;ArgoCD provisions an external-secret resource that references the database credentials stored in step&amp;nbsp;&lt;/span&gt;&lt;b style=&quot;text-align: center;&quot;&gt;&lt;font color=&quot;#ae4132&quot;&gt;1&lt;/font&gt;&lt;/b&gt;&lt;br&gt;&lt;/p&gt;&lt;p&gt;&lt;/p&gt;" style="text;html=1;strokeColor=none;fillColor=none;spacing=6;spacingTop=-24;whiteSpace=wrap;overflow=hidden;rounded=0;comic=0;fontFamily=Helvetica;fontSize=12;fontColor=#666666;perimeter=calloutPerimeter;" parent="rsrJLlBV53Do9k2laS6S-22" vertex="1">
                    <mxGeometry x="11.559375" width="288.440625" height="50" as="geometry"/>
                </mxCell>
                <mxCell id="rsrJLlBV53Do9k2laS6S-18" value="" style="line;strokeWidth=2;direction=south;html=1;rounded=1;comic=0;fontFamily=Helvetica;fontSize=12;fontColor=#666666;fillColor=none;strokeColor=#383838;" parent="rsrJLlBV53Do9k2laS6S-22" vertex="1">
                    <mxGeometry width="28.125" height="50" as="geometry"/>
                </mxCell>
                <mxCell id="rsrJLlBV53Do9k2laS6S-28" value="" style="group" parent="VU6GoZOB2YiIonXrfP6k-1" vertex="1" connectable="0">
                    <mxGeometry x="560" y="120" width="190" height="70" as="geometry"/>
                </mxCell>
                <mxCell id="VU6GoZOB2YiIonXrfP6k-59" value="&lt;p style=&quot;line-height: 0.9&quot;&gt;&lt;/p&gt;&lt;h1 style=&quot;line-height: 0.2&quot;&gt;&lt;font style=&quot;line-height: 0 ; font-size: 16px&quot; color=&quot;#383838&quot;&gt;Provision Resources&lt;/font&gt;&lt;/h1&gt;&lt;p style=&quot;line-height: 1.1&quot;&gt;&lt;span style=&quot;text-align: center&quot;&gt;ArgoCD provisions the remainder of the manifests and waits for the resource statuses to show ready.&lt;/span&gt;&lt;br&gt;&lt;/p&gt;&lt;p&gt;&lt;/p&gt;" style="text;html=1;strokeColor=none;fillColor=none;spacing=6;spacingTop=-20;whiteSpace=wrap;overflow=hidden;rounded=0;comic=0;fontFamily=Helvetica;fontSize=12;fontColor=#666666;perimeter=calloutPerimeter;" parent="rsrJLlBV53Do9k2laS6S-28" vertex="1">
                    <mxGeometry x="11.899999999999977" width="178.1" height="70" as="geometry"/>
                </mxCell>
                <mxCell id="VU6GoZOB2YiIonXrfP6k-60" value="" style="line;strokeWidth=2;direction=south;html=1;rounded=1;comic=0;fontFamily=Helvetica;fontSize=12;fontColor=#666666;fillColor=none;strokeColor=#383838;" parent="rsrJLlBV53Do9k2laS6S-28" vertex="1">
                    <mxGeometry width="26.321428571428577" height="70" as="geometry"/>
                </mxCell>
                <mxCell id="rsrJLlBV53Do9k2laS6S-30" value="" style="group" parent="VU6GoZOB2YiIonXrfP6k-1" vertex="1" connectable="0">
                    <mxGeometry x="340" y="400" width="228.44000000000005" height="70" as="geometry"/>
                </mxCell>
                <mxCell id="rsrJLlBV53Do9k2laS6S-25" value="&lt;p style=&quot;line-height: 0.9&quot;&gt;&lt;/p&gt;&lt;h1 style=&quot;text-align: right; line-height: 0.2;&quot;&gt;&lt;font style=&quot;line-height: 0 ; font-size: 16px&quot; color=&quot;#383838&quot;&gt;Provision Secrets&lt;/font&gt;&lt;/h1&gt;&lt;p style=&quot;text-align: right; line-height: 1.1;&quot;&gt;The External Secrets Operator pulls the secret from HashiCorp Vault then stores it as a Kubernetes secret&lt;br&gt;&lt;/p&gt;&lt;p&gt;&lt;/p&gt;" style="text;html=1;strokeColor=none;fillColor=none;spacing=6;spacingTop=-25;whiteSpace=wrap;overflow=hidden;rounded=0;comic=0;fontFamily=Helvetica;fontSize=12;fontColor=#666666;perimeter=calloutPerimeter;" parent="rsrJLlBV53Do9k2laS6S-30" vertex="1">
                    <mxGeometry width="218.44" height="70" as="geometry"/>
                </mxCell>
                <mxCell id="rsrJLlBV53Do9k2laS6S-26" value="" style="line;strokeWidth=2;direction=south;html=1;rounded=1;comic=0;fontFamily=Helvetica;fontSize=12;fontColor=#666666;fillColor=none;strokeColor=#383838;" parent="rsrJLlBV53Do9k2laS6S-30" vertex="1">
                    <mxGeometry x="208.44000000000005" width="20" height="60" as="geometry"/>
                </mxCell>
            </root>
        </mxGraphModel>
    </diagram>
</mxfile>